<svg xmlns="http://www.w3.org/2000/svg" width="1024" height="1024" viewBox="0 0 1024 1024"><defs><linearGradient id="a" x1="1051.742" x2="25.512" y1="585.193" y2="456.848" gradientUnits="userSpaceOnUse"><stop offset="0" stop-color="#fe5b3d"/><stop offset="1" stop-color="#ff9047"/></linearGradient></defs><path fill="url(#a)" d="M0 0h1024v1024H0V0"/><path fill="#fff" d="M908.909 0H1024v1024h-37.786c-29.87-33.679-58.539-68.225-88.356-101.996a5113 5113 0 0 1-45.618-52.189c-7.161-8.3-15.229-16.665-21.666-25.464 5.287-6.952 6.941-9.65 9.309-17.948 16.171.499 34.953 2.271 51.359 3.344a3943 3943 0 0 0 85.426 5.01 897 897 0 0 1 25.632 1.817c4.02.322 15.94 1.935 18.77-.044.66-1.788.56-.881.22-2.83-.87-.899-1.54-1.696-3.03-1.722-5.46-.097-11.04-.647-16.48-.999l-38.568-2.427-122.086-7.446c-.464-8.948-.356-12.563-3.664-20.741 9.521-5.344 20.748-13.106 30.228-19.027l67.312-42.177 56.611-35.532c8.527-5.363 17.347-10.667 25.807-16.158 2.15-1.393 3.99-3.24 4.84-5.696l-.33-.658c-2.09-.531-4.8.248-6.59 1.327-17.878 10.804-35.705 22.192-53.325 33.366a4687 4687 0 0 1-98.148 61.08c-9.725 5.903-19.822 12.794-29.538 18.333-4.944-5.723-7.272-8.929-14.326-11.846 1.544-5.885 3.788-12.393 5.672-18.214 26.862-82.994 54.718-165.74 81.788-248.664 11.825 3.127 20.358 1.651 31.332-2.748 4.032 4.924 8.086 10.745 11.978 15.897 22.249 29.451 43.708 59.596 65.337 89.505 1.13 1.562 3.65 4.03 5.63 2.818 2.03-4.775-5.13-11.878-7.8-15.401a859 859 0 0 1-13.32-18.17 3048 3048 0 0 0-56.717-77.978c13.135-12.639 16.572-26.336 11.192-43.865 14.23-5.967 29.316-11.039 43.512-17.251 4.663-2.041 22.753-7.931 24.743-10.914-.01-1.926.31-1.137-.8-2.516-3.74-1.268-9 1.444-12.48 2.878-19.067 7.864-38.565 14.942-57.339 23.503a232 232 0 0 0-4.02-5.637c-7.803-10.415-16.439-13.39-28.821-15.208-1.187-6.121-3.92-15.323-5.572-21.628l-14.277-52.791-41.455-153.704a5100 5100 0 0 1-21.142-78.385c-2.756-10.607-6.109-22.22-8.458-32.801 10.336-7.442 15.689-12.312 19.586-24.547 6.024 1.506 16.554 3.042 23.005 4.222l59.361 10.47 59.064 11.23c6.678 1.237 24.508 4.885 30.428 4.488 3.7-4.413 1.86-6.607-1.91-10.066-7.97-7.297-16.17-14.334-24.215-21.552l-56.209-50.244C927.815 16.931 919.028 9.656 908.909 0"/><path fill="#fff" d="M0 0h711.664c-8.389 8.156-24.12 18.669-33.779 25.844-12.074 8.97-24.474 17.899-36.602 26.822l-130.682 97.119c-2.139-1.791-2.608-2.239-4.292-4.452 6.153-12.855 13.103-24.392 19.858-36.808l36.77-67.443 11.821-21.577c2.171-3.926 4.378-7.832 6.442-11.815 1.417-2.734.589-4.874-1.825-6.545-.903-.03-1.473-.26-1.807.39-3.425 6.65-8.648 16.438-12.085 22.735a7664 7664 0 0 0-53.647 98.89c-3.777 7.083-7.982 13.76-11.64 20.888-7.13-4.39-13.786-2.966-21.152-.006-4.262-6.732-9.099-12.957-13.778-19.392-20.047-27.567-40.047-54.932-60.908-81.89a1857 1857 0 0 1-14.842-19.291c-5.684-7.625-11.467-15.878-17.99-22.81-1.796.222-3.953.426-5.703.737-.372 9.428 3.504 31 4.938 41.74a2874 2874 0 0 1 10.064 81.954l-6.045 1.623A8993 8993 0 0 0 251.1 50.856l-30.26-18.64c-4.103-2.577-21.888-14.68-25.275-13.967-2.806 1.83-2.257 7.437-2.21 10.616.082 5.57.284 11.166.428 16.738l.711 37.493c.17 8.506.644 19.143.077 27.465-50.987-16.67-88.636 8.255-101.238 59.197-1.433 1.246-3.198 2.696-4.537 3.994-4.84 18.32.38 17.091 15.34 16.589-.096 6.493-.185 8.136-1.19 14.442-.935 5.87-9.357 23.262-7.053 26.91 2.464.105 7.878-7.429 9.429-9.629-.025 8.301 1.387 12.407 4.077 20.334-1.241 3.154-1.813 4.276-3.517 7.189-3.905-1.114-9.887-3.054-13.58-1.192-5.87 2.959-6.338 21.1-14.126 20.414-.726-.063-.996.05-1.77.231-1.344 1.577-12.832 22.863-14.966 26.874-9.016 16.95-21.149 40.205-23.766 59.254-.893 6.497.334 20.995.871 28.017l2.117 28.31c1.256 15.855 3.907 31.567 5.713 47.354 3.11 27.176 8.493 54.085 12.141 81.157.59 4.38-3.826 20.692-4.83 26.278a230 230 0 0 0-3.703 37.329c-.096 9.587.38 18.697 1.577 28.224.694 5.522 2.814 12.786 2.764 18.172-.31 33.277-2.04 66.656-2.238 99.927-.092 15.407-2.806 27.214-6.73 41.986-3.963 20.567-9.54 39.759-14.955 59.934a1314 1314 0 0 0-7.909 31.837c-.642 2.706-2.682 12.898-3.677 14.671C13.881 907.161 5.236 914.42 0 923.399z"/><path fill="#fff" d="M313.322 813.682c7.249 5.582 14.559 15.369 21.498 21.805 21.477 19.92 41.696 41.133 62.596 61.643 4.25 4.187 8.256 8.051 12.879 11.852-3.137 6.085-4.032 11.572-2.01 18.364a23.01 23.01 0 0 0 11.539 13.957c5.124 2.652 9.643 2.852 15.259 2.89 7.205 26.395 18.176 53.344 26.216 79.807H309.041c-.335-27.941-27.988-33.112-50.188-36.249-.994-1.732-3.265-4.866-4.686-6.106-6.02-5.255.153-10.396 1.98-15.967 1.109-3.384-.32-8.694.915-12.195 17.447-46.957 39.282-92.693 56.26-139.801"/><path fill="#fff" d="M796.744 854.391c11.333 1.477 19.276.632 29.077-5.99 18.622 20.314 36.515 41.497 54.368 62.495 32.345 38.042 66.767 74.845 98.795 113.104H749.211c11.803-39.746 22.907-79.705 33.871-119.688 4.564-16.645 9.427-33.196 13.662-49.921"/><path fill="#fff" d="M156.42 730.548c9.889 4.104 23.958 10.732 33.584 14.094 7.594 14.174 15.638 30.087 23.542 43.869-3.397 3.452-15.632 17.242-16.576 21.182-4.251 17.734-2.246 38.703-4.687 56.805-.658 4.878-12.017 14.401-13.683 19.77-2.824 10.927-2.51 23.26-4.909 35.096-8.454 5.746-16.024 14.386-12.01 25.295 1.183 3.216 2.6 6.335 3.964 9.479-3.544 2.968-8.508 6.443-8.996 11.42-.669 6.824 8.457 12.652 13.625 15.576-2.395 8.906-9.95 33.706-3.965 40.866H84.463c-.122-16.7-3.223-23.05-9.796-38.292 3.87-3.036 4.088-4.162 3.412-8.949l-.246-1.733c9.806-2.578 13.949-4.494 7.79-14.701 7.234-8.239 12.913-11.87 8.821-24.558 9.566-19.315 17.316-44.113 23.693-64.817a1745 1745 0 0 0 25.788-92.023c3.655-14.136 7.596-35.167 12.495-48.379"/><path fill="#fff" d="M450.778 931.227c21.028 5.318 40.454 12.604 61.131 18.986l157.715 50.197c19.373 6.23 38.974 11.91 58.219 18.55 2.353.81 12.968 4.17 14.311 5.04H467.897c-3.654-8.67-7.522-21.43-10.625-30.756a4069 4069 0 0 0-17.291-51.218c5.452-3.387 7.386-5.172 10.797-10.799"/><path fill="#fff" d="M714.526 0h74.166c2.234 7.898 5.449 15.11 7.335 23.183-20.725 10.276-25.908 19.987-28.061 42.52-13.143 4.976-27.576 9.614-40.98 14.355l-107.035 37.825c-12.235 4.324-103.466 37.413-104.863 36.952.825-3.692 47.653-36.205 53.721-40.701l107.949-80.543c4.795-3.552 37.819-27.163 40.134-30.615-.35-1.77-.613-1.461-2.366-2.976"/><path fill="#fff" d="M794.427 0h105.279c11.321 9.332 22.627 19.811 33.631 29.586a3273 3273 0 0 1 39.919 35.395c15.043 13.68 27.124 25.374 43.194 37.965-20.561-5.513-46.611-9.137-68.041-12.858-32.45-5.635-65.162-12.413-97.542-17.822.2-3.608.28-6.75.146-10.396-.677-18.375-13.766-34.111-31.216-39.261-5.893-1.74-12.419-1.192-18.564-.927C799.64 15.224 796.541 6.5 794.427 0"/><path fill="#fff" d="M0 924.04c3.525 5.43 10.12 11.946 14.29 17.262-6.156 3.471-8.139 4.754-11.727 11.017 2.971 4.364 5.125 5.291 9.564 8.098-1.29 3.974-2.516 5.586-3.998 9.053 1.113 6.151 1.597 13.52 7.27 17.139-1.318 8.182-5.124 27.511-.185 33.711 2.078 2.61 4.459 2.92 7.502 3.68H0z"/><path fill="#fff" d="M500.727 195.58c1.29.693 3.181 5.781 4.167 7.618 4.519 8.413 8.969 16.866 13.468 25.291l68.053 126.798c11.38 21.122 23.742 45.96 35.805 66.282-24.894 19.809-30.546 50.199-16.081 78.17-9.717 3.887-19.694 7.557-29.543 11.125-58.236 21.097-116.418 42.585-174.48 64.114-6.029 2.658-18.162 6.33-24.992 9.011-7.498 2.943-21.041 8.665-28.38 10.519 3.168-11.208 7.851-22.403 12.044-33.302l17.449-45.672c13.931-36.372 27.319-74.182 41.721-110.311 6.04-4.09 14.47-4.073 17.662-7.232 20.461-20.247 40.425-41.189 60.731-61.626 2.239-2.254 1.461-4.158-.327-6.124-3.985-1.372-47.387-.754-55.315-.871 3.201-12.145 8.993-26.717 13.23-38.741 10.838-30.754 23.21-62.387 32.873-93.498 5.503.69 6.724.144 11.915-1.551"/><path fill="#fff" d="M714.77 476.465c5.411-.022 10.68.261 16.072.421 50.37 1.491 101.013 5.15 151.388 5.72 1.992 15.639 7.793 22.325 19.981 31.459-11.656 38.443-25.48 76.503-38.205 114.566l-25.65 78.056c-3.718 11.515-6.985 22.677-10.883 34.242-4.274 13.167-9.075 27.096-12.336 40.481-8.699-1.537-13.935-1.164-22.61.358-3.974-8.322-7.904-18.589-11.62-27.276l-23.286-54.228-28.511-65.257a5420 5420 0 0 0-48.818-111.277c21.033-10.887 29.817-24.329 34.478-47.265"/><path fill="#fff" d="M554.55 677.743c3.188 1.236 8.944 5.088 12.113 6.891 59.14 33.658 117.717 68.267 176.624 102.331 8.727 5.047 17.642 10.794 26.861 14.77-3.424 7.711-3.165 14.529-3.15 22.801l-160.812 43.816c-6.773 2.238-15.453 4.269-22.465 6.121l-33.85 9.111a5522 5522 0 0 1-98.65 26.283c-2.345-3.614-3.913-5.932-7.244-8.655a3349 3349 0 0 0 24.283-49.477c3.506-7.376 10.432-23.068 14.577-29.597 19.402 5.362 27.759-5.875 34.203-21.569 6.773-16.495 11.217-24.796-4.78-38.277 14.713-27.2 27.315-57.173 42.29-84.549"/><path fill="#fff" d="M766.747 830.052c2.525-.142 2.443 1.807 4.19 4.38 6.576 9.692 10.187 13.667 20.472 18.561-1.748 6.545-3.879 13.107-5.774 19.636-13.983 48.168-25.751 97.386-40.484 145.311-6.225-1.34-12.185-3.55-18.253-5.29-12.836-3.66-25.431-8.33-38.081-12.33a4191 4191 0 0 1-67.943-21.475c-25.975-8.502-52.165-17.571-78.343-25.188-4.466-1.618-9.284-2.851-13.814-4.365-25.001-8.355-50.652-15.579-75.649-23.83.608-3.578.46-5.799.003-9.278 15.362-5.415 35.401-10.237 51.35-14.281l58.571-15.442z"/><path fill="#fff" d="m785.202 98.726.573.376c11.959 7.728 24.999 7.914 38.408 5.001 1.04 7.285 6.049 25.338 7.955 32.968a6150 6150 0 0 0 22.839 85.946l33.57 122.392c8.587 31.797 16.812 64.759 26.055 96.279-7.433 1.526-13.195 4.959-19.214 9.357a1469 1469 0 0 0-28.363-30.377 7767 7767 0 0 0-97.635-103.236l-25.468-26.655c-5.506-5.771-13.444-14.326-19.578-19.211 20.512-21.535 17.367-50.054-7.268-66.635 3.184-6.522 14.639-23.13 19.073-29.941l29.659-46.013c6.159-9.506 13.776-20.623 19.394-30.25"/><path fill="#fff" d="M632.115 523.805c12.95 7.083 29.321 6.032 43.062 2.283 10.387 21.72 19.88 45.788 29.572 67.97l57.864 132.598c8.372 19.264 15.84 37.766 24.569 57.239-7.316 4.362-9.432 7.083-14.589 14.009-11.074-6.002-24.418-14.754-35.84-21.3-8.451-4.781-16.992-10.105-25.48-15.004l-90.438-52.447c-21.552-12.584-42.472-23.835-63.886-36.978 1.364-3.532 5.146-10.509 6.972-14.11l13.866-27.447a3749 3749 0 0 1 54.328-106.813"/><path fill="#fff" d="M200.031 26.584c5.862 2.349 15.624 9.016 21.312 12.576l34.556 21.48a6807 6807 0 0 1 92.304 56.604c8.378 5.147 16.845 9.873 25.182 15.144-.052 3.318.143 6.065.371 9.37-12.56 15.939-11.783 28.052-19.059 46.191-13.529 33.732-39.21 64.875-62.547 92.563-4.972 5.899-13.276 11.255-17.442 17.009 1.172 2.766 1.583 4.297 2.345 7.138a474 474 0 0 1-12.534-2.726c-15.732-3.32-32.311-5.825-47.503-10.986-16.528-5.616-33.099-10.895-49.465-16.964 1.849-2.167 4.394-5.945 6.126-8.369 13.869 3.492 42.451 11.786 36.702-13.257 3.009-2.71 5.951-4.68 4.029-8.875-1.082-2.362 3.007-4.098 3.532-6.44.728-3.244-2.171-4.426-1.233-7.767 2.153-1.416 4.165-1.118 6.417-1.832 7.556-2.431 3.479-10.558.71-15.098-3.369-5.526-5.635-11.358-7.782-17.412l4.013-6.078c5.241.26 47.294 2.298 42.351-11.803-1.89-5.392-20.251-12.238-26.546-14.133-3.917-14.123-10.298-27.773-21.121-37.836-3.62-3.365-9.534-8.542-14.062-10.451l-.267-39.479c-.255-16.075-.891-32.521-.389-48.57"/><path fill="#fff" d="m347.797 604.544 201.026 70.443a4573 4573 0 0 1-41.324 84.791c-18.442-6.894-26.774 2.356-33.562 18.484-5.654 13.434-12.523 25.102.989 38.2 1.111.737 1.392.995 2.38 1.905-.267 1.749-5.555 12.614-6.696 15.069a2108 2108 0 0 1-18.359 38.641c-4.112 8.362-9.113 17.587-12.684 26.072-4.374-.992-7.179-1.16-11.678-1.456-3.283-10.294-5.829-21.112-8.893-31.536A5821 5821 0 0 1 380.133 725.1l-20.305-75.312c-4.175-15.31-8.644-29.734-12.031-45.244"/><path fill="#fff" d="M719.777 275.941c4.359.858 157.381 163.756 172.477 178.602-6.871 8.495-8.069 12.282-10.252 22.993l-37.747-1.786q-64.636-2.183-129.24-5.151c-1.04-12.354-2.689-20.75-9.319-31.621-7.712-12.644-20.596-22.886-35.166-26.263 2.234-17.508 6.469-38.868 9.595-56.497a4277 4277 0 0 0 11.89-73.28c11.241 1.196 18.305-1.408 27.762-6.997"/><path fill="#fff" d="M514.231 181.776c9.011 2.137 27.257 8.557 36.665 11.455l70.39 21.622c12.167 3.825 23.953 8.142 36.204 11.753-5.678 16.524-1.338 32.504 11.012 44.894 5.253 5.27 10.952 7.628 17.666 10.457-2.969 15.402-5.393 33.976-7.904 49.676l-12.331 73.276-.87 5.956c-12.155-1.935-27.828 1.604-38.416 7.613-3.753-8.035-9.93-18.899-14.222-26.741a2012 2012 0 0 1-18.607-34.658l-56.75-106.582c-10.33-19.361-20.962-38.558-31.077-58.104 4.157-3.729 5.434-5.769 8.24-10.617"/><path fill="#fff" d="M609.061 505.01c1.192.331 3.022 3.009 4.103 4.218 4.305 4.812 7.53 7.679 12.799 11.312-9.514 22.528-24.565 49.886-36.007 72.294-12.537 24.553-25.779 53.741-39.108 77.43-14.482-6.778-28.849-10.688-43.876-16.017l-88.601-30.986a2046 2046 0 0 0-41.351-14.419c-5.884-2.016-19.894-6.512-24.871-9.467z"/><path fill="#fff" d="M768.477 72.087q.423.226.848.448c.373 3.16 3.62 10.799 4.755 13.014 2.051 4.005 4.038 6.377 6.884 9.183-5.319 7.759-11.077 17.267-16.179 25.259l-29.773 46.325c-7.534 11.797-15.333 24.485-23.254 35.921a41.4 41.4 0 0 0-22.847-2.555c-13.746 2.498-21.634 10.446-29.168 21.511-31.093-10.885-64.773-20.407-96.364-30.495-15.646-4.933-30.979-9.086-46.66-14.263 1.1-6.317.934-9.323-.495-15.406 9.226-2.098 27.094-8.921 35.946-12.306l35.599-13.295c14.159-5.268 27.132-9.361 41.166-14.328l76.31-27.11 36.283-12.727c8.444-3.03 18.425-6.925 26.949-9.176"/><path fill="#fff" d="m340.871 606.342.691.217c1.255 1.391 16.795 60.206 18.708 67.204a12020 12020 0 0 0 61.892 224.436c-3.705 1.683-5.314 3.381-8.321 6.078-7.526-6.043-20.201-19.316-27.402-26.424l-48.992-48.189c-7.333-7.238-14.031-14.562-21.577-21.699 5.078-24.081 7.205-26.687-.12-50.721-10.342-33.93-21.181-67.721-31.931-101.534 19.586-15.416 37.396-33.747 57.052-49.368"/><path fill="#fff" d="M474.751 193.05c3.026 2.028 4.993 2.515 8.4 3.304a6207 6207 0 0 0-46.894 133.136c-13.02.31-25.751.138-38.762.052-3.218 2.012-8.472 6.271-11.68 8.65a2177 2177 0 0 0-21.297 15.699c-10.494 7.846-20.954 15.698-31.203 23.862-5.682 4.527-13.311 9.766-18.255 14.864l-.661.689-.547.005-.597-1.935a775 775 0 0 0-7.06-26.947c5.076-.5 12.644-.428 17.002-2.702 22.318-11.647 25.369-48.984 33.452-69.394l.239-.585c8.776-6.734 17.497-14.82 25.945-22.069l51.013-43.755c10.574 8.536 18.455 1.753 13.799-10.555 8.255-7.241 19.804-14.981 27.106-22.319"/><path fill="#fff" d="M372.443 11.38c5.182 4.152 17.158 21.809 21.763 27.654C421.727 73.966 446.734 111.21 474 146.278c-2.728 3.068-5.033 6.462-7.142 9.972-1.131 2.089-2.265 4.885-3.239 7.105a416 416 0 0 0-23.091-9.345c-8.453-3.063-25.994-7.776-33.056-12.872-6.465-4.664-.206-8.494-12.374-12.044-1.152-1.673-3.497-5.136-5.595-5.589-.638-.138-1.241.423-3.224-.197-4.791-32.516-7.26-65.926-11.955-98.484-.647-4.485-1.356-8.94-1.881-13.445"/><path fill="#fff" d="M411.409 410.992c-.123 2.384-12.295 32.788-13.942 37.141a8008 8008 0 0 1-53.018 139.282c-.927-4.539-1.46-8.95-2.061-13.534-4.989-37.117-7.832-76.345-13.354-113.507 8.389-3.077 15.998-6.957 24.186-10.139 5.481-1.524 11.704-.808 16.638-4.234 15.35-10.659 25.971-23.971 41.551-35.009"/><path fill="#fff" d="m323.049 462.959.588.096c1.713 2.383 12.578 110.986 15.101 126.509-4.135-4.1-8.135-9.315-12.024-13.741-6.505-7.401-12.639-14.856-18.772-22.573-2.345-2.671-4.862-5.997-7.053-8.864-14.45-18.904-30.407-36.637-45.286-55.156 8.896-3.672 17.812-6.653 26.806-10.009a825 825 0 0 0 40.64-16.262"/><path fill="#fff" d="M298.295 364.716c1.379-.162 1.812-.366 3.067.182.986 2.913 1.57 5.786 2.287 8.764 4.497 18.69 9.225 36.83 12.883 55.711-9.03.112-63.274 4.033-66.781 1.132l.318-2.914c.149-2.574-.057-5.581-.158-8.189-7.074-9.281-18.462-17.724-22.301-28.173-.695-1.892-1.031-8.052-1.189-10.339 26.412-6.257 42.464-14.042 71.874-16.174"/><path fill="#fff" d="M249.351 491.556c1.766 1.237 10.701 11.984 12.818 14.496a6848 6848 0 0 1 43.872 53.501c8.875 10.808 23.083 26.481 30.48 37.032l-7.143-.676c-21.293-2.317-48.551-5.984-69.236-6.724-4.57-11.559-6.702-21.745-9.746-33.635-3.58-13.985-6.646-25.688-7.216-40.213-.242-6.157-1.808-13.887-2.387-20.377 2.805-1.303 5.664-2.318 8.558-3.404"/><path fill="#fff" d="M401.06 340.083q38.77-.421 77.54.077c-7 8.089-17.579 18.043-25.301 25.761a789 789 0 0 0-22.813 24.138l-19.265-.125c-25.767.092-51.55.622-77.283.433a3894 3894 0 0 1 67.122-50.284"/><path fill="#fff" d="M64.343 541.423c.909 1.241.04 41.814.17 47.987.503 24.163 3.62 47.724 7.015 71.607 1.749 12.303 5.332 26.058 4.823 38.46-.292 7.125-2.135 14.311-3.458 21.303a2513 2513 0 0 1-6.05 31.42c-1.549 7.463-3.57 15.524-4.703 22.972 4.595 2.038 9.429 3.539 14.234 5.72-3.868 7.489-12.042 18.769-17.065 26.001-7.837 11.282-13.205 20.682-20.098 32.416l5.364-23.205c1.699-6.085 2.976-14.71 4.456-21.192 1.581-8.804 6.321-20.503 6.673-29.31 1.336-33.451 1.238-67.268 2.94-100.685 5.005 14.388 5.634 24.064 16.945 35.527l-.487-1.089c-18.237-41.044-26.086-90.654-16.438-134.543 1.779-8.092 2.638-15.512 5.679-23.389"/><path fill="#fff" d="M406.183 188.887c6.883 6.602 18.927 23.974 24.387 32.012-5.348 5.337-12.25 10.573-18.096 15.601l-40.134 34.602a423 423 0 0 1-13.517 11.873c7.506-25.906 13.493-53.751 21.171-80.128 14.784-1.853 15.68-2.883 26.189-13.96"/><path fill="#fff" d="M261.891 594.188c24.285 3.388 49.869 5.374 74.386 8.017a508 508 0 0 1-24.773 22.143c-8.148 6.902-21.877 19.968-29.928 25.597-5.988-18.339-13.157-37.534-19.685-55.757"/><path fill="#fff" d="M139.333 650.363c2.133.893 8.447 8.656 10.599 10.884 10.486 11.639 25.269 24.317 33.676 37.604 16.016 25.312 27.037 42.866 50.26 62.623a711 711 0 0 1-9.247 12.52l-7.945 10.374c-5.046-10.826-11.918-21.712-17.546-32.321-18.411-34.703-40.329-67.627-59.797-101.684"/><path fill="#fff" d="m373.104 150.777.64.641c.507 1.277 1.024 3.135 1.409 4.39 2.801 9.137 2.58 14.116.458 22.822-3.514 14.421-10.113 13.823-15.193 21.903-3.706 7.909-6.775 17.021-10.296 24.924-12.049 27.043-27.258 57.103-52.388 74.2-2.786 1.895-4.298 5.023-7.194 6.718-1.411.825-2.889-.093-4.292-.586a27 27 0 0 1-2.909-.499c-1.511-1.659-1.868-4.762-2.4-7.113 17.329-14.504 28.402-28.822 41.58-46.894 13.874-19.026 26.555-36.488 35.706-58.368 4.824-11.536 8.718-32.578 14.879-42.138"/><path fill="#fff" d="M413.452 150.796a899 899 0 0 1 49.475 18.153c1.046 9.416 2.487 12.237 7.498 20.345-3.607 3.732-10.785 8.979-15.081 12.304a338 338 0 0 1-11.062 8.65c-12.862-11.73-19.198-19.281-28.327-33.937 1.906-1.927 4.951-4.472 5.228-6.971-1.807-2.269-2.269-2.819-3.464-5.432.167-.342.722-1.438.752-1.73.202-1.982-4.052-9.474-5.019-11.382"/><path fill="#fff" d="m341.389 429.635.987-.088.415.666c-.651 2.82-2.178 5.143-3.6 7.7-26.67 10.78-66.51 12.62-94.734 13.464l-.862-.219c-.562-2.053 3.231-12.045 4.139-14.695 29.532.326 64.951-.024 93.655-6.828"/><path fill="#fff" d="M139.1 268.976c3.882.367 20.187 7.461 24.958 9.049 10.251 3.839 21.423 6.748 31.576 10.666 22.344 8.623 44.97 13.661 68.426 18.153 4.536.869 9.708.875 13.846 2.798 1.401.651 1.185 2.371 1.31 3.705-13.39-.621-27.564-3.02-40.917-4.818-9.391-1.634-19.703-2.096-28.88-4.591-16.147-4.39-31.39-13.435-46.177-21.059-4.413-2.274-22.092-10.449-24.142-13.903"/><path fill="#fff" d="M239.718 762.918c.67 4.563-36.582 84.522-41.288 92.794-.933-2.371 1.613-39.46 1.831-44.309 4.184-6.341 12.374-15.501 17.519-21.72 6.716-8.119 14.895-19.331 21.938-26.765"/><path fill="#fff" d="M72.753 818.545c-.027-.483-43.649 72.216-48.306 79.117 1.752-17.244 10.194-39.464 13.775-56.901.17-.827 5.18-1.009 7.27-2.573a898 898 0 0 1 27.261-19.643"/><path fill="#fff" d="m314.736 396.277 1.502 1.778c.82.97 1.674 2.169 3.08 2.253 11.755.704 23.582.042 35.405.321-5.011 8.052-6.738 10.333-8.32 19.818l-.108 1.747c-2.979 3.261-19.503 5.386-24.502 6.014a642 642 0 0 1-7.057-31.931"/><path fill="#fff" d="m226.884 836.965.355.467c-.748 2.486-9.579 16.78-11.427 19.934-12.198 20.824-24.101 42.738-36.639 63.271-.478-.501-.778-1.225-.545-1.853 1.913-5.151 2.541-27.712 4.443-30.796 11.395-18.477 28.695-35.659 43.813-51.023"/><path fill="#fff" d="M177.161 923.944c3.054.935 10.51 4.693 13.62 6.182 5.387 2.581 10.982 5.005 16.322 7.61-9.331.203-12.942 1.478-21.726 4.612-7.674 3.328-9.405 5.051-15.972 10.173-2.65-4.57-3.55-7.491-4.908-12.562 1.796-7.436 6.39-12.115 12.664-16.015"/><path fill="#fff" d="m41.843 901.225 7.275-.217c-9.964 7.342-19.334 16.02-29.135 23.632-2.575 2-5.159 4.217-7.466 6.515-1.997-2.227-5.508-5.43-7.748-7.598l17.03-20.964c5.99-.841 13.913-1.062 20.044-1.368"/><path fill="#fff" d="M155.325 110.704c2.021.112 3.081-.342 4.249 1.464-22.36 4.804-44.434 24.473-51.645 45.948-.774 2.306-3.192 11.047-4.156 11.815-1.56.104-2.78.371-4.169-.267-.717-4.716 6.441-21.611 9.132-25.968 12.199-19.75 24.993-27.412 46.589-32.992"/><path fill="#fff" d="M128.296 221.809c.301.265.659.538.801.913 4.848 12.882 2.272 20.993-1.157 32.672-3.692-.753-5.966-1.403-9.572-2.54-2.616-.951-5.429-1.48-8.156-2.089 9.02-9.767 15.668-15.57 18.084-28.956"/><path fill="#fff" d="m176.907 984.937 2.26.12c1.302 1.947.03 7.338-.536 9.648-1.983 8.105-.351 18.395-2.269 26.355-1.58.63-3.022.09-4.764-.25-2.197-.77-1.369-.13-2.754-1.71-1.753-6.19 2.302-22.475 4.104-29.056.68-2.483 1.691-3.974 3.959-5.107"/><path fill="#fff" d="M22.082 981.999c2.115-.265 2.911-.45 4.585.452.292 5.696-1.537 15.663-1.706 21.719-.117 4.2 1.077 11.2.621 14.97l-1.04.26c-3.35-.72-6.418-1.04-6.877-5.28-.826-7.64.668-15.377 1.652-22.953.462-3.554.605-6.149 2.765-9.168"/><path fill="#fff" d="M228.913 404.86c2.455 2.149 11.029 11.552 12.699 14.634 1.636 3.02-2.814 6.978-4.965 11.846l-.345.789c-.971 2.484-2.664 5.837-3.845 8.334-1.563-8.646-3.622-26.999-3.544-35.603"/><path fill="#fff" d="M110.44 189.74c3.647-.158 7.759-.053 11.448-.037-1.881 7.187-4.625 13.547-7.917 20.173-.706 1.49-.66 1.458-1.767 2.668-1.624.59-3.683-.264-5.454-.745 1.206-5.409 1.719-19.779 2.384-21.64z"/><path fill="#fff" d="M171.522 713.931c2.064 1.678 11.706 18.91 13.875 22.627-2.956-1.022-5.733-2.303-8.592-3.566-5.322-2.55-10.959-4.919-16.356-7.401a139 139 0 0 1 11.073-11.66"/><path fill="#fff" d="M174.478 952.947c1.07 1.271-.475 5.71-.887 7.302-1.658 6.413-3.038 11.542-2.938 18.163l-4.646-3.572c-9.22-9.277 1.061-15.272 8.471-21.893"/><path fill="#fff" d="M121.661 204.322c.257.399.516.742.611 1.22 2.25 11.289-2.465 17.721-8.083 25.99-1.294-5.23-1.215-8.651-1.286-14.021 3.919-4.808 5.527-8.025 8.758-13.189"/><path fill="#fff" d="M163.053 699.777c1.756 1.45 4.498 6.794 5.687 8.931l-4.308 4.1-3.285 3.064c.808-5.387 1.337-10.683 1.906-16.095"/><path fill="#fff" d="M388.362 402.225c1.84-.15 3.026-.39 4.81.114l.243.664c-1.664 1.588-3.951 2.385-6.099 3.346-1.461.829-1.878 1.205-3.574 1.329l-.353-.694c.946-2.324 2.606-4.023 4.973-4.759"/><path fill="#fff" d="M123.729 224.863c.933 4.554-5.524 11.608-8.647 14.731-.322-2.808 6.706-11.967 8.647-14.731"/><path fill="#fff" d="m16.14 967.31.633 1.193c-.681 2.047-1.12 2.881-2.114 4.824.87 2.719 2.913 4.921 1.329 7.269-1.882-1.487-3.098-7.16-2.67-9.533.386-2.139 1.202-2.564 2.822-3.753"/><path fill="#feeee6" d="M155.325 110.704c7.185-1.042 13.981-1.196 21.142.196-5.762.176-11.157.391-16.893 1.268-1.168-1.806-2.228-1.352-4.249-1.464"/></svg>