<?xml version="1.0" encoding="UTF-8"?>
<svg version="1.1" xmlns="http://www.w3.org/2000/svg" width="1024" height="1024">
<path d="M0 0 C337.92 0 675.84 0 1024 0 C1024 337.92 1024 675.84 1024 1024 C686.08 1024 348.16 1024 0 1024 C0 686.08 0 348.16 0 0 Z " fill="#FEFEFD" transform="translate(0,0)"/>
<path d="M0 0 C-0.61488281 0.72445312 -1.22976563 1.44890625 -1.86328125 2.1953125 C-2.67152344 3.16210938 -3.47976563 4.12890625 -4.3125 5.125 C-5.51326172 6.55199219 -5.51326172 6.55199219 -6.73828125 8.0078125 C-11.0297302 13.68527346 -12.69869853 18.13007017 -12.46875 25.19140625 C-11.20931688 32.73750972 -5.70418752 37.94314668 0.2890625 42.25390625 C17.43196639 53.29551726 36.45243526 58.69061613 55.91015625 64.2421875 C61.8840004 65.95118239 67.81592935 67.78361623 73.75 69.625 C80.89220634 71.83207277 88.04399073 73.81698274 95.3125 75.5625 C103.9345851 77.64068271 112.25501071 80.28207845 120.62695312 83.1953125 C123.16194517 84.05491474 125.71016559 84.85964649 128.265625 85.65625 C159.59716743 95.51177799 159.59716743 95.51177799 166 106 C166.94215345 110.79641758 166.02513155 114.14154915 163.36328125 118.2578125 C156.54810849 126.96717367 145.33294789 133.41108486 135.2109375 137.640625 C131.94392941 138.88745717 131.94392941 138.88745717 129.1875 141 C125.67827832 143.20186458 122.51540391 144.13354581 118.5546875 145.2265625 C116.17789353 145.94614233 114.05491431 146.8172574 111.8125 147.875 C106.67392206 150.2620699 101.32910326 151.93590662 95.94140625 153.65625 C93.12659821 154.58274191 90.39613314 155.63738603 87.65625 156.765625 C79.86951345 159.92079322 71.8887675 162.54497471 63.9375 165.25 C63.09640686 165.53690704 62.25531372 165.82381409 61.38873291 166.11941528 C42.39129908 172.59699154 23.31777767 178.77903997 4.07421875 184.48828125 C-2.70391303 186.50056018 -9.4638174 188.57281284 -16.22509766 190.64086914 C-20.1013913 191.82416959 -23.9753665 193.00327053 -27.87890625 194.09375 C-30.53487075 194.8649437 -33.05311267 195.74245651 -35.625 196.75 C-40.74784787 198.64607424 -45.92601694 200.11744835 -51.1875 201.5625 C-64.10228504 205.14656994 -76.71806687 209.59978957 -89.36070251 214.02955627 C-93.21195497 215.37890523 -97.06872705 216.70971481 -100.93359375 218.01953125 C-125.09347082 225.16814806 -125.09347082 225.16814806 -145 239 C-145.5 242 -145.5 242 -145 245 C-136.29104827 255.85184836 -112.60356223 259.18725102 -99.75683594 262.60473633 C-90.15535297 265.17828678 -80.67291 268.11391002 -71.18359375 271.0703125 C-70.16217285 271.38846924 -69.14075195 271.70662598 -68.08837891 272.03442383 C-66.03720168 272.67572074 -63.98737717 273.32136116 -61.93896484 273.97143555 C-52.20664862 277.02802187 -42.36255204 279.58860113 -32.49121094 282.14819336 C-17.90653718 285.9368521 -17.90653718 285.9368521 -11.16162109 288.28686523 C-6.48638376 289.82926056 -1.69717631 290.99928214 3.0625 292.25 C13.02372215 294.89682885 22.93540976 297.6780316 32.81860352 300.60253906 C45.1469503 304.31562201 45.1469503 304.31562201 57.6875 307.1875 C58.51636719 307.34605469 59.34523438 307.50460937 60.19921875 307.66796875 C61.09060547 307.83232422 61.09060547 307.83232422 62 308 C62 308.66 62 309.32 62 310 C63.175625 310.061875 64.35125 310.12375 65.5625 310.1875 C70.42951191 310.7349451 74.76642176 312.16657429 79.37451172 313.78222656 C85.57637879 315.9259708 91.86281015 317.69406095 98.1875 319.4375 C124.49443313 326.71886586 150.60233286 334.81174157 176.5 343.4375 C177.45358398 343.75509277 178.40716797 344.07268555 179.38964844 344.39990234 C186.17086985 346.67867682 192.87602687 349.10606322 199.5 351.8125 C203.99161272 353.62441796 208.5216881 355.31681779 213.0625 357 C217.94914738 358.81768687 222.76025313 360.6955832 227.4921875 362.890625 C229.56762777 363.80873254 231.64535058 364.65762433 233.7578125 365.484375 C243.39902537 369.281042 252.29929483 373.73771967 261.23095703 378.98046875 C263.71982494 380.41484805 266.26622422 381.73338016 268.8125 383.0625 C285.06577533 391.90798567 300.48849359 404.75286579 306 423 C308.61856792 433.72031162 307.03489627 444.56222593 304 455 C303.80664062 455.680625 303.61328125 456.36125 303.4140625 457.0625 C295.81133068 479.96943225 278.22020763 500.30880657 262.58795166 518.17829895 C261.54383787 519.3761082 260.50468245 520.57826097 259.47097778 521.7850647 C255.08725191 526.87114692 250.47601086 531.67005072 245.72265625 536.41015625 C244.95247665 537.18129257 244.18229706 537.95242889 243.38877869 538.74693298 C241.77058627 540.36580153 240.15114788 541.98342551 238.53051758 543.59985352 C236.06932768 546.05568718 233.61352191 548.51681365 231.15820312 550.97851562 C229.57584133 552.56021653 227.99316933 554.14160717 226.41015625 555.72265625 C225.68594986 556.44888687 224.96174347 557.17511749 224.21559143 557.9233551 C220.18487562 561.93585648 216.06282483 565.78150209 211.74920654 569.48890686 C209.16674487 571.71982701 206.68465525 574.04897847 204.1875 576.375 C199.43296498 580.77782552 194.49914759 584.89012947 189.44921875 588.953125 C187.33591462 590.71926753 185.41058009 592.52134698 183.5 594.5 C179.97703952 598.13928465 176.09829903 601.24092963 172.15625 604.4140625 C168.52944691 607.35678188 165.01772847 610.42848093 161.5 613.5 C157.11806391 617.32337295 152.70939312 621.09155182 148.1875 624.75 C144.69764112 627.57487839 141.31989486 630.47717579 138 633.5 C133.77986056 637.34191939 129.41972816 640.96115221 124.984375 644.55078125 C121.61238513 647.31810802 118.30337679 650.15150415 115 653 C109.98700394 657.31951465 104.91461883 661.55097766 99.77734375 665.72265625 C96.65603633 668.28204054 93.5754997 670.88593791 90.5 673.5 C85.64688738 677.62411345 80.74186871 681.67665671 75.80078125 685.6953125 C72.73224213 688.22033075 69.70960188 690.79484769 66.6875 693.375 C62.25147739 697.15793054 57.73388547 700.80518285 53.125 704.375 C48.18020362 708.2118821 43.39620235 712.18951882 38.6875 716.3125 C27.6816192 725.94785886 16.37677611 735.19766713 4.82055664 744.1640625 C0.52615715 747.52137758 -3.49026117 751.1193195 -7.5 754.8125 C-11.14304301 758.00016263 -15.024484 760.82933608 -18.9453125 763.6640625 C-21.88658546 765.73959106 -21.88658546 765.73959106 -23.46129608 767.73143101 C-27.02898867 771.67758341 -30.04791239 773.38958399 -35.42377758 773.77713573 C-39.18493053 773.89470726 -42.93539885 773.85610316 -46.69726562 773.79467773 C-48.39300453 773.79270126 -50.08874943 773.79381538 -51.78448486 773.79777527 C-56.37117124 773.79977813 -60.95656793 773.75871622 -65.5429554 773.70975757 C-70.34216848 773.66590398 -75.14141337 773.66187903 -79.9407959 773.65357971 C-89.02146767 773.63185048 -98.10154728 773.57444479 -107.18195868 773.50413328 C-117.52285514 773.42580517 -127.86378036 773.38738205 -138.20489979 773.35226524 C-159.47026329 773.27915974 -180.73509429 773.15608912 -202 773 C-200.91235081 769.73705243 -200.51148783 769.37830082 -197.81640625 767.5390625 C-196.80960815 766.84176025 -196.80960815 766.84176025 -195.7824707 766.13037109 C-195.04988037 765.63359863 -194.31729004 765.13682617 -193.5625 764.625 C-192.004499 763.54790032 -190.44723107 762.46973964 -188.890625 761.390625 C-187.67922852 760.5543457 -187.67922852 760.5543457 -186.44335938 759.70117188 C-182.52974454 756.97634492 -178.67145369 754.17644996 -174.8125 751.375 C-169.55369521 747.56622298 -164.28826605 743.7677742 -159 740 C-148.09073472 732.2219801 -137.22348495 724.385675 -126.4375 716.4375 C-121.19475036 712.5741262 -115.8954485 708.80022023 -110.5625 705.0625 C-103.46999497 700.08829412 -96.52421688 694.94127669 -89.61328125 689.71875 C-86.70654073 687.52384896 -83.77116209 685.37464553 -80.8125 683.25 C-75.2983307 679.26707953 -69.90408691 675.13057512 -64.5 671 C-57.39700387 665.5734836 -50.26738098 660.20515008 -43 655 C-39.99864033 652.83521578 -36.9994433 650.66743845 -34 648.5 C-25.28975046 642.20622331 -25.28975046 642.20622331 -21.75 639.66796875 C-17.59067029 636.67254239 -13.51996733 633.63288039 -9.5625 630.375 C-4.66109039 626.39455589 0.4957291 622.83550925 5.6875 619.25 C12.45177469 614.57068127 18.98658967 609.73775162 25.35522461 604.53564453 C32.55776994 598.67663421 40.07057662 593.24445585 47.56933594 587.7734375 C51.51012619 584.8981964 55.44448285 582.01426625 59.375 579.125 C60.1474707 578.55716797 60.91994141 577.98933594 61.71582031 577.40429688 C68.77650399 572.1967881 75.74943107 566.87689528 82.71728516 561.54614258 C87.02749374 558.25202113 91.34649821 554.98168689 95.75 551.8125 C108.25831129 542.80177338 120.32727626 533.22883534 132.23535156 523.44433594 C133.82406222 522.1440022 135.42313025 520.85634753 137.0234375 519.5703125 C142.97444126 514.77881663 148.63398773 509.74942283 154.2265625 504.55078125 C156.46442174 502.49258113 158.73414793 500.5154647 161.0625 498.5625 C173.71157513 487.54048433 184.18218184 473.7849929 192 459 C192.43570312 458.20335937 192.87140625 457.40671875 193.3203125 456.5859375 C197.19955215 448.47480006 197.45863232 438.83452928 195.29296875 430.171875 C188.78051092 415.04931374 171.8607522 405.15505278 157.9375 398.0625 C156.935979 397.54671387 155.93445801 397.03092773 154.90258789 396.49951172 C137.15290159 387.41287369 119.06227309 379.40546725 100.375 372.4375 C92.4002106 369.45749149 84.48885167 366.39466741 76.64404297 363.0871582 C73.25754099 361.69472115 69.85655275 360.50978549 66.375 359.375 C65.42935181 359.0648999 65.42935181 359.0648999 64.46459961 358.74853516 C60.05970144 357.3133891 55.62792888 355.98208008 51.18359375 354.67578125 C48.46944382 353.83580283 45.83610625 352.83776693 43.1875 351.8125 C39.6033675 350.48125079 35.95948889 349.33097762 32.3203125 348.16015625 C29.64971671 347.22701866 27.0780439 346.20986105 24.46875 345.125 C18.23708027 342.60721854 11.83055084 340.78652367 5.375 338.9375 C-1.86406026 336.85388891 -8.97214774 334.71159205 -16 332 C-18.81983958 331.03976933 -21.65767506 330.14118027 -24.5 329.25 C-25.71018799 328.86811523 -25.71018799 328.86811523 -26.94482422 328.47851562 C-33.64273308 326.38327884 -40.37969237 324.43607896 -47.125 322.5 C-54.75276022 320.30791425 -62.26710162 317.95732277 -69.71697998 315.2215271 C-74.40465114 313.51897162 -79.11825596 312.04368131 -83.9140625 310.6796875 C-92.83379915 308.09653737 -101.6369399 305.21020356 -110.4375 302.25 C-112.01347101 301.72237965 -113.58948072 301.19487491 -115.16552734 300.66748047 C-125.55738692 297.18424023 -135.92617337 293.63752946 -146.27416992 290.02587891 C-153.28869087 287.5790187 -160.32250607 285.20032015 -167.39892578 282.93798828 C-170.36265806 281.9723594 -173.13708567 280.93072409 -175.921875 279.5234375 C-178.40044101 278.29673605 -180.63702757 277.41154541 -183.25 276.5703125 C-200.66250602 270.95783669 -222.47937455 262.88590641 -235 249 C-236.57455739 245.85088521 -236.34799118 243.47991184 -236 240 C-230.27983527 230.84773643 -219.13365443 225.7220392 -209.8125 220.9375 C-208.30683472 220.15934937 -208.30683472 220.15934937 -206.77075195 219.36547852 C-196.57231955 214.16279759 -186.37580481 209.85411458 -175.328125 206.78125 C-172.70406381 205.90069255 -170.38444842 204.728528 -167.9375 203.4375 C-164.09785932 201.41853401 -160.68620918 200.27093532 -156.3984375 199.65234375 C-154.13402642 199.03645344 -152.46213548 198.24279674 -150.3984375 197.15234375 C-145.5340028 194.6456535 -140.49062304 193.14967382 -135.25 191.625 C-133.73599609 191.17447266 -133.73599609 191.17447266 -132.19140625 190.71484375 C-130.12003014 190.09888875 -128.04776371 189.4859197 -125.97460938 188.87597656 C-121.64465042 187.60087046 -117.32256152 186.29991341 -113 185 C-111.35941104 184.50769238 -109.71878564 184.0155062 -108.078125 183.5234375 C-107.25248047 183.27561523 -106.42683594 183.02779297 -105.57617188 182.77246094 C-103.81213332 182.24351685 -102.0477953 181.71557077 -100.28320312 181.18847656 C-88.35993922 177.62314608 -76.51310317 173.88605138 -64.71777344 169.91723633 C-56.23108412 167.06356968 -47.70904042 164.338746 -39.16113281 161.67480469 C-37.06176581 161.01928612 -34.96423072 160.35822286 -32.8671875 159.6953125 C-24.75095057 157.13457465 -16.6056445 154.69027104 -8.4375 152.30078125 C13.37919313 145.91505448 35.22383552 139.4479586 56.73828125 132.1015625 C59.05950606 131.31762789 61.39166107 130.56574346 63.73046875 129.8359375 C75.97475993 126.00052681 93.09838725 120.47686195 100.71875 109.53125 C102.15210986 106.69949027 102.86911402 104.24260267 102.70703125 101.04296875 C100.88023783 95.76444413 94.79170909 93.3631114 90.08496094 91.06494141 C83.54776653 88.00072979 76.88561099 85.30193138 70.11499023 82.80175781 C67.84340706 81.94063821 65.60190316 81.01838926 63.35546875 80.09375 C57.10925041 77.58428974 50.72367378 75.54271647 44.3125 73.5 C43.07822266 73.10417725 41.84394531 72.70835449 40.57226562 72.30053711 C32.99317843 69.89041532 25.41337632 67.63982181 17.6875 65.75390625 C15 65 15 65 12.92578125 63.95703125 C10.66126458 62.83166293 8.68605486 62.50112654 6.1875 62.125 C-9.0977643 59.50005369 -23.94555808 54.37816693 -38.62109375 49.453125 C-41.29500577 48.55649949 -43.96643974 47.70873009 -46.66796875 46.89453125 C-55.68528566 44.12228177 -64.40609503 40.73616856 -72 35 C-73.1706543 32.37109375 -73.1706543 32.37109375 -74 30 C-63.41244234 24.05631978 -52.57835607 19.04220557 -41.3828125 14.35302734 C-38.73630496 13.24426241 -36.09444911 12.12495604 -33.453125 11.00390625 C-25.7343794 7.74013466 -18.0323735 4.5048503 -10.10253906 1.78027344 C-7.95303658 1.03345382 -7.95303658 1.03345382 -5.85839844 -0.12402344 C-3.51021153 -1.23086719 -2.39249567 -0.85446274 0 0 Z " fill="#F78C34" transform="translate(606,199)"/>
<path d="M0 0 C12.55838465 6.31427161 19.08298127 15.99894382 23.4375 29.0625 C24.80103571 44.60680706 20.43818528 56.02958991 10.4375 68.0625 C8.13477798 70.67125639 5.80767836 73.24415194 3.41796875 75.7734375 C-5.94920485 86.60019042 -7.18923744 102.48682768 -9.5625 116.0625 C-8.87671875 116.16473877 -8.1909375 116.26697754 -7.484375 116.37231445 C-0.09982185 117.4949465 7.19632989 119.00655752 14.5 120.5625 C15.52359619 120.77608154 16.54719238 120.98966309 17.60180664 121.2097168 C18.56981201 121.41894775 19.53781738 121.62817871 20.53515625 121.84375 C21.40664307 122.03001953 22.27812988 122.21628906 23.17602539 122.40820312 C25.4375 123.0625 25.4375 123.0625 28.4375 125.0625 C28.125 127.4375 28.125 127.4375 27.4375 130.0625 C24.12080752 132.27362832 21.05973731 133.04034341 17.25 133.9375 C16.54238525 134.11474609 15.83477051 134.29199219 15.10571289 134.47460938 C11.53432768 135.36261667 7.97864125 136.16431094 4.3515625 136.7890625 C-6.30559889 138.76787692 -12.8868106 143.40167679 -20.88867188 150.57568359 C-23.23239492 152.6575496 -25.67713837 154.60492645 -28.125 156.5625 C-56.77357915 177.20702778 -56.77357915 177.20702778 -74.8984375 204.578125 C-74.78849288 207.09282898 -74.78849288 207.09282898 -73.19140625 208.65234375 C-55.18552192 220.39531179 -31.50064954 223.64009844 -10.83691406 228.02978516 C1.28812932 230.62975662 13.31847939 233.63047663 25.36152649 236.58207703 C29.83279201 237.67609355 34.3088252 238.74785487 38.7890625 239.8046875 C39.91779785 240.071604 41.0465332 240.33852051 42.20947266 240.61352539 C44.28391908 241.10287635 46.35906169 241.58929049 48.43505859 242.07202148 C53.49828959 243.27042195 58.40032002 244.66203009 63.31640625 246.36425781 C66.64552601 247.4601697 70.03198534 248.23515219 73.4375 249.0625 C126.56429684 264.09496865 126.56429684 264.09496865 138.5625 281 C140.9451347 285.33283393 141.3244928 289.22668346 140.4375 294.0625 C135.82737062 309.56102705 119.17706614 318.45095154 105.98120117 325.71020508 C87.041857 335.84411494 67.06135346 343.9097205 47.15161133 351.90966797 C39.58080343 354.9548135 32.03610768 358.05352637 24.51953125 361.23046875 C23.67984299 361.5853537 22.84015472 361.94023865 21.97502136 362.30587769 C17.8907456 364.03404732 13.80888922 365.76775658 9.72924805 367.50683594 C1.2064419 371.12864644 -7.35790656 374.54996986 -16.04541016 377.7565918 C-19.61607467 379.08239247 -23.14853648 380.48033459 -26.67871094 381.90917969 C-30.66257113 383.50245395 -34.66355723 385.05064039 -38.6640625 386.6015625 C-66.75592785 397.48000244 -66.75592785 397.48000244 -94.5625 409.0625 C-95.74730957 409.57361328 -96.93211914 410.08472656 -98.15283203 410.61132812 C-101.32144236 411.98134789 -104.48539758 413.36168585 -107.64630127 414.74938965 C-109.46251972 415.54605957 -111.28080086 416.33802174 -113.09912109 417.12988281 C-114.18918457 417.61295898 -115.27924805 418.09603516 -116.40234375 418.59375 C-117.37550537 419.02236328 -118.34866699 419.45097656 -119.35131836 419.89257812 C-121.70545282 420.8638719 -121.70545282 420.8638719 -122.5625 423.0625 C-121.3971875 423.27003906 -120.231875 423.47757812 -119.03125 423.69140625 C-108.40646502 425.66018111 -98.12275495 428.23542465 -87.77807617 431.3515625 C-80.68616363 433.47681883 -73.56737774 435.37117216 -66.375 437.125 C-53.82169309 440.19580569 -41.42144123 443.71501951 -29.0390625 447.41015625 C-20.96155692 449.81821541 -12.87419065 452.03727424 -4.6875 454.04296875 C2.11551922 455.7128303 8.88261294 457.52126266 15.65185547 459.32226562 C17.64262422 459.85127622 19.63389195 460.37841051 21.62548828 460.90429688 C25.04306047 461.80721955 28.45914225 462.71561496 31.875 463.625 C32.94024902 463.90577393 34.00549805 464.18654785 35.10302734 464.47583008 C41.39268115 466.15792407 47.56489233 468.05377218 53.72875977 470.1496582 C57.19306557 471.31712458 60.67635671 472.35647215 64.1875 473.375 C64.88375488 473.57810791 65.58000977 473.78121582 66.29736328 473.99047852 C69.60988636 474.95600411 72.92449469 475.91426668 76.23925781 476.87207031 C88.15594763 480.31676922 100.04280285 483.81787625 111.85546875 487.60546875 C115.3380677 488.72072451 118.83101398 489.79832775 122.328125 490.8671875 C130.09539963 493.25221827 137.83456137 495.72169496 145.56713867 498.21655273 C147.19014741 498.73920552 148.81384909 499.25971133 150.43823242 499.77807617 C159.96606275 502.81919936 169.26879855 506.04207085 178.4375 510.0625 C180.64637398 510.99659431 182.85604503 511.92880545 185.06640625 512.859375 C222.14350758 528.61217561 261.52724697 545.50243496 282.4375 582.0625 C282.93894531 582.89007812 283.44039062 583.71765625 283.95703125 584.5703125 C293.50982621 601.59795307 292.55201439 620.66254545 288.4375 639.0625 C288.14746094 640.49529297 288.14746094 640.49529297 287.8515625 641.95703125 C285.848753 650.63153732 281.60014523 658.26676591 277.4375 666.0625 C277.09976563 666.70848145 276.76203125 667.35446289 276.4140625 668.02001953 C270.09626174 680.0648577 262.43992185 691.0831488 254.4375 702.0625 C253.97166504 702.70380859 253.50583008 703.34511719 253.02587891 704.00585938 C247.12669856 712.06829622 240.59123478 719.40116705 233.74609375 726.65673828 C232.0304581 728.49976628 230.38666498 730.39926894 228.75 732.3125 C225.62763098 735.92867434 222.27182024 739.26801021 218.84375 742.59375 C216.88161518 744.60684936 215.0471822 746.64923725 213.21484375 748.77734375 C209.17564463 753.43028427 204.86641075 757.78069766 200.5 762.125 C199.36014648 763.2706543 199.36014648 763.2706543 198.19726562 764.43945312 C194.0004097 768.62914106 189.7248184 772.6569496 185.21069336 776.50366211 C183.37206858 778.12002163 181.65106824 779.8148092 179.9375 781.5625 C177.00850739 784.53746335 173.93990206 787.27653168 170.78125 790.00390625 C167.91642717 792.52017564 165.11136111 795.09848047 162.3125 797.6875 C161.76360107 798.19522949 161.21470215 798.70295898 160.64916992 799.22607422 C157.68445602 801.97236241 154.72564561 804.72492828 151.76953125 807.48046875 C140.83451809 817.66878589 140.83451809 817.66878589 135.34765625 822.3984375 C133.07545489 824.37790126 130.85290128 826.4083317 128.625 828.4375 C125.08589998 831.63902433 121.46646894 834.69396063 117.75 837.6875 C114.65158547 840.19223231 111.70453053 842.6964111 108.9375 845.5625 C106.22853326 848.36775702 103.35414461 850.80879532 100.3125 853.25 C96.02189367 856.70011769 91.95087504 860.30025775 87.9375 864.0625 C83.15458206 868.54190827 78.22932711 872.74703302 73.1171875 876.8515625 C70.30496685 879.1718495 67.61952737 881.59321134 64.9375 884.0625 C60.49022888 888.15601091 55.89032537 891.98692499 51.1875 895.78125 C48.35650422 898.12968968 45.64366402 900.57159902 42.9375 903.0625 C38.52459656 907.11912087 33.98249238 910.94923693 29.3203125 914.71484375 C26.15734541 917.29064757 23.0441618 919.91936897 19.9375 922.5625 C15.93502746 925.96778196 11.9010104 929.3227416 7.8125 932.625 C4.07675277 935.66232492 0.4820309 938.80414227 -3.0625 942.0625 C-7.47808221 946.12158337 -12.02376106 949.95324225 -16.6875 953.72265625 C-19.8027508 956.2580302 -22.87485043 958.83909614 -25.9375 961.4375 C-26.47697266 961.89455322 -27.01644531 962.35160645 -27.57226562 962.82250977 C-30.39780471 965.21860378 -33.21708024 967.62181477 -36.03125 970.03125 C-48.31435688 980.53169133 -48.31435688 980.53169133 -52.5625 983.0625 C-54.74609375 982.671875 -54.74609375 982.671875 -56.5625 982.0625 C-56.8925 980.4125 -57.2225 978.7625 -57.5625 977.0625 C-56.94246094 976.56363281 -56.32242188 976.06476562 -55.68359375 975.55078125 C-48.79594283 969.96647038 -42.07760469 964.212211 -35.390625 958.390625 C-30.05786746 953.74805246 -24.68233519 949.15569611 -19.30957031 944.55957031 C-17.52414376 943.02963241 -15.74213855 941.49579199 -13.9609375 939.9609375 C-8.7286132 935.45599578 -3.48904337 930.97336652 1.875 926.625 C6.92683717 922.52270051 11.8405598 918.27548022 16.74755859 914.00244141 C21.32846638 910.01546241 25.94491507 906.07438319 30.58886719 902.16113281 C34.60134038 898.77768175 38.58472309 895.36163531 42.5625 891.9375 C46.70200139 888.37466535 50.87623109 884.87036023 55.125 881.4375 C59.81344687 877.63457237 64.25519663 873.61136288 68.6953125 869.5234375 C71.33765883 867.15210105 74.04444167 864.90997003 76.8125 862.6875 C81.6089071 858.82031137 86.1079146 854.71269284 90.60107422 850.50439453 C93.94831785 847.38710664 97.36745906 844.42683518 100.9375 841.5625 C106.3369058 837.22721067 111.37800366 832.56798539 116.4375 827.84765625 C119.39894168 825.08653653 122.42735638 822.41195349 125.48828125 819.76171875 C129.51845661 816.24843962 133.46896612 812.64503666 137.4375 809.0625 C139.10390851 807.56221321 140.77057353 806.06221128 142.4375 804.5625 C143.26636719 803.81613281 144.09523438 803.06976562 144.94921875 802.30078125 C146.57526274 800.83810745 148.20280462 799.37709667 149.83203125 797.91796875 C156.76500225 791.70181543 163.61651294 785.40087364 170.4375 779.0625 C171.34817734 778.21667358 171.34817734 778.21667358 172.2772522 777.35375977 C183.21000916 767.18050192 193.90183428 756.78451599 204.4609375 746.22436523 C206.95813997 743.72937835 209.46329831 741.24255915 211.96875 738.75585938 C219.92277087 730.8293563 227.55099481 722.94467406 234.4375 714.0625 C235.38244569 712.94762316 236.33565904 711.83964449 237.30078125 710.7421875 C255.7876446 689.57222278 272.64581361 664.27801123 280.4375 637.0625 C280.79328125 635.8559375 281.1490625 634.649375 281.515625 633.40625 C285.78806832 615.89728579 282.08615886 598.06379407 273.15234375 582.7421875 C243.28387327 536.06845003 177.12768168 516.89142355 127 501.1875 C125.30612277 500.65487921 123.6122754 500.12216344 121.91845703 499.58935547 C110.27792089 495.93235061 98.62335085 492.32377769 86.9375 488.81396484 C84.40514232 488.05277374 81.87434242 487.28656856 79.34375 486.51953125 C60.2460037 480.74274463 41.03930695 475.37653907 21.80078125 470.08984375 C17.24618329 468.83808955 12.69388924 467.5784693 8.14360046 466.31117249 C-3.08021097 463.18570509 -14.32032299 460.12114747 -25.5625 457.0625 C-29.31264589 456.04220169 -33.06267696 455.02148426 -36.8125 454 C-38.18112183 453.62717896 -38.18112183 453.62717896 -39.57739258 453.24682617 C-45.38987398 451.66122501 -51.19661807 450.0560579 -57 448.4375 C-64.83863519 446.25229841 -72.69570555 444.14434736 -80.5625 442.0625 C-89.49692877 439.69171846 -98.42321584 437.29779973 -107.32080078 434.79174805 C-111.11438323 433.72749536 -114.91552224 432.70397876 -118.73046875 431.71875 C-119.59905518 431.49405029 -120.4676416 431.26935059 -121.36254883 431.0378418 C-123.0319073 430.60811692 -124.70226717 430.1822563 -126.3737793 429.76098633 C-129.9799935 428.83320964 -133.31970432 427.96135629 -136.5625 426.0625 C-136.02116095 421.52592626 -136.02116095 421.52592626 -134.05859375 419.54296875 C-108.23547672 403.32389525 -78.35065768 393.01618474 -50.02178955 382.01812744 C-41.51019911 378.71070502 -33.005215 375.3862745 -24.5 372.0625 C-23.51108765 371.67611359 -22.52217529 371.28972717 -21.5032959 370.89163208 C-5.43723153 364.61117485 10.57742111 358.21835975 26.53320312 351.66308594 C29.98385604 350.24647211 33.43914423 348.84146404 36.89529419 347.43832397 C54.26998631 340.38149426 71.50265718 333.13363023 88.4375 325.0625 C89.59185547 324.51819336 89.59185547 324.51819336 90.76953125 323.96289062 C115.03890342 312.78867451 115.03890342 312.78867451 131.4375 293.0625 C132.05897969 288.71214218 131.86871255 286.76681383 129.5625 283 C115.38886835 268.20163527 89.21445466 262.67851049 70.4375 257.0625 C69.47822601 256.77539154 69.47822601 256.77539154 68.49957275 256.48248291 C50.44143794 251.09719932 32.29833193 246.54033881 13.88896179 242.49797058 C-73.93554779 223.12599656 -73.93554779 223.12599656 -82.69140625 210.796875 C-84.37445665 207.44586882 -84.36247427 205.75468894 -83.5625 202.0625 C-79.24152702 193.15225834 -72.39691493 186.08615557 -65.5625 179.0625 C-65.03817383 178.51770996 -64.51384766 177.97291992 -63.97363281 177.41162109 C-57.77327938 170.98542697 -51.46666586 164.93900619 -44.45703125 159.38671875 C-40.40920612 156.13644081 -36.50218125 152.7287436 -32.59594727 149.31030273 C-29.72325937 146.82052817 -26.82448575 144.50130481 -23.703125 142.328125 C-20.54890102 140.42174978 -20.54890102 140.42174978 -19.5625 138.0625 C-20.10753677 138.29672165 -20.65257355 138.5309433 -21.21412659 138.77226257 C-28.1835413 141.76688462 -35.15398436 144.75910664 -42.125 147.75 C-43.24350342 148.22991394 -44.36200684 148.70982788 -45.5144043 149.20428467 C-58.84112055 154.92035142 -72.17754424 160.60912837 -85.5625 166.1875 C-97.57883269 171.19902675 -109.51431149 176.3739494 -121.40869141 181.66796875 C-124.75893478 183.1493583 -128.11878104 184.60728061 -131.48046875 186.0625 C-141.7620801 190.53360305 -151.98380726 195.02720089 -161.8125 200.4375 C-162.50851318 200.817854 -163.20452637 201.19820801 -163.92163086 201.59008789 C-171.90479816 206.12445303 -171.90479816 206.12445303 -177.5625 213.0625 C-178.11514764 217.11524938 -177.8616423 218.64601459 -175.44140625 222.015625 C-172.71878749 225.12141287 -169.7469298 227.052643 -166.125 229.0625 C-165.03316406 229.68125 -163.94132812 230.3 -162.81640625 230.9375 C-149.60738248 237.74735469 -135.42010821 242.5784555 -121.5395813 247.80532837 C-101.61129648 255.32168772 -81.77307736 262.83304605 -62.5625 272.0625 C-61.71800293 272.46275391 -60.87350586 272.86300781 -60.00341797 273.27539062 C-57.6831975 274.37899381 -55.37038935 275.49586428 -53.0625 276.625 C-52.42578369 276.93606689 -51.78906738 277.24713379 -51.13305664 277.56762695 C-45.15764123 280.59123953 -45.15764123 280.59123953 -43.5625 283.0625 C-43.56640625 285.56640625 -43.56640625 285.56640625 -44.5625 288.0625 C-55.494253 296.37880555 -72.01813115 299.37416314 -85.02612305 303.09790039 C-90.61234175 304.72177876 -96.0845127 306.60712218 -101.5625 308.5625 C-107.4808973 310.67381319 -113.39060316 312.66561648 -119.4375 314.375 C-127.70223178 316.72217974 -135.84930906 319.41399052 -144 322.125 C-144.64652527 322.3388736 -145.29305054 322.55274719 -145.95916748 322.77310181 C-152.87715969 325.06441063 -159.70744126 327.45550411 -166.45043945 330.22045898 C-169.2356484 331.33087231 -172.06180741 332.21715205 -174.9375 333.0625 C-183.20884671 335.54682675 -191.38368848 338.22908908 -199.46313477 341.27954102 C-202.91687187 342.56761345 -206.3959956 343.78218695 -209.875 345 C-284.09860212 368.70947598 -284.09860212 368.70947598 -349.5625 409.0625 C-350.20703125 409.61292969 -350.8515625 410.16335938 -351.515625 410.73046875 C-357.38491891 416.10214861 -362.72981796 423.4610319 -363.25 431.625 C-362.49816766 441.39882048 -355.70422405 449.33551649 -348.71484375 455.625 C-313.23455171 483.36423992 -263.71896066 498.62213374 -221.2043457 511.22875977 C-218.67483043 512.02704963 -216.26123313 512.95189673 -213.8125 513.96875 C-206.56174601 516.96744632 -199.03713921 519.19590631 -191.5625 521.5625 C-188.58196596 522.50618609 -185.60306047 523.45479031 -182.625 524.40625 C-181.9642749 524.61366821 -181.3035498 524.82108643 -180.62280273 525.03479004 C-176.90991808 526.22153679 -173.29598428 527.55061109 -169.68554688 529.02148438 C-164.70187769 531.04372228 -159.65429652 532.74392248 -154.53125 534.375 C-153.61468628 534.67059814 -152.69812256 534.96619629 -151.75378418 535.27075195 C-148.85774519 536.20465578 -145.96032398 537.13415084 -143.0625 538.0625 C-139.23827112 539.28763295 -135.4155878 540.51743085 -131.59375 541.75 C-130.30736633 542.15955933 -130.30736633 542.15955933 -128.99499512 542.57739258 C-123.93330321 544.21035532 -119.01414397 546.05875816 -114.08935547 548.0647583 C-109.77699599 549.76751531 -105.38230264 551.21560233 -100.984375 552.6796875 C-98.9351312 553.36838416 -96.88598137 554.05736044 -94.83691406 554.74658203 C-93.24127625 555.28197601 -93.24127625 555.28197601 -91.61340332 555.82818604 C-68.77373362 563.5037712 -46.07949672 571.48687659 -23.5625 580.0625 C-22.36720673 580.51626007 -22.36720673 580.51626007 -21.14776611 580.97918701 C-4.00661486 587.49053622 13.0581328 594.1216996 29.625 602 C31.19930786 602.74262085 31.19930786 602.74262085 32.80541992 603.50024414 C42.1577394 608.08507413 53.5695169 613.73437759 57.4375 624.0625 C58.57778117 631.13224325 56.45924325 636.23411427 52.4375 642.0625 C48.07288693 647.33987616 43.24012495 652.18817426 38.4375 657.0625 C37.44557838 658.09145001 36.45461143 659.12132166 35.46484375 660.15234375 C30.38629789 665.36242029 25.11997634 670.10314914 19.4296875 674.6328125 C16.61999732 676.91431027 13.90049523 679.26744162 11.18676758 681.66064453 C4.60624376 687.46028295 -2.15319959 692.91205478 -9.15917969 698.1887207 C-14.01346616 701.85141059 -18.74737141 705.62999999 -23.4375 709.5 C-29.84729765 714.76835939 -36.44108162 719.73273248 -43.14404297 724.62084961 C-49.17743059 729.02436188 -55.13291462 733.52034154 -61.0625 738.0625 C-74.6108303 748.42547838 -88.3617194 758.49512407 -102.21337891 768.44775391 C-106.58155663 771.59735369 -110.87643008 774.81586542 -115.125 778.125 C-120.64739424 782.41942467 -126.32180108 786.45396159 -132.05493164 790.46118164 C-136.96356492 793.90320773 -141.78410787 797.44221948 -146.5625 801.0625 C-152.64672685 805.66740702 -158.82450591 810.11459673 -165.07080078 814.49658203 C-176.53961251 822.54482523 -187.8615153 830.7924485 -199.125 839.125 C-205.73740964 844.01675822 -212.41185329 848.80514242 -219.14868164 853.52368164 C-225.32751049 857.86472708 -231.39795088 862.34520366 -237.46337891 866.84277344 C-242.73606234 870.74311461 -248.06295703 874.55403154 -253.4375 878.3125 C-259.47379741 882.53756306 -265.33105894 886.92120988 -271.14453125 891.44921875 C-275.83645124 895.07005117 -280.66566915 898.50178945 -285.47924805 901.95800781 C-291.12235706 906.01275197 -296.72564762 910.11814487 -302.3125 914.25 C-308.83096053 919.06673563 -315.38698799 923.82273304 -321.9921875 928.51953125 C-333.22765843 936.51095775 -344.36394428 944.63672395 -355.45361328 952.82885742 C-363.776873 958.97124256 -372.16712606 965.01927049 -380.5625 971.0625 C-383.77167464 973.37383495 -386.97979179 975.68663052 -390.1875 978 C-390.90945557 978.51957275 -391.63141113 979.03914551 -392.37524414 979.57446289 C-393.0686792 980.07453857 -393.76211426 980.57461426 -394.4765625 981.08984375 C-395.15235352 981.57437012 -395.82814453 982.05889648 -396.52441406 982.55810547 C-397.93499477 983.59931274 -399.32130871 984.67390793 -400.68652344 985.77392578 C-401.37520508 986.32419434 -402.06388672 986.87446289 -402.7734375 987.44140625 C-403.3823584 987.94357666 -403.9912793 988.44574707 -404.61865234 988.96313477 C-407.08233315 990.35649757 -408.77520344 990.33373913 -411.5625 990.0625 C-412.5625 989.0625 -412.5625 989.0625 -412.98828125 986.77734375 C-412.5625 984.0625 -412.5625 984.0625 -410.16796875 981.87890625 C-409.03938265 981.11156999 -407.89892866 980.36152866 -406.75 979.625 C-405.45561076 978.74949229 -404.16272102 977.87176481 -402.87109375 976.9921875 C-402.1735498 976.52264648 -401.47600586 976.05310547 -400.75732422 975.56933594 C-396.86742037 972.89875901 -393.09806914 970.06552674 -389.3125 967.25 C-379.34101289 959.87637927 -369.2872589 952.61975307 -359.22021484 945.37744141 C-347.95009646 937.26807249 -347.95009646 937.26807249 -336.75 929.0625 C-335.85667969 928.4025 -334.96335937 927.7425 -334.04296875 927.0625 C-331.35389684 924.89430344 -328.9622881 922.54414802 -326.5625 920.0625 C-327.39104492 919.55033936 -327.39104492 919.55033936 -328.23632812 919.02783203 C-379.66183799 887.23306258 -379.66183799 887.23306258 -403.5625 871.0625 C-404.56240967 870.38888428 -404.56240967 870.38888428 -405.58251953 869.70166016 C-431.55541889 852.17970171 -457.45194033 833.50660036 -480.32421875 812.0546875 C-482.65453417 809.87675142 -485.0381643 807.77497691 -487.453125 805.69140625 C-491.68631599 802.00536239 -495.66865589 798.10436842 -499.625 794.125 C-500.29337891 793.46048828 -500.96175781 792.79597656 -501.65039062 792.11132812 C-506.15876135 787.59419477 -510.42239207 782.91842404 -514.5625 778.0625 C-515.32175781 777.17304687 -516.08101562 776.28359375 -516.86328125 775.3671875 C-522.80956712 768.18545972 -528.31824643 760.76651957 -533.5625 753.0625 C-534.17544922 752.1643457 -534.17544922 752.1643457 -534.80078125 751.24804688 C-542.71330983 739.50484969 -548.74609373 726.94815438 -554.5625 714.0625 C-555.0884375 712.92554688 -555.614375 711.78859375 -556.15625 710.6171875 C-564.04997328 692.04669748 -566.7842853 671.38368454 -566.625 651.375 C-566.62048828 650.27994141 -566.61597656 649.18488281 -566.61132812 648.05664062 C-566.59969156 645.39186691 -566.58334564 642.72721483 -566.5625 640.0625 C-567.75613159 639.77487793 -567.75613159 639.77487793 -568.97387695 639.48144531 C-574.14746082 638.2347986 -579.220379 636.87242954 -584.30078125 635.28515625 C-589.71874766 633.60269239 -595.15899849 632.03046495 -600.625 630.51171875 C-601.42336273 630.28975327 -602.22172546 630.06778778 -603.04428101 629.83909607 C-604.70047121 629.37892699 -606.35670152 628.91890225 -608.01296997 628.45901489 C-621.23622342 624.78167691 -634.36185292 620.98706973 -647.3359375 616.49609375 C-652.51237781 614.70879247 -657.76133358 613.23007803 -663.04296875 611.7890625 C-665.5625 611.0625 -665.5625 611.0625 -667.5625 610.0625 C-667.5625 608.4125 -667.5625 606.7625 -667.5625 605.0625 C-663.32226154 602.80362107 -659.2436393 601.24603369 -654.625 599.9375 C-653.11841326 599.50677731 -651.61191012 599.0757621 -650.10546875 598.64453125 C-648.81648682 598.27835693 -648.81648682 598.27835693 -647.50146484 597.90478516 C-644.11746461 596.93495621 -640.74034267 595.94293788 -637.36328125 594.94921875 C-624.44984659 591.15565813 -611.5306462 587.47984139 -598.48168945 584.17358398 C-589.68966296 581.91040843 -581.12241509 579.07610306 -572.5625 576.0625 C-573.01921874 570.98893537 -573.59533973 566.28279209 -575.25 561.4375 C-577.60651849 554.16153414 -579.4945161 546.7861402 -581.36791992 539.37255859 C-582.07711975 536.59602586 -582.81261947 533.82829966 -583.5625 531.0625 C-583.78317139 530.21187988 -584.00384277 529.36125977 -584.23120117 528.48486328 C-585.32031691 524.70202437 -585.99741502 522.5682465 -588.98046875 519.8984375 C-589.89441406 519.41632812 -590.80835938 518.93421875 -591.75 518.4375 C-606.14588333 510.16792802 -615.75286637 497.35294349 -620.66796875 481.49609375 C-625.0838 462.27789858 -623.46490927 443.3381967 -613.546875 426.06640625 C-603.61927934 411.03821518 -588.61092724 399.35570654 -570.8671875 395.47265625 C-558.88933608 393.98604348 -545.98780765 393.95471108 -534.5625 398.0625 C-533.58410156 398.39121094 -532.60570312 398.71992188 -531.59765625 399.05859375 C-515.18550931 405.16298302 -503.10715935 417.47874975 -495.5625 433.0625 C-488.52164357 448.90442696 -487.95060314 467.71045405 -493.60546875 484.08203125 C-499.84861296 499.31700775 -509.61312131 513.31097031 -524.5625 521.0625 C-525.2225 521.0625 -525.8825 521.0625 -526.5625 521.0625 C-526.7171875 522.733125 -526.7171875 522.733125 -526.875 524.4375 C-527.2681561 527.56813712 -527.90819548 530.44132491 -528.85546875 533.44921875 C-530.8967952 540.09471379 -532.7232082 546.7962654 -534.5625 553.5 C-534.90539062 554.74587891 -535.24828125 555.99175781 -535.6015625 557.27539062 C-537.59844861 564.53506245 -539.58497533 571.7975313 -541.5625 579.0625 C-540.82185303 579.20349121 -540.08120605 579.34448242 -539.31811523 579.48974609 C-536.98595068 579.97448589 -534.75172915 580.5425946 -532.47265625 581.2265625 C-531.69954102 581.45802979 -530.92642578 581.68949707 -530.12988281 581.92797852 C-529.30327148 582.17862061 -528.47666016 582.4292627 -527.625 582.6875 C-526.31740723 583.08183228 -526.31740723 583.08183228 -524.98339844 583.48413086 C-516.55495872 586.03949826 -508.1642704 588.71053052 -499.77734375 591.3984375 C-495.82311491 592.664659 -491.86145327 593.90380272 -487.89379883 595.12719727 C-481.87841573 596.98295277 -475.92723314 598.94916257 -470.03125 601.16015625 C-467.58129194 602.05563143 -465.11383697 602.84521829 -462.625 603.625 C-459.46805112 604.65468584 -457.05295717 605.78860432 -454.5625 608.0625 C-455.13594937 610.92974686 -455.4239515 611.9239515 -457.5625 614.0625 C-459.69458008 614.77685547 -459.69458008 614.77685547 -462.33203125 615.4296875 C-463.29641113 615.67340088 -464.26079102 615.91711426 -465.25439453 616.16821289 C-466.79909424 616.54901001 -466.79909424 616.54901001 -468.375 616.9375 C-477.839596 619.32339083 -477.839596 619.32339083 -487.1875 622.125 C-500.67457552 626.41228228 -514.71486474 629.1998796 -528.5625 632.0625 C-519.47523172 649.48545798 -506.24041541 664.12513277 -492.5625 678.0625 C-491.96526123 678.67512695 -491.36802246 679.28775391 -490.75268555 679.91894531 C-487.40355134 683.31942291 -483.99712876 686.46936462 -480.25 689.4375 C-476.64317022 692.33864569 -473.15450693 695.30176994 -469.75 698.4375 C-463.62711431 704.00112999 -457.12509945 709.0338589 -450.5625 714.0625 C-449.96228027 714.52495117 -449.36206055 714.98740234 -448.74365234 715.46386719 C-411.49249792 744.09714288 -371.32692096 768.83269719 -330.8359375 792.5546875 C-326.80813373 794.91515902 -322.79039108 797.29243296 -318.77319336 799.67089844 C-298.53074862 811.6534848 -278.20119019 823.4867648 -257.79931641 835.19580078 C-254.50749804 837.09422009 -251.22792448 839.01263277 -247.94921875 840.93359375 C-245.86220195 842.1436135 -243.77497138 843.35326465 -241.6875 844.5625 C-240.72448975 845.13299072 -239.76147949 845.70348145 -238.76928711 846.29125977 C-237.87862549 846.80358154 -236.98796387 847.31590332 -236.0703125 847.84375 C-235.29316895 848.29814453 -234.51602539 848.75253906 -233.71533203 849.22070312 C-231.11071646 850.23915566 -230.12727973 850.10888393 -227.5625 849.0625 C-225.67799894 847.95525532 -225.67799894 847.95525532 -223.83203125 846.54296875 C-223.12046875 846.02154297 -222.40890625 845.50011719 -221.67578125 844.96289062 C-220.91652344 844.39763672 -220.15726562 843.83238281 -219.375 843.25 C-217.74671911 842.05513692 -216.11779807 840.86114576 -214.48828125 839.66796875 C-213.66408691 839.06259277 -212.83989258 838.4572168 -211.99072266 837.83349609 C-208.37871329 835.19911886 -204.72277712 832.62916823 -201.0625 830.0625 C-192.93202121 824.34475494 -184.87286814 818.53137261 -176.82421875 812.69921875 C-174.58310267 811.07740936 -172.33898685 809.45984868 -170.09375 807.84375 C-156.37868257 797.96866154 -142.74885743 787.98143107 -129.25 777.8125 C-123.90550044 773.78754891 -118.50810372 769.85196423 -113.05029297 765.98242188 C-105.63039313 760.71066087 -98.3277537 755.27929596 -91.00927734 749.86816406 C-88.63083728 748.11293131 -86.24796407 746.36392652 -83.86328125 744.6171875 C-74.51450521 737.76337217 -65.25847588 730.801446 -56.05834961 723.74926758 C-51.18654335 720.02563736 -46.27456623 716.38920771 -41.25 712.875 C-34.74959489 708.31713438 -28.63524339 703.33239236 -22.5078125 698.2890625 C-18.86620369 695.29500894 -15.16213788 692.38959725 -11.4375 689.5 C-6.02846652 685.2887085 -0.79589701 680.9029423 4.38354492 676.41308594 C7.99261176 673.28648737 11.654089 670.24401172 15.375 667.25 C19.06752121 664.25387533 22.47639925 661.15267132 25.76953125 657.7265625 C27.53354271 655.96668222 29.3946971 654.40250555 31.3125 652.8125 C38.34641399 646.73465198 48.75856881 636.71602563 49.75 627 C46.5876902 619.9224495 38.79885756 615.72053588 32.125 612.3125 C31.30201416 611.8889624 30.47902832 611.4654248 29.63110352 611.02905273 C18.21528689 605.29323933 6.34191434 600.66766833 -5.5625 596.0625 C-6.47084595 595.7106665 -7.37919189 595.35883301 -8.31506348 594.99633789 C-15.78666819 592.10495768 -23.26673739 589.23605369 -30.75 586.375 C-32.32093918 585.77245895 -32.32093918 585.77245895 -33.9236145 585.15774536 C-46.32956413 580.40704446 -58.77126535 575.87371559 -71.41264343 571.78450012 C-76.77013786 570.04294087 -81.99809355 568.12720577 -87.21351624 565.99842834 C-90.70239846 564.60831922 -94.2476234 563.42394718 -97.81640625 562.2578125 C-98.56099594 562.01134979 -99.30558563 561.76488708 -100.07273865 561.51095581 C-102.4225368 560.73353904 -104.77364145 559.96018302 -107.125 559.1875 C-122.44789985 554.14158552 -137.67493057 548.87117173 -152.828125 543.3359375 C-156.02586757 542.2454939 -159.22870675 541.2418833 -162.46118164 540.26147461 C-169.32007403 538.15664698 -176.12222199 535.90494452 -182.91796875 533.60546875 C-184.1619342 533.18579834 -185.40589966 532.76612793 -186.68756104 532.33374023 C-190.70956348 530.9759972 -194.72999429 529.61364214 -198.75 528.25 C-199.4381139 528.01662052 -200.1262278 527.78324104 -200.83519363 527.54278946 C-350.70344279 476.69911316 -350.70344279 476.69911316 -367.8125 444.7265625 C-371.21518468 437.23593026 -372.07074833 430.58724498 -369.4453125 422.7109375 C-363.51430534 409.40305576 -352.82085668 399.65442515 -340.5625 392.0625 C-339.54800781 391.40378906 -338.53351563 390.74507813 -337.48828125 390.06640625 C-307.66165751 371.09443548 -272.4796423 358.19643684 -238.9921875 347.25 C-234.68095987 345.75727426 -230.52177981 343.98400779 -226.33203125 342.18359375 C-222.98714118 340.82959735 -219.6041343 339.82801206 -216.13381958 338.85229492 C-213.65458181 338.09078343 -211.30563483 337.19330527 -208.90966797 336.203125 C-203.7038895 334.09465573 -198.44039684 332.20950419 -193.1328125 330.375 C-192.15606567 330.03550323 -191.17931885 329.69600647 -190.17297363 329.34622192 C-187.01212541 328.24880755 -183.8499427 327.15531033 -180.6875 326.0625 C-179.60668152 325.68832947 -178.52586304 325.31415894 -177.41229248 324.9286499 C-163.02601965 319.94957296 -148.62514714 315.01570319 -134.1875 310.1875 C-133.09529144 309.82084229 -133.09529144 309.82084229 -131.98101807 309.44677734 C-124.66574163 306.99449124 -117.35730769 304.62838881 -109.87719727 302.72167969 C-107.45900602 302.03302697 -105.19282733 301.15871136 -102.875 300.1875 C-98.01626389 298.16749003 -93.05310595 296.60092767 -88.02661133 295.06567383 C-81.92913525 293.19802339 -75.88581152 291.18577722 -69.85351562 289.11767578 C-65.13281404 287.51855431 -60.41240019 286.21489745 -55.5625 285.0625 C-75.36067458 271.86371695 -100.77420976 264.50622563 -123.04116821 256.33370972 C-177.1567463 236.47017259 -177.1567463 236.47017259 -185.75390625 222.06640625 C-187.08924663 218.75708444 -187.08252958 215.53386627 -186.5625 212.0625 C-181.0761364 200.6126977 -168.33432828 194.60391893 -157.5625 189.0625 C-156.81983887 188.67819824 -156.07717773 188.29389648 -155.31201172 187.89794922 C-136.64249751 178.36047654 -117.11035863 170.6141064 -97.78800964 162.52241516 C-89.47645259 159.03705592 -81.19974266 155.47543276 -72.9375 151.875 C-64.73951787 148.30879709 -56.54186687 144.74333066 -48.3125 141.25 C-47.53696777 140.91782471 -46.76143555 140.58564941 -45.96240234 140.2434082 C-40.79706188 138.0625 -40.79706188 138.0625 -38.5625 138.0625 C-38.5625 137.4025 -38.5625 136.7425 -38.5625 136.0625 C-39.48530762 135.94974731 -39.48530762 135.94974731 -40.42675781 135.8347168 C-43.22374572 135.48575273 -46.01796718 135.11808722 -48.8125 134.75 C-49.78058594 134.63205078 -50.74867188 134.51410156 -51.74609375 134.39257812 C-52.68066406 134.26689453 -53.61523438 134.14121094 -54.578125 134.01171875 C-55.43696289 133.90174561 -56.29580078 133.79177246 -57.18066406 133.6784668 C-59.88376072 132.97941874 -61.4543865 131.86122437 -63.5625 130.0625 C-63.2325 128.4125 -62.9025 126.7625 -62.5625 125.0625 C-58.77909366 124.07279205 -54.9928563 123.09479177 -51.20385742 122.12670898 C-49.29518591 121.63660278 -47.38876929 121.13774157 -45.48242188 120.63867188 C-38.16292149 118.77517703 -31.11281457 117.43606549 -23.5625 117.0625 C-28.46727672 90.22520852 -28.46727672 90.22520852 -43.5625 68.3125 C-50.90189424 61.30152223 -55.74864895 50.14111147 -56.8984375 40.140625 C-57.06773808 27.88326304 -52.66277395 17.51165163 -44.5 8.4375 C-33.14226752 -2.4940041 -14.63469681 -5.55965636 0 0 Z " fill="#27385E" transform="translate(689.5625,14.9375)"/>
<path d="M0 0 C0.46148437 0.85980469 0.92296875 1.71960938 1.3984375 2.60546875 C5.87631556 10.78515271 10.83633162 18.21011682 16.72753906 25.43505859 C17.92565364 26.90856482 19.10038041 28.4009998 20.2734375 29.89453125 C26.54217178 37.63408506 33.48345148 44.69479475 40.5 51.75 C40.98455658 52.23982361 41.46911316 52.72964722 41.96835327 53.23431396 C48.63277523 59.95463298 55.59665124 66.10321279 63 72 C64.37892277 73.14503192 65.75426473 74.29439801 67.125 75.44921875 C83.1169777 88.84608743 99.9284639 100.76320038 117.3359375 112.24609375 C122.04030924 115.35135407 126.68805127 118.52747201 131.3125 121.75 C155.57681247 138.55171042 181.33791586 153.28975389 206.7253418 168.31665039 C207.66967575 168.87562515 207.66967575 168.87562515 208.63308716 169.44589233 C209.88675365 170.18795176 211.14047644 170.92991607 212.39425659 171.67178345 C216.83156145 174.30011858 221.25345397 176.95335574 225.671875 179.61328125 C232.21618199 183.54932238 238.81270212 187.38830652 245.4375 191.1875 C254.18581199 196.21774745 262.91542517 201.27798656 271.625 206.375 C280.69659768 211.68080478 289.81454464 216.89396746 299 222 C295.03606382 226.25095309 290.72065501 229.46861381 285.9375 232.75 C284.40268646 233.81763255 282.8688353 234.88664992 281.3359375 235.95703125 C280.59053711 236.4773291 279.84513672 236.99762695 279.07714844 237.53369141 C276.36452452 239.44859729 273.70891627 241.43230223 271.0625 243.4375 C266.21355936 247.10893528 261.30847256 250.69359151 256.375 254.25 C255.61590332 254.7972876 254.85680664 255.3445752 254.07470703 255.90844727 C250.91091939 258.18758177 247.7455395 260.46448645 244.57861328 262.73925781 C242.1973069 264.44987523 239.81733834 266.16234105 237.4375 267.875 C236.68170654 268.41697021 235.92591309 268.95894043 235.1472168 269.51733398 C230.56018078 272.82120448 226.10091494 276.22289754 221.82421875 279.92578125 C219.29677328 281.41410567 217.90233591 281.4274427 215 281 C212.0546875 279.49609375 212.0546875 279.49609375 208.875 277.4375 C207.84117187 276.77621094 206.80734375 276.11492187 205.7421875 275.43359375 C205.16871582 275.06016846 204.59524414 274.68674316 204.00439453 274.30200195 C197.99436916 270.39804759 191.93846475 266.56618454 185.8359375 262.80859375 C173.73397201 255.3492692 161.82268121 247.64296883 150 239.75 C149.32056335 239.29672333 148.64112671 238.84344666 147.94110107 238.37643433 C121.77581306 220.90428407 95.85330884 203.05989374 71.96484375 182.52734375 C69.05753648 180.04904625 66.10127699 177.64475204 63.125 175.25 C58.80216181 171.73141078 54.85308609 168.01900845 51 164 C48.24464055 161.23038869 45.47286013 158.4777824 42.6953125 155.73046875 C30.47249275 143.61973822 30.47249275 143.61973822 25 137 C24.33097656 136.20851563 23.66195312 135.41703125 22.97265625 134.6015625 C12.05985904 121.52154897 2.82248257 108.14028884 -5 93 C-5.32983887 92.37158203 -5.65967773 91.74316406 -5.99951172 91.09570312 C-19.60756166 64.88971464 -24.31142352 36.20460568 -24 7 C-7.29949239 0 -7.29949239 0 0 0 Z " fill="#FCFBF9" transform="translate(154,649)"/>
<path d="M0 0 C1.44306519 0.00749268 1.44306519 0.00749268 2.9152832 0.01513672 C18.20636992 0.38531913 33.05861058 6.60625323 44.24609375 17.11328125 C54.85782108 29.01009849 60.54155741 43.41693323 60.625 59.125 C60.645625 60.07246094 60.66625 61.01992188 60.6875 61.99609375 C60.77298639 77.61873204 53.74562661 91.97993926 43 103.0859375 C38.44187761 107.27778219 33.58683015 111.42785612 27.6484375 113.41015625 C25.21373478 114.26209523 25.21373478 114.26209523 24.58984375 116.4609375 C24.49832031 117.25757813 24.40679687 118.05421875 24.3125 118.875 C23.70974714 122.81824303 22.83119866 126.36269335 21.5 130.125 C19.72363489 135.26539721 18.36222778 140.42525179 17.09082031 145.7109375 C15.49335261 152.23571921 13.63601016 158.67841586 11.75 165.125 C11.44860107 166.15657227 11.14720215 167.18814453 10.83666992 168.25097656 C9.69331911 172.1358831 8.53986233 176.00598946 7.2578125 179.84765625 C6.01478072 183.58225172 5.10439067 187.38870386 4.15625 191.20703125 C3.375 193.5 3.375 193.5 1.375 194.5 C-2.48668537 185.19908972 -5.30920844 175.85836179 -7.90527344 166.14892578 C-8.68792769 163.26839708 -9.50100728 160.39765829 -10.3203125 157.52734375 C-13.49146753 146.39633037 -16.54053344 135.28714164 -18.93945312 123.9597168 C-19.20918945 122.74602417 -19.20918945 122.74602417 -19.484375 121.5078125 C-19.63358398 120.80285645 -19.78279297 120.09790039 -19.93652344 119.37158203 C-21.33428024 115.57186441 -24.2067157 114.08064748 -27.6875 112.375 C-41.37577479 104.90866829 -50.83865819 92.16907185 -55.625 77.5 C-59.84269214 62.37372191 -58.63814225 45.69674725 -51.375 31.6875 C-43.66455036 19.23395558 -33.37946904 8.99376752 -19.625 3.5 C-18.98675293 3.24250977 -18.34850586 2.98501953 -17.69091797 2.71972656 C-11.74250092 0.50568862 -6.32097291 -0.04341251 0 0 Z " fill="#F28937" transform="translate(131.625,416.5)"/>
<path d="M0 0 C1.18847656 2.46850586 1.18847656 2.46850586 2.140625 5.71484375 C2.48867187 6.87564453 2.83671875 8.03644531 3.1953125 9.23242188 C3.54335937 10.45509766 3.89140625 11.67777344 4.25 12.9375 C4.61351563 14.15630859 4.97703125 15.37511719 5.3515625 16.63085938 C8 25.60667293 8 25.60667293 8 28 C9.98 27.67 11.96 27.34 14 27 C14.31453125 25.96101562 14.6290625 24.92203125 14.953125 23.8515625 C17.32576181 16.09232342 19.78860758 8.46334774 23 1 C26.46517611 1.65210366 29.82485069 2.47156109 33.2109375 3.453125 C34.1999707 3.73978027 35.18900391 4.02643555 36.20800781 4.32177734 C37.25311523 4.62809082 38.29822266 4.9344043 39.375 5.25 C40.46135742 5.56791504 41.54771484 5.88583008 42.66699219 6.21337891 C49.37691509 8.19117715 56.02515435 10.27283756 62.64453125 12.53515625 C69.04775879 14.71138505 75.49765932 16.74777998 81.9375 18.8125 C83.22754095 19.22639384 84.51758006 19.64029346 85.80761719 20.05419922 C88.87153181 21.03679939 91.93565144 22.01875408 95 23 C95 23.66 95 24.32 95 25 C79.28565305 29.6298116 63.46878769 33.71143061 47.5625 37.625 C43.04220662 38.73912748 38.52270641 39.85639443 34.00390625 40.9765625 C32.4033287 41.37177094 32.4033287 41.37177094 30.77041626 41.77496338 C24.06306427 43.44407401 17.43639911 45.25582621 10.84741211 47.34912109 C5.35484649 48.6046454 0.61982079 48.15761496 -4.703125 46.4609375 C-5.75564453 46.13085693 -6.80816406 45.80077637 -7.89257812 45.46069336 C-9.00052734 45.10241455 -10.10847656 44.74413574 -11.25 44.375 C-12.40951172 44.00963135 -13.56902344 43.6442627 -14.76367188 43.26782227 C-19.85487215 41.66046364 -24.9357391 40.02159813 -30.015625 38.37890625 C-31.51014098 37.89758065 -33.00492508 37.41708661 -34.5 36.9375 C-35.5988855 36.58461914 -35.5988855 36.58461914 -36.7199707 36.22460938 C-44.62875862 33.7289662 -52.64306397 31.62179976 -60.66796875 29.53491211 C-67.88573187 27.64125924 -74.94912988 25.44253557 -82 23 C-81 21 -81 21 -78.02734375 19.95703125 C-76.66629118 19.56764471 -75.30275544 19.18688421 -73.9375 18.8125 C-72.37619207 18.37017982 -70.81500071 17.92744802 -69.25390625 17.484375 C-68.40715332 17.24654297 -67.56040039 17.00871094 -66.68798828 16.76367188 C-63.89919528 15.97136084 -61.1190679 15.15334732 -58.33984375 14.328125 C-47.24608138 11.03945301 -36.12750992 7.93065264 -24.91430664 5.07421875 C-18.65869388 3.47102976 -12.53270939 1.67366833 -6.42578125 -0.43359375 C-3.68242999 -1.07415081 -2.56172812 -1.15355069 0 0 Z " fill="#FBFBF9" transform="translate(122,600)"/>
<path d="M0 0 C8.0307399 4.42790796 12.94582795 9.44410228 16.3828125 18 C18.75383467 26.59753255 18.64749138 36.57153243 14.84375 44.6953125 C10.96306532 51.38583256 5.73504825 56.7695452 0.32421875 62.234375 C-10.19483489 73.3721965 -11.85693425 88.77757694 -14.71875 103.2578125 C-15.04875 103.2578125 -15.37875 103.2578125 -15.71875 103.2578125 C-15.84403076 102.59362305 -15.96931152 101.92943359 -16.09838867 101.24511719 C-20.72062894 77.03835792 -20.72062894 77.03835792 -34.71875 57.2578125 C-43.36236703 47.41200226 -47.53082861 40.29615404 -47.08984375 26.90625 C-46.07015789 16.88112795 -41.24228527 9.84674711 -33.71875 3.2578125 C-23.2224239 -3.35547967 -11.55512889 -5.36488127 0 0 Z " fill="#F7F6F2" transform="translate(687.71875,22.7421875)"/>
<path d="M0 0 C6.12566227 3.63145801 9.48364789 9.60625957 12.3125 15.9375 C14.15521358 24.14595141 12.93504503 29.67076771 8.91015625 37.12109375 C4.62508308 43.57937376 -0.45282847 48.0183934 -8 50 C-16.66997909 51.0452386 -23.85352328 50.21228091 -31 45 C-37.04637445 39.43367796 -41.16835525 33.31644754 -42 25 C-42.144375 23.80375 -42.28875 22.6075 -42.4375 21.375 C-42.30813846 15.24796712 -39.43410233 9.9377921 -36 5 C-24.90749971 -5.20793089 -13.44495108 -6.46799697 0 0 Z " fill="#FCFCFA" transform="translate(148,453)"/>
<path d="M0 0 C6.47291646 3.00036401 11.19925916 6.99125402 14.3203125 13.4609375 C16.28868693 19.46272203 16.31180434 26.08728695 14.1328125 32.0234375 C10.91008999 37.86462206 7.17209063 41.26555438 1.1953125 44.12890625 C0.3909375 44.56203125 -0.4134375 44.99515625 -1.2421875 45.44140625 C-7.71476866 47.17795241 -13.18393273 46.62254584 -19.0234375 43.33203125 C-24.04226486 39.94212154 -28.87690002 34.91226868 -30.8046875 29.12890625 C-31.48708559 21.54453893 -31.76320888 14.58944492 -27.5078125 8.03515625 C-20.20890217 -0.13426633 -10.57645673 -3.28488837 0 0 Z " fill="#23345A" transform="translate(680.8046875,30.87109375)"/>
<path d="M0 0 C7.59244443 5.32777649 13.41946672 11.69523259 15.85546875 20.74609375 C17.51522046 31.91125203 16.58563572 42.41597265 9.85546875 51.74609375 C5.00420871 57.94304131 -0.75361038 61.28245346 -8.14453125 63.74609375 C-21.45078623 64.43214766 -31.8349699 63.96505687 -42.14453125 54.74609375 C-49.28677197 46.74624813 -52.77860063 37.91576998 -52.359375 27.18359375 C-51.46786763 17.06903744 -47.80430068 9.96837485 -40.39453125 2.93359375 C-29.04775648 -6.27228012 -12.70595426 -7.42916451 0 0 Z M-39.14453125 11.74609375 C-44.52306322 19.91306204 -46.32087659 26.22387401 -44.45703125 35.74609375 C-41.88584947 44.85236256 -35.96101415 50.85620401 -28.01953125 55.62109375 C-21.27144422 58.15922558 -12.91358866 57.82301382 -6.26953125 55.18359375 C2.24271194 50.69361932 6.95572131 43.83025831 9.85546875 34.74609375 C11.4313582 26.28605564 7.79699231 19.41074448 3.23046875 12.49609375 C-1.47024727 6.48829088 -8.91497028 3.38832054 -16.37109375 2.47265625 C-25.43188086 2.08897471 -32.48692202 5.71330869 -39.14453125 11.74609375 Z " fill="#25385E" transform="translate(151.14453125,446.25390625)"/>
<path d="M0 0 C4.421436 1.7797477 7.88625223 4.29984498 10.5 8.3125 C12.46301038 13.13823386 13.15329849 16.96565318 11.26953125 21.921875 C8.84263196 26.55774792 5.65378928 29.67310536 1 32 C-3.9252115 32.54035594 -7.86941718 32.54435469 -12.375 30.375 C-17.0202609 26.1721449 -19.72046333 21.96308872 -20.3125 15.6875 C-19.82984404 9.99215969 -17.09243556 6.7950613 -12.875 3.1875 C-8.60696401 -0.05991869 -5.3153116 -0.8112844 0 0 Z " fill="#F9F8F6" transform="translate(677,37)"/>
<path d="M0 0 C0.66 0.33 1.32 0.66 2 1 C1.01 2.485 1.01 2.485 0 4 C55.44 4 110.88 4 168 4 C167.67 4.66 167.34 5.32 167 6 C110.24 6 53.48 6 -5 6 C-3.86695008 2.60085025 -2.87481525 1.94745549 0 0 Z " fill="#EDAA72" transform="translate(409,966)"/>
<path d="M0 0 C5.13411529 1.49677969 9.5048602 3.75206349 14.125 6.375 C14.82753906 6.76171875 15.53007813 7.1484375 16.25390625 7.546875 C23.47908893 11.61701572 23.47908893 11.61701572 26 15 C26.51171875 17.546875 26.51171875 17.546875 26 20 C24.20703125 21.765625 24.20703125 21.765625 21.8125 23.25 C21.03519531 23.75015625 20.25789062 24.2503125 19.45703125 24.765625 C16.88401796 26.05826761 14.86910307 26.75582101 12 27 C11.01 26.34 10.02 25.68 9 25 C10 22 10 22 12.9375 20.3125 C16 19 16 19 18 19 C14.16444291 14.74737263 10.27747269 12.25440489 5.1875 9.6875 C4.49462891 9.32849609 3.80175781 8.96949219 3.08789062 8.59960938 C1.39626671 7.72463149 -0.30127672 6.86111381 -2 6 C-1.125 1.125 -1.125 1.125 0 0 Z " fill="#F8F5EB" transform="translate(717,297)"/>
<path d="M0 0 C0.57492187 0.22429688 1.14984375 0.44859375 1.7421875 0.6796875 C2.0721875 1.9996875 2.4021875 3.3196875 2.7421875 4.6796875 C0.8687863 6.41061321 -1.00647532 8.13944913 -2.8828125 9.8671875 C-3.40488281 10.34994141 -3.92695312 10.83269531 -4.46484375 11.33007812 C-14.61064554 20.66171064 -14.61064554 20.66171064 -17.5078125 20.7421875 C-19.7203424 19.39886578 -20.19335598 17.99067863 -21.2578125 15.6796875 C-16.39208039 11.19996337 -11.4888763 6.76018098 -6.3828125 2.5546875 C-5.33480469 1.68457031 -5.33480469 1.68457031 -4.265625 0.796875 C-2.2578125 -0.3203125 -2.2578125 -0.3203125 0 0 Z " fill="#FCF7EE" transform="translate(801.2578125,726.3203125)"/>
<path d="M0 0 C4.96359223 0.28977657 9.41383216 2.92768971 13.8125 5.0625 C14.60076172 5.43955078 15.38902344 5.81660156 16.20117188 6.20507812 C18.13652473 7.13170161 20.06859549 8.06517467 22 9 C21.42655063 11.86724686 21.1385485 12.8614515 19 15 C13.59129093 14.74824327 9.3209921 12.39589008 4.625 9.9375 C3.88894531 9.56044922 3.15289062 9.18339844 2.39453125 8.79492188 C0.59260354 7.87055636 -1.20423099 6.93627386 -3 6 C-2.42655063 3.13275314 -2.1385485 2.1385485 0 0 Z " fill="#E9833B" transform="translate(365,867)"/>
<path d="M0 0 C3.88330078 1.76025391 3.88330078 1.76025391 4.93359375 3.91796875 C5 6 5 6 3.84765625 7.67578125 C3.25855469 8.21589844 2.66945313 8.75601563 2.0625 9.3125 C1.09570312 10.2096875 1.09570312 10.2096875 0.109375 11.125 C-0.58671875 11.74375 -1.2828125 12.3625 -2 13 C-3.04414062 13.9590625 -3.04414062 13.9590625 -4.109375 14.9375 C-7.27849992 17.79686083 -10.08894798 20.22224908 -14 22 C-15.5625 20.75 -15.5625 20.75 -17 19 C-16.64058945 15.35380606 -15.04302964 13.74009007 -12.40234375 11.328125 C-11.68369141 10.66425781 -10.96503906 10.00039063 -10.22460938 9.31640625 C-9.46986328 8.63449219 -8.71511719 7.95257812 -7.9375 7.25 C-7.17888672 6.55261719 -6.42027344 5.85523438 -5.63867188 5.13671875 C-3.76577219 3.41694923 -1.88616736 1.70518911 0 0 Z " fill="#FCF8F0" transform="translate(832,694)"/>
<path d="M0 0 C2.4679916 1.2339958 3.44990537 2.85400895 4.84765625 5.18359375 C6.63241655 7.99685998 8.80090235 10.50810986 10.92578125 13.0703125 C12 15 12 15 11.98046875 17.1171875 C11 19 11 19 8.4375 20.25 C7.633125 20.4975 6.82875 20.745 6 21 C4.96939453 19.64455078 4.96939453 19.64455078 3.91796875 18.26171875 C3.00792905 17.07022347 2.09776634 15.87882214 1.1875 14.6875 C0.50977539 13.79514648 0.50977539 13.79514648 -0.18164062 12.88476562 C-2.31610234 10.09594339 -4.41080206 7.38275027 -7 5 C-6 2 -6 2 -4.1875 0.75 C-2 0 -2 0 0 0 Z " fill="#EC8236" transform="translate(171,715)"/>
<path d="M0 0 C2.92553426 0.52173874 5.43826252 1.57280711 8.109375 2.84765625 C8.86347656 3.20537109 9.61757813 3.56308594 10.39453125 3.93164062 C11.17183594 4.30482422 11.94914062 4.67800781 12.75 5.0625 C13.54277344 5.43955078 14.33554687 5.81660156 15.15234375 6.20507812 C17.10311746 7.13345839 19.05176906 8.06629544 21 9 C20.125 13.875 20.125 13.875 19 15 C13.37582993 14.60594987 9.07739095 12.92279925 4.0625 10.4375 C3.37865234 10.10814453 2.69480469 9.77878906 1.99023438 9.43945312 C0.32268129 8.63482961 -1.33926839 7.8186103 -3 7 C-1.125 1.125 -1.125 1.125 0 0 Z " fill="#F08637" transform="translate(399,883)"/>
<path d="M0 0 C5.19228855 0.57229633 9.3103703 3.0982161 13.8125 5.5625 C14.60076172 5.98724609 15.38902344 6.41199219 16.20117188 6.84960938 C18.1373378 7.89396554 20.07005367 8.9442077 22 10 C21.3125 12.4375 21.3125 12.4375 20 15 C17.890625 16.078125 17.890625 16.078125 15 16 C12.07734287 14.86660142 9.44345213 13.34378732 6.75 11.75 C5.65171875 11.13705078 5.65171875 11.13705078 4.53125 10.51171875 C-0.86546266 7.40361201 -0.86546266 7.40361201 -2 4 C-1.0625 1.8125 -1.0625 1.8125 0 0 Z " fill="#EC8338" transform="translate(332,849)"/>
<path d="M0 0 C3.24404156 0.35056039 5.18843829 1.68880722 7.671875 3.72265625 C8.33574219 4.26083984 8.99960938 4.79902344 9.68359375 5.35351562 C10.36550781 5.91748047 11.04742187 6.48144531 11.75 7.0625 C12.44738281 7.63033203 13.14476562 8.19816406 13.86328125 8.78320312 C15.58052188 10.18287186 17.29243295 11.58855936 19 13 C17.68 14.65 16.36 16.3 15 18 C11.42559208 17.3921075 9.35977816 15.95150156 6.5625 13.6875 C5.78132812 13.06101562 5.00015625 12.43453125 4.1953125 11.7890625 C3.47085938 11.19867187 2.74640625 10.60828125 2 10 C0.989375 9.195625 -0.02125 8.39125 -1.0625 7.5625 C-1.701875 7.046875 -2.34125 6.53125 -3 6 C-2.42655063 3.13275314 -2.1385485 2.1385485 0 0 Z " fill="#E88136" transform="translate(242,791)"/>
<path d="M0 0 C4.42940234 0.76635504 7.93307234 3.05769869 11.75 5.3125 C12.44738281 5.70373047 13.14476562 6.09496094 13.86328125 6.49804688 C15.859375 7.67578125 15.859375 7.67578125 19 10 C19 14 19 14 17 17 C11.89115395 15.56952311 7.98255739 13.28610306 3.625 10.375 C2.98433594 9.95476563 2.34367187 9.53453125 1.68359375 9.1015625 C0.11844302 8.07370232 -1.44134314 7.03768114 -3 6 C-1.125 1.125 -1.125 1.125 0 0 Z " fill="#ED802D" transform="translate(301,831)"/>
<path d="M0 0 C2.89852365 1.31307372 4.98277217 2.72684638 7.234375 4.96875 C8.09482422 5.82533203 8.09482422 5.82533203 8.97265625 6.69921875 C9.85244141 7.59060547 9.85244141 7.59060547 10.75 8.5 C11.35199219 9.09425781 11.95398438 9.68851563 12.57421875 10.30078125 C13.14269531 10.87183594 13.71117187 11.44289063 14.296875 12.03125 C14.81604492 12.55267578 15.33521484 13.07410156 15.87011719 13.61132812 C17 15 17 15 17 17 C14.75 18.75 14.75 18.75 12 20 C9.02730241 18.89639883 7.11671293 17.33902443 4.984375 15.03125 C4.45585937 14.46019531 3.92734375 13.88914062 3.3828125 13.30078125 C2.84398437 12.70652344 2.30515625 12.11226562 1.75 11.5 C1.19570312 10.90574219 0.64140625 10.31148437 0.0703125 9.69921875 C-4 5.25796644 -4 5.25796644 -4 3 C-2 1.375 -2 1.375 0 0 Z " fill="#EB8236" transform="translate(190,743)"/>
<path d="M0 0 C3.3579363 1.43911556 4.82560249 3.44670054 7.06640625 6.26953125 C9.31556699 8.94710356 11.88028263 10.96843636 14.625 13.125 C12.975 14.775 11.325 16.425 9.625 18.125 C6.01813465 16.56482103 3.41299396 14.36734682 0.5 11.75 C-0.80324219 10.59371094 -0.80324219 10.59371094 -2.1328125 9.4140625 C-4.15836688 7.34616203 -5.29692633 5.77778801 -6.375 3.125 C-4.2134772 1.12359 -2.98411867 0.15705888 0 0 Z " fill="#EC8A3E" transform="translate(218.375,768.875)"/>
<path d="M0 0 C2.01670288 7.43659188 2.2137731 14.31604457 2 22 C-0.31 22 -2.62 22 -5 22 C-5.19916016 20.24623047 -5.19916016 20.24623047 -5.40234375 18.45703125 C-5.58062013 16.90884161 -5.75901161 15.36066522 -5.9375 13.8125 C-6.02451172 13.04357422 -6.11152344 12.27464844 -6.20117188 11.48242188 C-6.64964421 7.61227172 -7.1529001 3.80813376 -8 0 C-4.90645403 -0.99435406 -3.09720845 -0.87840996 0 0 Z " fill="#FBF5EA" transform="translate(866,624)"/>
<path d="M0 0 C1.15341698 2.22552258 2.29781159 4.45495969 3.4375 6.6875 C3.76298828 7.31333984 4.08847656 7.93917969 4.42382812 8.58398438 C6.17752313 12.03713639 7.47760497 15.15193519 8 19 C4.04 19.495 4.04 19.495 0 20 C-1.2052222 17.77890472 -2.38887404 15.5502135 -3.5625 13.3125 C-3.90474609 12.68666016 -4.24699219 12.06082031 -4.59960938 11.41601562 C-6.11954043 8.48362339 -7.02418128 6.43703236 -6.83984375 3.10546875 C-5.38546675 -0.54062058 -3.89798591 0 0 0 Z " fill="#EA7E36" transform="translate(157,688)"/>
<path d="M0 0 C1.0209375 0.4021875 1.0209375 0.4021875 2.0625 0.8125 C2.3925 2.1325 2.7225 3.4525 3.0625 4.8125 C0.8486108 6.85263335 -1.38092219 8.8685568 -3.625 10.875 C-4.25083984 11.45572266 -4.87667969 12.03644531 -5.52148438 12.63476562 C-10.27567272 16.84135112 -10.27567272 16.84135112 -13.89453125 16.68359375 C-14.90580078 16.25240234 -14.90580078 16.25240234 -15.9375 15.8125 C-16.625 14.02734375 -16.625 14.02734375 -16.9375 11.8125 C-15.058713 9.04994148 -12.46187898 6.9838528 -9.9375 4.8125 C-9.32648437 4.28527344 -8.71546875 3.75804687 -8.0859375 3.21484375 C-5.27107741 0.98899624 -3.65328312 -0.23318828 0 0 Z " fill="#FCF7F0" transform="translate(581.9375,900.1875)"/>
<path d="M0 0 C2.97 0.495 2.97 0.495 6 1 C5.44681258 5.5446474 3.49755733 8.84958368 1.0625 12.625 C0.70220703 13.19734375 0.34191406 13.7696875 -0.02929688 14.359375 C-1.65224835 16.92979538 -3.31375054 19.47062581 -5 22 C-6.65 21.67 -8.3 21.34 -10 21 C-10.69921875 19.30078125 -10.69921875 19.30078125 -11 17 C-9.70703125 14.66796875 -9.70703125 14.66796875 -7.8125 12.1875 C-4.88484438 8.23516492 -2.34673619 4.31799459 0 0 Z " fill="#FCF7ED" transform="translate(856,662)"/>
<path d="M0 0 C4.36663756 0.38730177 6.74127706 2.04566976 10.0625 4.8125 C10.89910156 5.49957031 11.73570312 6.18664062 12.59765625 6.89453125 C17.11437085 10.85308274 17.11437085 10.85308274 19 13 C19 13.99 19 14.98 19 16 C16 18 16 18 14.01953125 17.828125 C11.60987172 16.84002477 10.43667859 15.67033926 8.6875 13.75 C5.39105616 10.28944749 1.95992757 7.66688999 -2 5 C-1.125 1.125 -1.125 1.125 0 0 Z " fill="#FCF8EF" transform="translate(835,594)"/>
<path d="M0 0 C1.32 0.66 2.64 1.32 4 2 C3.89750106 4.66009162 3.48035164 6.45389131 1.70166016 8.47607422 C-0.03963385 10.04638047 -1.83675273 11.4980299 -3.6875 12.9375 C-4.30044922 13.45634766 -4.91339844 13.97519531 -5.54492188 14.50976562 C-7.3333512 15.92268169 -8.91151354 17.084117 -11 18 C-14.45703125 17.31640625 -14.45703125 17.31640625 -17 16 C-17 15.01 -17 14.02 -17 13 C-14.77044699 11.01784785 -12.56673924 9.22134341 -10.1875 7.4375 C-9.54490234 6.94314453 -8.90230469 6.44878906 -8.24023438 5.93945312 C-5.53809595 3.87014712 -2.83361119 1.88907413 0 0 Z " fill="#FCF5EC" transform="translate(689,814)"/>
<path d="M0 0 C6.11641246 1.03967951 12.06617556 2.18352313 18 4 C19.33130115 4.34135927 20.66358148 4.67925956 22 5 C22 6.98 22 8.96 22 11 C16.3333235 11.29785422 11.91174271 10.31081409 6.5625 8.5 C5.83095703 8.26152344 5.09941406 8.02304687 4.34570312 7.77734375 C2.5607884 7.19403828 0.77994443 6.59830065 -1 6 C-0.67 4.02 -0.34 2.04 0 0 Z " fill="#FAF4E9" transform="translate(656,526)"/>
<path d="M0 0 C0.99128906 0.28617188 1.98257813 0.57234375 3.00390625 0.8671875 C6.96953047 2.00022299 10.95086514 3.06867869 14.9375 4.125 C15.62134766 4.30675781 16.30519531 4.48851562 17.00976562 4.67578125 C18.6730235 5.11776586 20.3364897 5.55896638 22 6 C21.49396008 8.16874252 21.00016187 9.99967627 20 12 C12.36945905 11.38955672 5.29810526 9.20378179 -2 7 C-2.125 4.625 -2.125 4.625 -2 2 C-1.34 1.34 -0.68 0.68 0 0 Z " fill="#FBF8F0" transform="translate(729,547)"/>
<path d="M0 0 C4.12842841 1.48592785 7.63213592 3.49332361 11.3125 5.875 C12.38113281 6.55304687 13.44976562 7.23109375 14.55078125 7.9296875 C15.76314453 8.95449219 15.76314453 8.95449219 17 10 C17 11.32 17 12.64 17 14 C16.34 14.66 15.68 15.32 15 16 C10.79812619 15.70800538 8.21463531 14.01871496 4.875 11.5625 C4.02679688 10.94503906 3.17859375 10.32757812 2.3046875 9.69140625 C1.54414063 9.13324219 0.78359375 8.57507813 0 8 C-0.99 7.34 -1.98 6.68 -3 6 C-2.42655063 3.13275314 -2.1385485 2.1385485 0 0 Z " fill="#EB8333" transform="translate(272,813)"/>
<path d="M0 0 C7.36758446 0.43338732 14.5009974 2.45942736 21 6 C22.00390625 8.04296875 22.00390625 8.04296875 22 10 C21.34 10.66 20.68 11.32 20 12 C12.91245062 11.8424989 6.47703022 8.63951156 0 6 C0 4.02 0 2.04 0 0 Z " fill="#FAF6EC" transform="translate(764,560)"/>
<path d="M0 0 C7.30696249 0.45965708 13.99757448 1.88329723 21 4 C20.67 6.31 20.34 8.62 20 11 C4.25 9.25 4.25 9.25 0 5 C-0.125 2.375 -0.125 2.375 0 0 Z " fill="#FBF7ED" transform="translate(517,488)"/>
<path d="M0 0 C18.54545455 1.54545455 18.54545455 1.54545455 22 5 C22.04063832 6.66617115 22.042721 8.33388095 22 10 C18.8151065 11.0354051 16.86968126 10.94040666 13.671875 10.00390625 C12.87265625 9.77509766 12.0734375 9.54628906 11.25 9.31054688 C10.425 9.06369141 9.6 8.81683594 8.75 8.5625 C7.90953125 8.31951172 7.0690625 8.07652344 6.203125 7.82617188 C4.13284266 7.22626051 2.06606103 6.61429181 0 6 C-1.125 2.25 -1.125 2.25 0 0 Z " fill="#FBF8F0" transform="translate(692,537)"/>
<path d="M0 0 C7.63054095 0.61044328 14.70189474 2.79621821 22 5 C21.67 6.98 21.34 8.96 21 11 C13.64987044 10.42351925 6.98575424 8.28953836 0 6 C0 4.02 0 2.04 0 0 Z " fill="#FAF7ED" transform="translate(621,516)"/>
<path d="M0 0 C1.67542976 0.28604898 3.34385343 0.61781233 5 1 C4.9068014 3.67823346 4.49702265 5.45464304 2.66943359 7.45996094 C0.89146835 9.00713509 -0.93592496 10.44918017 -2.8125 11.875 C-3.44220703 12.38546875 -4.07191406 12.8959375 -4.72070312 13.421875 C-5.33494141 13.89882813 -5.94917969 14.37578125 -6.58203125 14.8671875 C-7.14124268 15.30144043 -7.7004541 15.73569336 -8.27661133 16.18310547 C-10.53661664 17.25435887 -11.69561991 16.81694164 -14 16 C-14.33 14.68 -14.66 13.36 -15 12 C-14.00097656 11.21753906 -13.00195312 10.43507813 -11.97265625 9.62890625 C-10.66924354 8.60680564 -9.36585961 7.58466832 -8.0625 6.5625 C-7.40314453 6.04623047 -6.74378906 5.52996094 -6.06445312 4.99804688 C-5.43603516 4.50498047 -4.80761719 4.01191406 -4.16015625 3.50390625 C-3.57886963 3.04830322 -2.99758301 2.5927002 -2.39868164 2.12329102 C-1.02763998 1.06382373 -1.02763998 1.06382373 0 0 Z " fill="#FBF5EC" transform="translate(615,871)"/>
<path d="M0 0 C2.8992226 0.46761655 3.86675182 0.86675182 6 3 C6 7 6 7 3.6875 9.4375 C2.800625 10.283125 1.91375 11.12875 1 12 C0.3503125 13.3921875 0.3503125 13.3921875 -0.3125 14.8125 C-2 17 -2 17 -3.9609375 17.3125 C-5.97665166 17.3125 -7.99102332 17.16467022 -10 17 C-9.47154423 12.47509746 -7.72491323 9.8507782 -5 6.25 C-4.278125 5.28578125 -3.55625 4.3215625 -2.8125 3.328125 C-1 1 -1 1 0 0 Z " fill="#FAF4E8" transform="translate(430,425)"/>
<path d="M0 0 C5.39026228 0.52895097 9.24229489 2.46333696 13.875 5.0625 C14.56335938 5.43955078 15.25171875 5.81660156 15.9609375 6.20507812 C17.6449213 7.12893035 19.32307467 8.06339667 21 9 C20.67 10.65 20.34 12.3 20 14 C15.09215557 13.43458013 11.06382206 11.88256375 6.6875 9.6875 C5.73907227 9.24374023 5.73907227 9.24374023 4.77148438 8.79101562 C0.25628798 6.55035546 0.25628798 6.55035546 -0.98046875 3.89453125 C-1 2 -1 2 0 0 Z " fill="#FCF8EF" transform="translate(800,575)"/>
<path d="M0 0 C17.42857143 1.42857143 17.42857143 1.42857143 21 5 C21.04080783 6.99958364 21.04254356 9.00045254 21 11 C13.69354394 9.94915607 6.93607661 8.54322809 0 6 C0 4.02 0 2.04 0 0 Z " fill="#FAF5EA" transform="translate(551,497)"/>
<path d="M0 0 C1.11375 0.3403125 1.11375 0.3403125 2.25 0.6875 C2.25 4.6875 2.25 4.6875 0.87304688 6.24316406 C0.24462891 6.72495117 -0.38378906 7.20673828 -1.03125 7.703125 C-1.70800781 8.23164062 -2.38476562 8.76015625 -3.08203125 9.3046875 C-4.15517578 10.11292969 -4.15517578 10.11292969 -5.25 10.9375 C-5.96542969 11.49179687 -6.68085937 12.04609375 -7.41796875 12.6171875 C-9.18707223 13.98529419 -10.96425836 15.34122811 -12.75 16.6875 C-14.07 16.0275 -15.39 15.3675 -16.75 14.6875 C-16.75 13.3675 -16.75 12.0475 -16.75 10.6875 C-14.703125 8.65234375 -14.703125 8.65234375 -12 6.625 C-11.11828125 5.95339844 -10.2365625 5.28179688 -9.328125 4.58984375 C-8.47734375 3.96207031 -7.6265625 3.33429687 -6.75 2.6875 C-6.0384375 2.10484375 -5.326875 1.5221875 -4.59375 0.921875 C-2.75 -0.3125 -2.75 -0.3125 0 0 Z " fill="#FCF7EF" transform="translate(653.75,843.3125)"/>
<path d="M0 0 C0.58426758 0.21712646 1.16853516 0.43425293 1.77050781 0.65795898 C2.10050781 1.97795898 2.43050781 3.29795898 2.77050781 4.65795898 C0.37072199 6.69956116 -2.05171049 8.71226617 -4.47949219 10.72045898 C-5.16140625 11.30118164 -5.84332031 11.8819043 -6.54589844 12.48022461 C-7.20976563 13.02485352 -7.87363281 13.56948242 -8.55761719 14.13061523 C-9.16508789 14.63858643 -9.77255859 15.14655762 -10.3984375 15.66992188 C-12.22949219 16.65795898 -12.22949219 16.65795898 -14.45898438 16.31591797 C-15.04325195 16.0987915 -15.62751953 15.88166504 -16.22949219 15.65795898 C-16.55949219 14.33795898 -16.88949219 13.01795898 -17.22949219 11.65795898 C-14.82970637 9.61635681 -12.40727389 7.6036518 -9.97949219 5.59545898 C-9.29757812 5.01473633 -8.61566406 4.43401367 -7.91308594 3.83569336 C-7.24921875 3.29106445 -6.58535156 2.74643555 -5.90136719 2.18530273 C-5.29389648 1.67733154 -4.68642578 1.16936035 -4.06054688 0.64599609 C-2.22949219 -0.34204102 -2.22949219 -0.34204102 0 0 Z " fill="#FCF8EF" transform="translate(763.2294921875,757.342041015625)"/>
<path d="M0 0 C0.69738281 0.26167969 1.39476562 0.52335938 2.11328125 0.79296875 C2.44328125 2.11296875 2.77328125 3.43296875 3.11328125 4.79296875 C1.0331454 6.4222081 -1.05059849 8.04642345 -3.13671875 9.66796875 C-4.01650391 10.35826172 -4.01650391 10.35826172 -4.9140625 11.0625 C-7.79600952 13.29681847 -10.51243042 15.33968615 -13.88671875 16.79296875 C-14.87671875 15.80296875 -15.86671875 14.81296875 -16.88671875 13.79296875 C-15.31698781 9.68085149 -12.3570581 7.23932407 -9.07421875 4.48046875 C-8.29208008 3.77954102 -8.29208008 3.77954102 -7.49414062 3.06445312 C-4.84951526 0.82923293 -3.52879803 -0.25308024 0 0 Z " fill="#FCF6EC" transform="translate(726.88671875,786.20703125)"/>
<path d="M0 0 C0.33 1.65 0.66 3.3 1 5 C-1.57426284 6.39489126 -4.15703057 7.76570979 -6.75 9.125 C-7.47960937 9.52332031 -8.20921875 9.92164063 -8.9609375 10.33203125 C-9.66992188 10.69941406 -10.37890625 11.06679688 -11.109375 11.4453125 C-11.75874023 11.79094238 -12.40810547 12.13657227 -13.07714844 12.49267578 C-15 13 -15 13 -17.24316406 12.09716797 C-17.82291992 11.73510254 -18.40267578 11.37303711 -19 11 C-19 9.68 -19 8.36 -19 7 C-16.59087645 5.63063499 -14.17425815 4.27958007 -11.75 2.9375 C-11.06808594 2.54755859 -10.38617188 2.15761719 -9.68359375 1.75585938 C-9.01972656 1.39169922 -8.35585938 1.02753906 -7.671875 0.65234375 C-7.0644043 0.31195068 -6.45693359 -0.02844238 -5.83105469 -0.37915039 C-3.53906176 -1.15628879 -2.25542675 -0.76849965 0 0 Z " fill="#FAF8F1" transform="translate(463,409)"/>
<path d="M0 0 C0.515625 0.37125 1.03125 0.7425 1.5625 1.125 C1.515625 2.91796875 1.515625 2.91796875 0.5625 5.125 C-1.88518318 6.45331587 -4.10414633 7.46691797 -6.6875 8.4375 C-7.35652344 8.71400391 -8.02554687 8.99050781 -8.71484375 9.27539062 C-12.66174025 10.81460272 -15.36943688 11.4731372 -19.4375 10.125 C-19.7675 8.805 -20.0975 7.485 -20.4375 6.125 C-4.27241091 -1.53368597 -4.27241091 -1.53368597 0 0 Z " fill="#F9F5EA" transform="translate(495.4375,395.875)"/>
<path d="M0 0 C4.23260762 0.95607137 8.19480093 2.52988296 12.24609375 4.0625 C14.82688236 4.94106634 17.31776062 5.53267699 20 6 C19.67 7.65 19.34 9.3 19 11 C14.69158832 12.24800855 12.06451596 11.67325566 7.875 10.1875 C6.84117187 9.83042969 5.80734375 9.47335937 4.7421875 9.10546875 C2 8 2 8 -1 6 C-0.67 4.02 -0.34 2.04 0 0 Z " fill="#FAF6EC" transform="translate(451,466)"/>
<path d="M0 0 C7.4596963 0.74596963 14.68951218 2.36746129 22 4 C21.67 5.98 21.34 7.96 21 10 C13.60860415 9.59248958 7.00177279 8.41492814 0 6 C0 4.02 0 2.04 0 0 Z " fill="#FBF9F1" transform="translate(586,507)"/>
<path d="M0 0 C0.33 1.98 0.66 3.96 1 6 C-1.39127957 6.86928276 -3.78661726 7.72051601 -6.1875 8.5625 C-6.86103516 8.80935547 -7.53457031 9.05621094 -8.22851562 9.31054688 C-12.2006008 10.68624467 -14.95485799 11.31172566 -19 10 C-18.92578125 7.67578125 -18.92578125 7.67578125 -18 5 C-14.98046875 3.41796875 -14.98046875 3.41796875 -11.1875 2.1875 C-9.94355469 1.76855469 -8.69960938 1.34960938 -7.41796875 0.91796875 C-4 0 -4 0 0 0 Z " fill="#FAF7EE" transform="translate(528,384)"/>
<path d="M0 0 C6.86036401 0.65965039 13.34443923 2.2362764 20 4 C21.125 7.75 21.125 7.75 20 10 C12.87615459 10.66268329 6.69120815 8.25388064 0 6 C0 4.02 0 2.04 0 0 Z " fill="#FBF7EE" transform="translate(483,478)"/>
<path d="M0 0 C2.84660623 1.33434667 4.09896395 3.46039242 6 5.9375 C7.63356951 7.31118345 9.2925002 8.65687515 11 9.9375 C10.34 11.9175 9.68 13.8975 9 15.9375 C4.76175733 14.52475244 1.9930653 12.48235447 -1.3125 9.5 C-2.19550781 8.71753906 -3.07851563 7.93507813 -3.98828125 7.12890625 C-6 4.9375 -6 4.9375 -6 1.9375 C-3.8865327 0.65432342 -2.49911402 -0.07809731 0 0 Z " fill="#FBF5EB" transform="translate(428,451.0625)"/>
<path d="M0 0 C0.53109375 0.26167969 1.0621875 0.52335938 1.609375 0.79296875 C1.939375 2.44296875 2.269375 4.09296875 2.609375 5.79296875 C0.72679337 7.33326281 -1.16876316 8.84902031 -3.078125 10.35546875 C-3.60857422 10.79310547 -4.13902344 11.23074219 -4.68554688 11.68164062 C-7.39710618 13.79432794 -8.78849111 14.83928674 -12.28515625 14.5703125 C-13.32736328 14.18552734 -13.32736328 14.18552734 -14.390625 13.79296875 C-14.390625 9.79296875 -14.390625 9.79296875 -11.90625 7.1796875 C-10.82810622 6.26751413 -9.73903343 5.36813603 -8.640625 4.48046875 C-8.10179687 4.01318359 -7.56296875 3.54589844 -7.0078125 3.06445312 C-2.98315308 -0.25834496 -2.98315308 -0.25834496 0 0 Z " fill="#FBF9F2" transform="translate(545.390625,929.20703125)"/>
<path d="M0 0 C2 3 2 3 2 6 C-0.39531933 6.64779076 -2.79121748 7.29329009 -5.1875 7.9375 C-5.86103516 8.11990234 -6.53457031 8.30230469 -7.22851562 8.49023438 C-10.80148458 9.4488358 -14.36156738 10.32883282 -18 11 C-18.33 9.02 -18.66 7.04 -19 5 C-16.77417611 4.15665671 -14.54503974 3.32521449 -12.3125 2.5 C-11.68666016 2.26152344 -11.06082031 2.02304687 -10.41601562 1.77734375 C-6.86644342 0.47645341 -3.78347276 -0.59990199 0 0 Z " fill="#F9F4E7" transform="translate(560,374)"/>
<path d="M0 0 C0 1.65 0 3.3 0 5 C-6.25461856 7.26616615 -12.45150687 8.83795007 -19 10 C-21 7 -21 7 -21 4 C-13.90451484 1.49292858 -7.59985213 -0.18094886 0 0 Z " fill="#F8F7F0" transform="translate(593,365)"/>
<path d="M0 0 C0.33 1.65 0.66 3.3 1 5 C-5.73187777 7.70533406 -11.74601342 9.52432875 -19 10 C-19.33 8.35 -19.66 6.7 -20 5 C-17.60712296 4.1572257 -15.21128981 3.32562998 -12.8125 2.5 C-11.80219727 2.14228516 -11.80219727 2.14228516 -10.77148438 1.77734375 C-7.06795533 0.51272408 -3.92059464 -0.30451221 0 0 Z " fill="#F7F4EA" transform="translate(624,355)"/>
<path d="M0 0 C0.67260351 1.76858691 1.33788395 3.53996016 2 5.3125 C2.37125 6.29863281 2.7425 7.28476562 3.125 8.30078125 C4 11 4 11 4 14 C1.35261084 15.4606285 0.10551666 16 -3 16 C-6.76275654 11.65835783 -6.6911976 6.48390467 -7 1 C-4.53721199 -0.231394 -2.7204945 -0.07159196 0 0 Z " fill="#ED7228" transform="translate(147,662)"/>
<path d="M0 0 C0.33 1.65 0.66 3.3 1 5 C-0.8708878 5.67812114 -2.74694293 6.3419946 -4.625 7 C-5.66914062 7.37125 -6.71328125 7.7425 -7.7890625 8.125 C-11.01774506 9.00483564 -13.67244294 9.15988262 -17 9 C-17.33 7.35 -17.66 5.7 -18 4 C-16.1291122 3.32187886 -14.25305707 2.6580054 -12.375 2 C-11.33085938 1.62875 -10.28671875 1.2575 -9.2109375 0.875 C-5.98225494 -0.00483564 -3.32755706 -0.15988262 0 0 Z " fill="#F7F4E9" transform="translate(655,346)"/>
<path d="M0 0 C3.68094741 0.14232134 7.33833718 0.60611595 11 1 C11.81597656 1.07347656 12.63195312 1.14695313 13.47265625 1.22265625 C15.32403492 1.40745811 17.16473605 1.69412268 19 2 C19.33 2.66 19.66 3.32 20 4 C16.89743488 4.8393758 13.79270556 5.6704505 10.6875 6.5 C9.80642578 6.73847656 8.92535156 6.97695312 8.01757812 7.22265625 C7.17001953 7.44824219 6.32246094 7.67382812 5.44921875 7.90625 C4.66893311 8.11572266 3.88864746 8.32519531 3.0847168 8.54101562 C1 9 1 9 -2 9 C-1.125 1.125 -1.125 1.125 0 0 Z " fill="#EBE8DF" transform="translate(678,139)"/>
<path d="M0 0 C0 1.65 0 3.3 0 5 C-2.26949102 5.67155349 -4.5403961 6.3373963 -6.8125 7 C-8.70935547 7.556875 -8.70935547 7.556875 -10.64453125 8.125 C-14 9 -14 9 -17 9 C-17.66 7.35 -18.32 5.7 -19 4 C-16.58732675 3.132758 -14.17095531 2.28103064 -11.75 1.4375 C-11.06808594 1.19064453 -10.38617187 0.94378906 -9.68359375 0.68945312 C-3.41657839 -1.47053761 -3.41657839 -1.47053761 0 0 Z " fill="#F7F2E5" transform="translate(686,337)"/>
<path d="M0 0 C0.51046875 0.38929688 1.0209375 0.77859375 1.546875 1.1796875 C1.546875 2.1696875 1.546875 3.1596875 1.546875 4.1796875 C-1.9834444 6.83233937 -5.50181108 7.88323044 -9.765625 8.8671875 C-10.83425781 9.11855469 -11.90289063 9.36992187 -13.00390625 9.62890625 C-13.81214844 9.81066406 -14.62039063 9.99242187 -15.453125 10.1796875 C-15.783125 8.5296875 -16.113125 6.8796875 -16.453125 5.1796875 C-14.21061622 4.11839324 -11.96163411 3.08087517 -9.703125 2.0546875 C-9.06890625 1.75175781 -8.4346875 1.44882812 -7.78125 1.13671875 C-3.00217062 -1.00391056 -3.00217062 -1.00391056 0 0 Z " fill="#F8F5EC" transform="translate(715.453125,325.8203125)"/>
<path d="M0 0 C0 2.31 0 4.62 0 7 C-6.5508985 6.54240047 -12.6753842 5.7899856 -19 4 C-18.67 3.34 -18.34 2.68 -18 2 C-11.91259093 0.00775703 -6.37028091 -0.23496938 0 0 Z " fill="#E9E6DD" transform="translate(668,140)"/>
<path d="M0 0 C3.58588324 0.38766305 6.69987921 1.58566252 10 3 C10 4.65 10 6.3 10 8 C8.20793453 7.85915204 6.41635083 7.71216299 4.625 7.5625 C3.62726563 7.48128906 2.62953125 7.40007813 1.6015625 7.31640625 C-1 7 -1 7 -3 6 C-2.42655063 3.13275314 -2.1385485 2.1385485 0 0 Z " fill="#ED7A29" transform="translate(365,867)"/>
<path d="M0 0 C0 2.31 0 4.62 0 7 C-2.64738916 8.4606285 -3.89448334 9 -7 9 C-7.12375 8.030625 -7.2475 7.06125 -7.375 6.0625 C-7.58125 5.051875 -7.7875 4.04125 -8 3 C-8.66 2.67 -9.32 2.34 -10 2 C-3.375 0 -3.375 0 0 0 Z " fill="#F98F49" transform="translate(146,651)"/>
<path d="M0 0 C0.66 0.33 1.32 0.66 2 1 C1.01 2.485 1.01 2.485 0 4 C14.19 4 28.38 4 43 4 C43 4.33 43 4.66 43 5 C27.49 5 11.98 5 -4 5 C-4 4.34 -4 3.68 -4 3 C-2 1.375 -2 1.375 0 0 Z " fill="#EC8B3D" transform="translate(409,966)"/>
<path d="M0 0 C11.58040773 2.68211078 22.772617 6.10160313 34 10 C34 10.33 34 10.66 34 11 C28.46413339 11.33893061 24.99709866 10.3134716 20 8 C17.22111387 7.30859478 17.22111387 7.30859478 15 7 C15 6.34 15 5.68 15 5 C14.175 4.87625 13.35 4.7525 12.5 4.625 C8.57749933 3.92455345 4.83077449 3.10378248 1 2 C0.67 1.34 0.34 0.68 0 0 Z " fill="#EC9B57" transform="translate(747,532)"/>
<path d="M0 0 C0.66 0.33 1.32 0.66 2 1 C0.58474822 2.58459815 -0.8322642 4.16762391 -2.25 5.75 C-3.03890625 6.63171875 -3.8278125 7.5134375 -4.640625 8.421875 C-8.91867853 13.09656925 -8.91867853 13.09656925 -11 15 C-11.66 15 -12.32 15 -13 15 C-13.433125 15.9590625 -13.433125 15.9590625 -13.875 16.9375 C-15 19 -15 19 -17 20 C-13.19271154 11.81248162 -6.94099365 5.60688059 0 0 Z " fill="#D4844A" transform="translate(99,427)"/>
<path d="M0 0 C-2.64 3.3 -5.28 6.6 -8 10 C-9 7 -9 7 -9 5 C-12.3 5.33 -15.6 5.66 -19 6 C-16.28871865 4.1924791 -13.9530864 3.10554009 -10.9375 1.9375 C-3.62780011 -0.90695003 -3.62780011 -0.90695003 0 0 Z " fill="#E59559" transform="translate(606,199)"/>
<path d="M0 0 C0.33 1.98 0.66 3.96 1 6 C0.34 5.01 -0.32 4.02 -1 3 C-1.99 2.67 -2.98 2.34 -4 2 C-3.34 5.96 -2.68 9.92 -2 14 C-1.01 14.33 -0.02 14.66 1 15 C-0.32 15.33 -1.64 15.66 -3 16 C-6.56877447 11.34507678 -6.68175995 6.65150436 -7 1 C-4.53721199 -0.231394 -2.7204945 -0.07159196 0 0 Z " fill="#E48E56" transform="translate(147,662)"/>
<path d="M0 0 C0.66 0.33 1.32 0.66 2 1 C0.71520959 2.50589388 -0.57804082 4.00457375 -1.875 5.5 C-2.95394531 6.75296875 -2.95394531 6.75296875 -4.0546875 8.03125 C-4.69664062 8.6809375 -5.33859375 9.330625 -6 10 C-6.66 10 -7.32 10 -8 10 C-7.67 13.3 -7.34 16.6 -7 20 C-10 17 -10 17 -10.5 13.6875 C-9.71890208 7.92690287 -6.49699353 5.26412787 -2.1875 1.625 C-1.1046875 0.820625 -1.1046875 0.820625 0 0 Z " fill="#E99B5E" transform="translate(380,429)"/>
<path d="M0 0 C1.85625 -0.061875 1.85625 -0.061875 3.75 -0.125 C4.79414062 -0.15980469 4.79414062 -0.15980469 5.859375 -0.1953125 C8.34296613 0.03129253 9.77960418 0.8797277 12 2 C15.38510366 2.82664314 18.78561282 3.52008093 22.19921875 4.21875 C23.12347656 4.4765625 24.04773438 4.734375 25 5 C25.33 5.66 25.66 6.32 26 7 C16.83404773 6.75763107 8.60321558 3.89264444 0 1 C0 0.67 0 0.34 0 0 Z " fill="#E6A064" transform="translate(578,251)"/>
<path d="M0 0 C6.54964122 1.58342974 13.06989585 3.25862351 19.5625 5.0625 C20.71878906 5.38347656 21.87507812 5.70445312 23.06640625 6.03515625 C26 7 26 7 29 9 C23.4921875 9.25035511 23.4921875 9.25035511 21.1953125 8.08203125 C18.40007833 6.70430907 15.67430918 6.19155329 12.625 5.5625 C7.96704577 4.53554946 4.08310993 3.44986596 0 1 C0 0.67 0 0.34 0 0 Z " fill="#EB9D5A" transform="translate(495,459)"/>
<path d="M0 0 C6.49850211 0.51553879 12.66226532 1.46667709 19 3 C19 3.66 19 4.32 19 5 C19.99 5.33 20.98 5.66 22 6 C21.01 6.495 21.01 6.495 20 7 C18.39963811 6.28494469 16.80087428 5.56607034 15.2109375 4.828125 C11.69443453 3.51098961 8.05966218 3.06381314 4.35546875 2.52734375 C2 2 2 2 0 0 Z " fill="#E79E5E" transform="translate(604,258)"/>
<path d="M0 0 C7.64860472 0.32547254 16.34579364 1.34579364 22 7 C16.34227341 6.50370819 12.22031971 5.37287259 7 3 C4.68121064 2.25435009 2.35551314 1.62493206 0 1 C0 0.67 0 0.34 0 0 Z " fill="#E39F65" transform="translate(550,242)"/>
<path d="M0 0 C0.556875 0.226875 1.11375 0.45375 1.6875 0.6875 C1.3575 1.3475 1.0275 2.0075 0.6875 2.6875 C-0.3025 3.0175 -1.2925 3.3475 -2.3125 3.6875 C-2.3125 5.3375 -2.3125 6.9875 -2.3125 8.6875 C-4.25 7.9375 -4.25 7.9375 -6.3125 6.6875 C-7.0625 4.5625 -7.0625 4.5625 -7.3125 2.6875 C-2.88173077 -0.38942308 -2.88173077 -0.38942308 0 0 Z " fill="#E8975A" transform="translate(171.3125,715.3125)"/>
<path d="M0 0 C2.31 0 4.62 0 7 0 C6.67 0.66 6.34 1.32 6 2 C4.33706777 2.35149012 2.66947081 2.68100767 1 3 C-0.95804995 3.80594499 -2.8960874 4.66201697 -4.8125 5.5625 C-5.78832031 6.01753906 -6.76414062 6.47257812 -7.76953125 6.94140625 C-8.50558594 7.29074219 -9.24164063 7.64007813 -10 8 C-10 7.01 -10 6.02 -10 5 C-3.375 2 -3.375 2 0 2 C0 1.34 0 0.68 0 0 Z " fill="#E6904E" transform="translate(456,407)"/>
<path d="M0 0 C0 0.66 0 1.32 0 2 C-2.31 3.32 -4.62 4.64 -7 6 C-7 7.32 -7 8.64 -7 10 C-7.66 10 -8.32 10 -9 10 C-9.66 8.35 -10.32 6.7 -11 5 C-9.54462432 4.16151196 -8.08559627 3.32936066 -6.625 2.5 C-5.81289063 2.0359375 -5.00078125 1.571875 -4.1640625 1.09375 C-2 0 -2 0 0 0 Z " fill="#E59960" transform="translate(543,224)"/>
<path d="M0 0 C0.66 0.33 1.32 0.66 2 1 C0.61392377 2.46761013 -0.78431195 3.92374189 -2.1875 5.375 C-2.96480469 6.18710937 -3.74210938 6.99921875 -4.54296875 7.8359375 C-6.987055 9.98859852 -8.92616557 11.00632706 -12 12 C-8.39424999 7.41086363 -4.52615993 3.67832017 0 0 Z " fill="#F7E7D2" transform="translate(648,911)"/>
<path d="M0 0 C0.66 0.33 1.32 0.66 2 1 C-1.3 4.3 -4.6 7.6 -8 11 C-8.33 10.01 -8.66 9.02 -9 8 C-6.03 5.36 -3.06 2.72 0 0 Z " fill="#FAEEDB" transform="translate(824,702)"/>
<path d="M0 0 C1.485 0.99 1.485 0.99 3 2 C3.6036319 7.23147649 2.63831386 10.49288048 0 15 C-1.125 11.25 -1.125 11.25 0 9 C0.06950541 7.45976004 0.08452357 5.91665012 0.0625 4.375 C0.05347656 3.55773437 0.04445313 2.74046875 0.03515625 1.8984375 C0.02355469 1.27195312 0.01195312 0.64546875 0 0 Z " fill="#E59350" transform="translate(769,303)"/>
<path d="M0 0 C2.31 0.33 4.62 0.66 7 1 C7 1.66 7 2.32 7 3 C9.97 3.33 12.94 3.66 16 4 C11.97207512 5.00698122 10.20921332 4.86376936 6.25 4.0625 C5.26515625 3.86785156 4.2803125 3.67320312 3.265625 3.47265625 C2.51796875 3.31667969 1.7703125 3.16070312 1 3 C0.67 2.01 0.34 1.02 0 0 Z " fill="#EEAE75" transform="translate(661,506)"/>
<path d="M0 0 C6.07328688 -0.50610724 9.77228537 0.95842058 15 4 C11.21180727 5.43410153 8.93478721 4.51009497 5.25 3.0625 C3.77273438 2.49208984 3.77273438 2.49208984 2.265625 1.91015625 C1.51796875 1.60980469 0.7703125 1.30945313 0 1 C0 0.67 0 0.34 0 0 Z " fill="#E9A467" transform="translate(457,487)"/>
<path d="M0 0 C5.53047552 -0.32532209 9.41454033 -0.50652798 14 3 C14.99 3.66 15.98 4.32 17 5 C11.0870696 4.35729017 5.65755469 2.80996216 0 1 C0 0.67 0 0.34 0 0 Z " fill="#EDB378" transform="translate(484,477)"/>
<path d="M0 0 C2.475 0.99 2.475 0.99 5 2 C4.42655063 4.86724686 4.1385485 5.8614515 2 8 C-1.125 7.625 -1.125 7.625 -4 7 C-4 6.67 -4 6.34 -4 6 C-2.02 6 -0.04 6 2 6 C2 4.68 2 3.36 2 2 C1.34 2 0.68 2 0 2 C0 1.34 0 0.68 0 0 Z " fill="#E19861" transform="translate(382,874)"/>
<path d="M0 0 C1.65 0.99 3.3 1.98 5 3 C4.1875 5.4375 4.1875 5.4375 3 8 C2.01 8.33 1.02 8.66 0 9 C-2.1875 7.5625 -2.1875 7.5625 -4 6 C-1.03 6.495 -1.03 6.495 2 7 C2 5.35 2 3.7 2 2 C1.34 2 0.68 2 0 2 C0 1.34 0 0.68 0 0 Z " fill="#E49356" transform="translate(316,839)"/>
<path d="M0 0 C0 2.31 0 4.62 0 7 C-0.33 7 -0.66 7 -1 7 C-1 5.35 -1 3.7 -1 2 C-2.32 2 -3.64 2 -5 2 C-5.66 3.65 -6.32 5.3 -7 7 C-7.12375 6.360625 -7.2475 5.72125 -7.375 5.0625 C-7.684375 4.0415625 -7.684375 4.0415625 -8 3 C-8.66 2.67 -9.32 2.34 -10 2 C-3.375 0 -3.375 0 0 0 Z " fill="#D99A74" transform="translate(146,651)"/>
<path d="M0 0 C1.65 0.99 3.3 1.98 5 3 C4.02617818 5.51570636 3.53848865 6.73944098 1.0625 7.9375 C-1 8 -1 8 -2.75 6.5625 C-3.1625 6.046875 -3.575 5.53125 -4 5 C-1.03 5.495 -1.03 5.495 2 6 C2 4.68 2 3.36 2 2 C1.34 2 0.68 2 0 2 C0 1.34 0 0.68 0 0 Z " fill="#E18D4E" transform="translate(285,821)"/>
<path d="M0 0 C9.17286652 0.35010941 9.17286652 0.35010941 12.625 3.0625 C13.07875 3.701875 13.5325 4.34125 14 5 C9.16371695 4.00956295 4.52381127 3.04301154 0 1 C0 0.67 0 0.34 0 0 Z " fill="#E9A264" transform="translate(415,472)"/>
<path d="M0 0 C0.66 0.33 1.32 0.66 2 1 C1.01 2.485 1.01 2.485 0 4 C3.3 4 6.6 4 10 4 C10 4.33 10 4.66 10 5 C5.38 5 0.76 5 -4 5 C-4 4.34 -4 3.68 -4 3 C-2 1.375 -2 1.375 0 0 Z " fill="#E99453" transform="translate(409,966)"/>
<path d="M0 0 C0.99 0.33 1.98 0.66 3 1 C2.2884375 2.175625 2.2884375 2.175625 1.5625 3.375 C0.66101977 4.88948678 -0.21179485 6.4235897 -1 8 C-2.5 6.625 -2.5 6.625 -4 5 C-4 4.34 -4 3.68 -4 3 C-2.1875 1.3125 -2.1875 1.3125 0 0 Z " fill="#E48744" transform="translate(190,743)"/>
<path d="M0 0 C5.99291003 0.41330414 9.25036599 1.31903365 14 5 C13.01 5.495 13.01 5.495 12 6 C9.92803369 5.26821134 7.8891448 4.44100997 5.875 3.5625 C4.77929688 3.08941406 3.68359375 2.61632812 2.5546875 2.12890625 C1.71164062 1.75636719 0.86859375 1.38382812 0 1 C0 0.67 0 0.34 0 0 Z " fill="#E9AA72" transform="translate(401,466)"/>
<path d="M0 0 C0.66 0.33 1.32 0.66 2 1 C-0.85276137 3.93200474 -3.65079784 6.64315404 -7 9 C-6.82374165 6.62051228 -6.30280227 5.29774151 -4.59765625 3.62109375 C-3.09350908 2.37884514 -1.54870149 1.18623944 0 0 Z " fill="#F9EDD8" transform="translate(467,432)"/>
<path d="M0 0 C-1.45255699 3.82946843 -3.42895561 5.12050295 -7 7 C-7 5.35 -7 3.7 -7 2 C-4.35261084 0.5393715 -3.10551666 0 0 0 Z " fill="#E5E2DB" transform="translate(670,153)"/>
<path d="M0 0 C2.475 0.99 2.475 0.99 5 2 C4.3125 4.4375 4.3125 4.4375 3 7 C0.375 7.8125 0.375 7.8125 -2 8 C-2.33 7.34 -2.66 6.68 -3 6 C-1.35 6 0.3 6 2 6 C2 4.68 2 3.36 2 2 C1.34 2 0.68 2 0 2 C0 1.34 0 0.68 0 0 Z " fill="#E29156" transform="translate(349,857)"/>
<path d="M0 0 C-0.309375 0.5775 -0.61875 1.155 -0.9375 1.75 C-1.92583364 3.84294184 -2.5168613 5.74535275 -3 8 C-2.34 8.33 -1.68 8.66 -1 9 C-1.99 9 -2.98 9 -4 9 C-4.33 6.69 -4.66 4.38 -5 2 C-2 0 -2 0 0 0 Z " fill="#E3884B" transform="translate(155,688)"/>
<path d="M0 0 C0.66 0.33 1.32 0.66 2 1 C-0.31 3.64 -2.62 6.28 -5 9 C-5.33 8.01 -5.66 7.02 -6 6 C-4.02 4.02 -2.04 2.04 0 0 Z " fill="#313A59" transform="translate(113,447)"/>
<path d="M0 0 C-0.9590625 0.433125 -0.9590625 0.433125 -1.9375 0.875 C-4.15206079 1.82823451 -4.15206079 1.82823451 -5 4 C-3.35 4 -1.7 4 0 4 C-0.66 4.66 -1.32 5.32 -2 6 C-4.125 5.625 -4.125 5.625 -6 5 C-6.33 3.35 -6.66 1.7 -7 0 C-3.86650268 -1.04449911 -3.01031744 -0.93423645 0 0 Z " fill="#F4EBD5" transform="translate(579,369)"/>
<path d="M0 0 C0.66 0.33 1.32 0.66 2 1 C0.71451591 2.33929505 -0.57858155 3.67128643 -1.875 5 C-2.59429688 5.7425 -3.31359375 6.485 -4.0546875 7.25 C-6 9 -6 9 -8 9 C-6.4169423 4.7257442 -3.49431596 2.73468206 0 0 Z " fill="#F7E6D1" transform="translate(538,933)"/>
<path d="M0 0 C3.35595828 0.59927826 5.37801226 1.84622436 8 4 C6.906875 3.979375 5.81375 3.95875 4.6875 3.9375 C1.05615809 3.81455548 1.05615809 3.81455548 -2 5 C-1.34 3.35 -0.68 1.7 0 0 Z " fill="#E89454" transform="translate(399,883)"/>
<path d="M0 0 C0.99 0.495 0.99 0.495 2 1 C2.33333333 2.33333333 2.66666667 3.66666667 3 5 C3.66 5.33 4.32 5.66 5 6 C4.67 7.65 4.34 9.3 4 11 C0.85041169 7.57653445 0.43820891 4.55737263 0 0 Z " fill="#DA8B4F" transform="translate(130,600)"/>
<path d="M0 0 C0.33 0 0.66 0 1 0 C1.042721 1.66611905 1.04063832 3.33382885 1 5 C0 6 0 6 -3.5625 6.0625 C-4.696875 6.041875 -5.83125 6.02125 -7 6 C-7.33 5.34 -7.66 4.68 -8 4 C-5.69 4 -3.38 4 -1 4 C-0.67 2.68 -0.34 1.36 0 0 Z " fill="#ED9B57" transform="translate(429,438)"/>
<path d="M0 0 C0 3 0 3 -1.53125 4.60546875 C-2.1809375 5.12753906 -2.830625 5.64960937 -3.5 6.1875 C-4.1496875 6.71730469 -4.799375 7.24710938 -5.46875 7.79296875 C-5.9740625 8.19128906 -6.479375 8.58960938 -7 9 C-7.66 8.67 -8.32 8.34 -9 8 C-6.03 5.36 -3.06 2.72 0 0 Z " fill="#354363" transform="translate(813,837)"/>
<path d="M0 0 C0.66 0 1.32 0 2 0 C2.33 1.65 2.66 3.3 3 5 C2.195625 5.61875 1.39125 6.2375 0.5625 6.875 C-2.03874519 8.74164041 -2.03874519 8.74164041 -3 11 C-3.66 10.67 -4.32 10.34 -5 10 C-3.71937515 8.2925002 -2.38232443 6.62626404 -1 5 C-0.34 5 0.32 5 1 5 C0.67 3.35 0.34 1.7 0 0 Z " fill="#E89B5C" transform="translate(435,427)"/>
<path d="M0 0 C0.99 0.33 1.98 0.66 3 1 C3 1.99 3 2.98 3 4 C4.94009522 5.70532323 4.94009522 5.70532323 7 7 C4.69 6.67 2.38 6.34 0 6 C0 4.02 0 2.04 0 0 Z " fill="#F7EBD4" transform="translate(267,815)"/>
<path d="M0 0 C2.0625 0.4375 2.0625 0.4375 4 1 C2.68 1.33 1.36 1.66 0 2 C0 3.65 0 5.3 0 7 C-0.99 6.67 -1.98 6.34 -3 6 C-1.125 1.125 -1.125 1.125 0 0 Z " fill="#E0965F" transform="translate(301,831)"/>
<path d="M0 0 C2.97 0 5.94 0 9 0 C9 0.66 9 1.32 9 2 C9.66 2.33 10.32 2.66 11 3 C9.741875 2.87625 8.48375 2.7525 7.1875 2.625 C6.12595703 2.52058594 6.12595703 2.52058594 5.04296875 2.4140625 C3 2 3 2 0 0 Z " fill="#E9A664" transform="translate(611,537)"/>
<path d="M0 0 C0.66 0 1.32 0 2 0 C1.67 1.32 1.34 2.64 1 4 C2.32 4.66 3.64 5.32 5 6 C3.1875 6.6875 3.1875 6.6875 1 7 C-0.75 5.5625 -0.75 5.5625 -2 4 C-1.34 2.68 -0.68 1.36 0 0 Z " fill="#F7E6CE" transform="translate(445,415)"/>
<path d="M0 0 C0.99 0.33 1.98 0.66 3 1 C2.125 5.875 2.125 5.875 1 7 C-0.66617115 7.04063832 -2.33388095 7.042721 -4 7 C-3.01 6.67 -2.02 6.34 -1 6 C-1 5.34 -1 4.68 -1 4 C-0.01 4 0.98 4 2 4 C2 3.34 2 2.68 2 2 C1.34 2 0.68 2 0 2 C0 1.34 0 0.68 0 0 Z " fill="#E1925D" transform="translate(417,891)"/>
<path d="M0 0 C0.99 0.33 1.98 0.66 3 1 C2.01 1.495 2.01 1.495 1 2 C1 3.65 1 5.3 1 7 C-0.32 6.67 -1.64 6.34 -3 6 C-2.42655063 3.13275314 -2.1385485 2.1385485 0 0 Z " fill="#E3945B" transform="translate(365,867)"/>
<path d="M0 0 C3.48331435 3.01887244 4.79157144 5.56909529 6 10 C5.01 9.67 4.02 9.34 3 9 C2.05078125 6.93359375 2.05078125 6.93359375 1.3125 4.4375 C1.06113281 3.61121094 0.80976562 2.78492188 0.55078125 1.93359375 C0.36902344 1.29550781 0.18726563 0.65742187 0 0 Z " fill="#EB9E5D" transform="translate(903,606)"/>
<path d="M0 0 C0.66 0.33 1.32 0.66 2 1 C0.02 3.31 -1.96 5.62 -4 8 C-4.66 7.67 -5.32 7.34 -6 7 C-4.77065985 3.31197956 -3.06140622 2.27643027 0 0 Z " fill="#FAEBD6" transform="translate(642,850)"/>
<path d="M0 0 C0.66 0.33 1.32 0.66 2 1 C-0.31 3.31 -2.62 5.62 -5 8 C-5.33 7.01 -5.66 6.02 -6 5 C-4.02 3.35 -2.04 1.7 0 0 Z " fill="#F9EBD7" transform="translate(752,764)"/>
<path d="M0 0 C3.125 0.375 3.125 0.375 6 1 C6 1.33 6 1.66 6 2 C3.69 2.33 1.38 2.66 -1 3 C-0.67 4.32 -0.34 5.64 0 7 C-0.66 7 -1.32 7 -2 7 C-2.125 4.625 -2.125 4.625 -2 2 C-1.34 1.34 -0.68 0.68 0 0 Z " fill="#F5DBB9" transform="translate(729,547)"/>
<path d="M0 0 C7.625 1.75 7.625 1.75 11 4 C6.35108046 4.32434322 3.77593392 3.776422 0 1 C0 0.67 0 0.34 0 0 Z " fill="#ECA96E" transform="translate(513,464)"/>
<path d="M0 0 C-0.99 0.66 -1.98 1.32 -3 2 C-3.515625 2.53625 -4.03125 3.0725 -4.5625 3.625 C-6 5 -6 5 -8 5 C-8 3.68 -8 2.36 -8 1 C-5.07175348 0.02391783 -3.04386724 -0.08226668 0 0 Z " fill="#F2E3D1" transform="translate(538,226)"/>
</svg>
