<?xml version="1.0" encoding="utf-8" ?><svg xmlns="http://www.w3.org/2000/svg" xmlns:xlink="http://www.w3.org/1999/xlink" width="1024" height="1024" viewBox="0 0 1024 1024"><path fill="#FEFEFE" d="M0 0L659.684 0L668.96 0L713.881 0L822.908 0L866.558 0L873.722 0L1024 0L1024 12.192L1024 18.3169L1024 75.5768L1024 84.3152L1024 352.927L1024 362.7L1024 419.451L1024 428.997L1024 598.322L1024 608.199L1024 1024L608.693 1024L604.195 1024L426.599 1024L417.255 1024L360.386 1024L350.506 1024L161.389 1024L151.979 1024L94.801 1024L88.2554 1024L0 1024L0 1015.95L0 1008.02L0 949.745L0 941.77L0 671.983L0 662.266L0 605.306L0 596.269L0 425.41L0 415.428L0 0Z"/><path fill="#FEFEFE" d="M608.693 1024L1024 608.199L1024 1024L608.693 1024Z"/><path fill="#FEFEFE" d="M0 605.306L130.851 735.622L173.691 778.435C178.288 783.043 198.218 801.907 199.974 807.018C196.997 812.611 177.663 831.18 171.738 837.106L129.9 878.966L37.2089 971.595C24.9366 983.663 12.6901 996.504 0 1008.02L0 949.745L0 941.77L0 671.983L0 662.266L0 605.306Z"/><path fill="#FEFEFE" d="M0 671.983C28.1398 698.513 56.009 727.181 83.405 754.619L117.006 788.251C122.667 793.899 130.23 801.02 135.515 806.816C131.084 810.446 125.545 816.554 121.387 820.826C114.788 827.552 108.126 834.216 101.401 840.817L0 941.77L0 671.983Z"/><path fill="#2D2D2D" d="M0 662.266C30.2933 691.951 59.6654 722.247 89.655 752.079C101.868 764.062 114.021 776.107 126.113 788.211C129.995 792.082 141.761 803.019 143.885 807.071C140.642 811.368 132.3 818.94 128.03 823.169L98.2184 852.951L32.0318 918.861C25.8738 924.986 6.12449 946.52 0 949.745L0 941.77L101.401 840.817C108.126 834.216 114.788 827.552 121.387 820.826C125.545 816.554 131.084 810.446 135.515 806.816C130.23 801.02 122.667 793.899 117.006 788.251L83.405 754.619C56.009 727.181 28.1398 698.513 0 671.983L0 662.266Z"/><path fill="#FEFEFE" d="M1024 18.3169L1024 75.5768L1024 84.3152L1024 352.927L1024 362.7L1024 419.451C1016.63 412.981 1006.76 402.681 999.549 395.502L944.373 339.775C904.701 300.145 862.007 259.789 823.55 219.32C840.48 201.593 859.893 182.895 877.343 165.422C926.733 116.891 975.621 67.8539 1024 18.3169Z"/><path fill="#FEFEFE" d="M1024 84.3152L1024 352.927C1016.42 346.387 1006.94 336.414 999.846 329.319L966.322 295.897L889.298 219.065C894.094 213.767 900.662 207.662 905.859 202.576L933.448 175.43C963.985 145.411 994.171 115.037 1024 84.3152Z"/><path fill="#2D2D2D" d="M1024 362.7C1020.77 359.017 1014.38 353.104 1010.72 349.493L988.68 327.455L912.956 251.685C907.696 246.426 884.018 223.704 881.842 218.978C884.436 214.452 896.334 202.847 900.744 198.436L931.918 167.511C962.186 137.34 993.205 104.94 1024 75.5768L1024 84.3152C994.171 115.037 963.985 145.411 933.448 175.43L905.859 202.576C900.662 207.662 894.094 213.767 889.298 219.065L966.322 295.897L999.846 329.319C1006.94 336.414 1016.42 346.387 1024 352.927L1024 362.7Z"/><path fill="#FEFEFE" d="M94.801 1024C126.744 991.697 158.88 959.585 191.208 927.667L233.046 885.629C238.677 880.059 244.176 874.37 249.964 868.961C253.885 865.297 254.519 865.33 259.812 866.147C266.534 872.57 273.206 879.776 279.772 886.461L316.469 923.385L367.571 974.58C384.307 991.148 400.872 1007.01 417.255 1024L360.386 1024L350.506 1024L161.389 1024L151.979 1024L94.801 1024Z"/><path fill="#FEFEFE" d="M255.959 929.785C260.819 933.798 265.502 938.745 269.918 943.267C294.073 968.006 318.795 992.179 343.176 1016.69C345.58 1019.11 347.976 1021.73 350.506 1024L161.389 1024L225.412 960.027C235.812 949.749 245.059 939.727 255.959 929.785Z"/><path fill="#2D2D2D" d="M151.979 1024L223.119 953.117C227.019 949.235 253.29 922.121 255.958 921.487C260.995 924.313 276.419 940.86 281.366 945.765L320.595 984.406C333.997 997.845 346.348 1010.86 360.386 1024L350.506 1024C347.976 1021.73 345.58 1019.11 343.176 1016.69C318.795 992.179 294.073 968.006 269.918 943.267C265.502 938.745 260.819 933.798 255.959 929.785C245.059 939.727 235.812 949.749 225.412 960.027L161.389 1024L151.979 1024Z"/><path fill="#FEFEFE" d="M668.96 0L713.881 0L822.908 0L866.558 0C858.534 9.72508 842.672 24.0576 833.131 33.5881L768.238 98.982C735.348 65.7845 702.255 32.7899 668.96 0Z"/><path fill="#F9946B" d="M713.881 0L822.908 0L789.866 32.9348C782.984 39.919 775.551 48.1054 768.386 54.6118L713.881 0Z"/><path fill="#2D2D2D" d="M0 415.428C19.1414 397.913 41.1477 374.927 59.5437 356.242L123.055 292.791L316.593 100.559C340.546 76.4615 364.712 52.5773 389.089 28.909C393.119 24.9594 415.291 1.78238 417.9 1.32506C420.623 2.31719 421.475 3.51622 420.718 6.38325C413.889 13.8784 405.353 21.3493 398.158 28.7679C363.752 63.645 328.94 98.1196 293.729 132.185C270.51 154.875 247.486 178.41 224.519 201.406L110.551 315.215L30.9591 394.641C20.8786 404.765 9.69665 414.984 0 425.41L0 415.428Z"/><path fill="#2D2D2D" d="M1024 598.322L1024 608.199L608.693 1024L604.195 1024C603.105 1023.19 602.771 1023.16 602.314 1021.94C603.606 1019.96 608.268 1015.47 610.17 1013.55L626.873 996.829C646.023 977.769 666.201 957.864 685.054 938.566C731.148 891.911 777.538 845.551 824.221 799.487L960.433 662.573C981.751 641.029 1002.96 620.183 1024 598.322Z"/><path fill="#2D2D2D" d="M0 596.269L62.8635 658.807L148.685 744.372C166.724 762.689 185.753 780.302 203.318 799.104C210.484 806.775 203.164 815.159 197.64 820.634L65.2671 952.779C51.6918 966.534 38.029 980.203 24.2796 993.784C17.9051 1000.09 7.39204 1011.79 0 1015.95L0 1008.02C12.6901 996.504 24.9366 983.663 37.2089 971.595L129.9 878.966L171.738 837.106C177.663 831.18 196.997 812.611 199.974 807.018C198.218 801.907 178.288 783.043 173.691 778.435L130.851 735.622L0 605.306L0 596.269Z"/><path fill="#2D2D2D" d="M1024 428.997C1016.97 420.784 1002.14 407.199 993.904 398.951L882.152 286.941L840.181 245.238C833.156 238.266 826.037 231.388 819.066 224.365C816.88 222.342 814.801 219.429 817.234 216.676C823.716 209.34 831.192 202.544 838.126 195.606L881.622 151.725L963.199 69.8967C980.666 52.3245 998.21 34.7565 1015.88 17.372C1018.4 14.8886 1020.55 12.7548 1024 12.192L1024 18.3169C975.621 67.8539 926.733 116.891 877.343 165.422C859.893 182.895 840.48 201.593 823.55 219.32C862.007 259.789 904.701 300.145 944.373 339.775L999.549 395.502C1006.76 402.681 1016.63 412.981 1024 419.451L1024 428.997Z"/><path fill="#2D2D2D" d="M88.2554 1024C88.2452 1021.67 87.8877 1021.43 89.6512 1019.66C123.82 985.24 158.294 951.083 192.575 916.786L228.041 881.194C234.073 875.145 240.08 868.944 246.277 863.192C251.93 857.944 258.762 856.823 264.727 862.228C271.408 868.282 277.835 875.018 284.199 881.418L320.633 917.998L387.289 984.52C400.426 997.627 413.852 1010.53 426.599 1024L417.255 1024C400.872 1007.01 384.307 991.148 367.571 974.58L316.469 923.385L279.772 886.461C273.206 879.776 266.534 872.57 259.812 866.147C254.519 865.33 253.885 865.297 249.964 868.961C244.176 874.37 238.677 880.059 233.046 885.629L191.208 927.667C158.88 959.585 126.744 991.697 94.801 1024L88.2554 1024Z"/><path fill="#2D2D2D" d="M659.684 0L668.96 0C702.255 32.7899 735.348 65.7845 768.238 98.982L833.131 33.5881C842.672 24.0576 858.534 9.72508 866.558 0L873.722 0C873.878 1.55757 873.887 1.4816 873.539 3.00547C870.824 6.34649 865.476 11.1184 862.235 14.3006L841.156 35.1619C828.612 47.7111 815.633 60.3161 803.299 72.9709C796.121 80.4311 788.881 87.8313 781.58 95.1708C778.279 98.4988 772.421 104.794 768.671 107.112C762.999 103.892 745.994 85.2747 739.985 79.3294L659.684 0Z"/><path fill="#2D2D2D" d="M767.839 270.011C769.864 269.886 772.18 269.649 773.762 271.217C781.909 279.295 790.087 287.342 798.266 295.388L852.068 348.961L963.584 460.669L992.978 490.085C999.564 496.678 1012.57 506.596 1010.26 516.549C1009.83 518.373 1008.95 520.056 1007.68 521.44C1004.44 525.026 999.235 529.867 995.678 533.446L967.504 561.749L856.945 673.299L806.995 723.213C799.162 731.132 779.411 752.259 771.282 757.465C768.06 756.44 766.093 754.93 763.709 752.555C755.553 744.428 747.415 736.185 739.289 728.031L676.618 664.769C644.203 632.531 612.004 600.078 580.021 567.411L550.579 537.71C545.038 532.178 539.27 526.657 533.881 521.087C531.965 519.107 527.835 514.73 528.482 512.142C528.94 510.307 529.194 509.704 530.559 508.321C547.902 490.752 565.52 473.263 582.954 455.8L663.288 374.799L724.258 313.73C738.048 299.759 753.642 283.336 767.839 270.011Z"/><path fill="#FEFEFE" d="M769.887 277.297C773.9 278.685 978.716 484.883 999.76 506.645C1001.04 507.97 1004.96 511.823 1004.28 513.905C1003.69 515.726 1003.24 516.778 1001.85 518.151C997.861 522.087 993.721 525.869 989.769 529.834L959.236 560.736L867.553 652.772L806.868 713.969C796.436 724.505 781.61 740.229 770.62 749.756L628.313 606.594C596.944 575.593 565.833 544.333 534.982 512.818L769.887 277.297Z"/><path fill="#2D2D2D" d="M768.46 334.382C771.602 334.807 772.549 334.865 774.814 337.076C779.422 341.573 783.75 346.384 788.269 350.985L819.722 382.789C846.542 409.786 873.656 436.098 900.214 463.419C910.143 473.723 920.192 483.91 930.359 493.978C935.6 499.159 945.783 508.567 950.027 513.985C946.896 517.981 934.863 529.351 930.409 533.714C919.267 544.701 908.207 555.771 897.231 566.923C868.31 596.773 838.934 626.178 809.111 655.126C796.863 667.213 783.431 681.561 770.988 692.993C770.395 693.208 769.374 693.432 768.728 693.597C767.721 693.468 767.104 693.158 766.434 692.408C759.219 684.324 751.389 676.683 743.752 669.024L683.4 608.438L619.639 543.5C610.875 534.491 601.803 525.691 593.164 516.573C591.8 515.133 591.182 514.31 591.102 512.298C595.93 506.525 607.455 495.737 613.174 490.034L655.264 447.873C681.852 420.933 708.618 394.17 735.56 367.584C746.436 356.709 757.494 344.976 768.46 334.382Z"/><path fill="#FEFEFE" d="M826.302 426.718C833.168 426.113 856.637 429 861.886 434.207C863.737 436.043 870.193 442.492 872.39 444.776C875.098 447.59 881.9 453.853 883.901 456.466C889.059 463.201 891.447 478.389 892.155 486.56C894.629 515.075 880.768 546.895 862.306 568.159C844.895 588.212 819.385 605.331 793.16 611.084C786.701 612.501 780.573 612.916 774.021 613.39C737.34 613.987 709.025 592.571 706.659 554.843C703.673 507.249 734.379 461.367 775.92 439.969C792.57 431.392 807.817 428.037 826.302 426.718Z"/><path fill="#2D2D2D" d="M781.603 487.852C782.081 487.884 782.786 487.915 783.23 488.044C795.504 491.597 807.985 494.35 820.419 497.242C823.029 497.849 826.576 498.727 828.011 500.861C828.069 505.002 817.295 543.843 815.227 548.428C811.071 548.784 772.692 539.301 769.341 536.185C768.825 532.721 779.315 492.125 781.603 487.852Z"/><path fill="#F9946B" d="M785.935 495.77C796.63 498.044 810.221 501.704 821.03 504.43C817.46 516.615 813.983 528.827 810.598 541.065C808.157 540.94 799.977 538.705 797.296 538.005C790.346 536.198 783.384 534.433 776.412 532.712C780.335 520.616 782.044 507.744 785.935 495.77Z"/><path fill="#FEFEFE" d="M770.09 342.402C773.912 344.39 797.72 370.707 803.419 375.731C739.905 386.974 677.447 439.482 660.832 502.417C656.715 518.011 654.385 535.52 655.973 551.54C651.145 553.567 647.896 555.356 643.406 558.016C641.821 556.583 640.077 554.806 638.52 553.299C625.664 539.957 612.31 526.726 599.326 513.436C611.593 500.089 624.861 487.599 637.66 474.793L699.787 412.705C722.408 390.322 746.919 363.691 770.09 342.402Z"/><path fill="#FEFEFE" d="M823.301 408.718C826.879 408.301 833.002 408.904 836.747 409.204C840.903 413.977 846.013 418.111 850.557 422.808C829.884 419.634 818.898 418.891 798.138 424.511C760.989 434.498 735.094 457.131 715.649 489.715C693.583 526.69 689.503 586.715 732.723 610.3C786.688 639.747 857.537 598.819 883.649 549.15C895.265 527.053 902.875 500.563 897.327 475.521C896.915 473.641 895.559 470.128 896.044 468.444L897.343 469.478C903.207 475.272 908.427 478.74 909.296 487.048C912.243 515.213 900.474 549.115 883.113 571.04C872.565 582.859 859.356 597.663 846.489 606.718C809.875 632.487 754.596 644.289 717.597 613.147C700.53 598.659 689.962 577.951 688.242 555.63C685.366 522.01 701.665 485.477 723.498 460.634C750.727 429.65 781.886 412.015 823.301 408.718Z"/><path fill="#FEFEFE" d="M808.216 381.616C810.567 381.793 825.484 398.661 829.886 402.185C822.116 402.36 813.38 402.349 805.733 403.799C747.297 414.886 698.184 464.698 683.85 521.847C682.659 526.597 682.119 532.642 681.499 537.534L677.146 540.376C672.152 543.101 667.511 545.621 662.374 548.093C660.186 519.059 671.477 482.544 688.147 459.12C717.496 417.878 759.035 391.27 808.216 381.616Z"/><path fill="#FEFEFE" d="M828.595 625.038C828.781 625.234 828.753 625.555 828.81 625.818C824.96 630.511 814.745 639.604 809.964 644.318C796.106 658.054 782.322 671.864 768.612 685.749L763.504 680.169C761.483 677.76 758.698 674.953 756.495 672.618C758.086 661.836 759.699 648.617 760.542 637.838C787.634 640.165 804.024 635.785 828.595 625.038Z"/><path fill="#FEFEFE" d="M680.299 546.02C681.173 548.683 681.782 557.848 682.106 561.362C683.19 573.102 686.084 580.31 690.817 590.809C687.818 592.861 684.265 594.992 681.163 596.954L670.411 586.174C663.82 579.73 653.913 570.351 648.228 563.328C655.718 558.164 671.657 550.59 680.299 546.02Z"/><path fill="#FEFEFE" d="M915.765 489.223C918.813 491.524 938.118 510.952 940.504 514.016C933.14 521.968 924.201 530.367 916.37 537.958C911.804 542.452 907.83 546.491 903.508 551.216C910.154 539.106 915.539 516.516 916.262 502.754C916.469 498.822 916.06 493.267 915.765 489.223Z"/><path fill="#FEFEFE" d="M693.893 597.426C693.934 597.439 704.155 609.705 705.644 611.414C713.611 620.557 721.382 624.909 731.986 630.31C732.017 636.061 732.07 641.154 731.667 646.901L728.473 644.136C714.771 631.151 699.098 615.764 686.332 601.892L693.893 597.426Z"/><path fill="#FEFEFE" d="M738.753 633.138C744.093 634.597 748.1 635.729 753.566 636.726C753.651 644.886 751.974 657.414 750.93 665.786C749.065 665.617 739.426 655.565 737.433 653.604C739.135 646.974 738.972 639.917 738.753 633.138Z"/><path fill="#2D2D2D" d="M511.644 12.1184C514.22 12.2354 515.428 12.1803 517.355 14.1011C521.131 17.8638 524.769 21.7728 528.574 25.5026L572.034 68.8632L684.359 181.412L736.027 233.274C741.97 239.242 748.451 245.182 754.388 251.159C755.445 252.224 755.516 253.402 755.358 254.741C752.913 258.422 741.566 269.321 737.818 273.036C725.866 284.775 713.993 296.596 702.201 308.496L595.135 416.468C571.961 440.152 548.559 463.612 524.932 486.843C521.558 490.109 517.329 494.411 513.27 496.568C510.84 496.523 508.528 495.651 506.758 493.946C501.465 488.848 496.302 483.602 491.11 478.399L461.899 449.259L364.714 352.095L302.479 289.684L282.373 269.497C277.969 265.071 273.303 260.754 269.372 255.931C269.224 254.523 269.513 252.566 270.533 251.491C285.06 236.193 300.571 221.757 315.338 206.683L430.092 91.6406L483.977 37.6274C491.606 29.9638 499.086 21.8273 506.809 14.2374C508.221 12.8499 509.736 12.4884 511.644 12.1184Z"/><path fill="#FEFEFE" d="M511.971 18.7865C515.024 19.699 725.298 232.552 747.89 253.909C723.037 277.702 700.065 301.79 675.989 326.109L605.189 396.879C574.648 428.312 543.706 459.354 512.372 489.998C508.803 487.262 495.975 474.102 492.445 470.594L447.703 425.83C391.042 368.292 333.97 311.16 276.491 254.44C283.856 247.875 292.852 238.323 299.956 231.189L342.252 188.752L427.777 103.296C455.347 75.4343 483.853 45.9994 511.971 18.7865Z"/><path fill="#2D2D2D" d="M510.954 76.3447C511.451 76.3615 511.712 76.349 512.226 76.4763C515.863 77.3771 549.14 112.314 553.984 117.323C562.309 125.933 570.991 134.149 579.409 142.659L664.141 228.262C668.312 232.484 688.792 251.918 690.548 255.026C690.391 256.702 689.187 257.894 687.972 259.096C672.265 274.636 656.417 290.186 640.711 305.713L563.502 382.755C546.767 399.503 530.293 415.573 513.915 432.694C511.498 433.385 509.619 431.46 508.01 429.887C467.488 389.981 427.25 349.788 387.299 309.31C374.813 296.999 362.407 284.606 350.082 272.133C346.343 268.371 335.508 258.103 333.349 254.348C335.284 251.796 340.561 246.801 343.054 244.318C349.09 238.368 355.055 232.346 360.947 226.252C392.323 193.65 426.025 160.901 458.273 129.034C469.253 118.099 480.142 107.074 490.939 95.9587C495.905 90.8684 505.712 80.397 510.954 76.3447Z"/><path fill="#FEFEFE" d="M572.109 255.292C601.75 252.005 632.989 262.688 656.233 280.972C649.736 288.039 642.308 294.98 635.518 301.838C619.78 317.887 603.783 333.68 587.533 349.212C585.875 344.861 581.592 328.118 579.126 326.189C574.47 325.748 532.256 338.19 527.992 340.855C529.512 347.553 534.256 361.421 536.472 368.735C538.25 374.049 539.612 378.488 541.071 383.901C525.274 389.091 504.334 395.275 489.251 401.427C479.433 391.776 469.482 382.453 459.866 372.576C460.379 347.124 470.67 321.578 486.619 301.884C507.802 275.622 538.558 258.86 572.109 255.292Z"/><path fill="#FEFEFE" d="M470.881 207.104L472.052 207.301C473.311 209.311 473.444 212.647 473.803 214.985C477.481 238.957 473.512 263.401 465.633 286.132C464.743 288.701 461.345 292.894 459.6 295.193C437.126 292.765 417.72 299.118 399.025 311.217C385.913 299.333 373.117 285.97 360.63 273.322C354.873 267.298 347.596 260.711 342.389 254.636C343.99 252.694 353.438 241.737 354.953 241.495L354.575 244.59C354.982 245.554 355.523 246.573 356.552 246.97C362.01 249.076 401.285 265.57 404.005 264.968C407.034 262.103 415.987 228.963 418.733 221.339C423.181 220.484 430.484 218.149 435.128 216.861C447.021 213.517 458.939 210.265 470.881 207.104Z"/><path fill="#FEFEFE" d="M528.992 102.243C533.04 104.189 571.172 143.741 576.173 149.527C571.027 156.346 561.677 171.525 558.221 179.142C549.716 184.55 541.574 192.717 532.82 197.125C531.619 197.729 521.686 200.076 519.872 200.537C512.467 202.393 505.124 204.487 497.853 206.815C492.971 186.13 489.146 172.649 477.371 154.376C499.924 143.261 518.1 124.905 528.992 102.243Z"/><path fill="#FEFEFE" d="M578.769 235.713C605.333 233.38 637.53 243.909 658.906 259.022C662.653 261.672 666.44 264.397 670.164 267.088C667.074 270.157 663.777 273.121 660.566 276.073C606.045 231.069 523.048 243.759 480.595 298.851C476.643 303.979 473.464 309.168 470.119 314.676C459.82 332.786 455.709 346.333 453.945 366.896C437.24 349.694 420.572 334.189 403.956 316.479C418.828 304.728 443.639 298.339 462.232 302.617C464.86 298.277 468.903 293.251 472.209 289.418C499.277 258.19 537.565 238.893 578.769 235.713Z"/><path fill="#FEFEFE" d="M611.712 186.379C616.039 187.246 674.93 248.073 681.771 255.865C679.663 258.332 676.936 260.513 674.463 262.642C672.42 260.693 669.043 258.198 666.741 256.398C642.981 238.601 619.181 231.037 589.843 229.09C589.56 220.041 589.425 210.988 589.439 201.935C595.939 198.68 605.563 190.993 611.712 186.379Z"/><path fill="#FEFEFE" d="M443.965 152.34C445.165 153.067 448.198 156.701 449.158 157.855C459.799 170.647 465.967 184.5 471.023 200.139C456.677 203.789 434.327 211.598 420.88 213.727C411.287 210.711 402.177 206.943 392.504 203.98C408.505 186.718 427.176 169.136 443.965 152.34Z"/><path fill="#FEFEFE" d="M511.378 84.3251C513.629 84.9711 522.017 94.597 525.013 97.299C522.394 100.973 519.336 107.363 516.358 111.721C504.965 128.39 492.732 138.431 475.22 147.943L474.251 148.343C472.266 148.007 464.671 137.342 462.482 134.61C468.917 127.283 476.995 119.722 483.916 112.614C493.035 103.249 502.076 93.4402 511.378 84.3251Z"/><path fill="#FEFEFE" d="M559.145 186.348C561.979 187.347 578.821 199.649 581.923 201.871C582.806 207.565 583.292 223.085 583.51 229.212C573.748 229.49 568.382 230.098 558.797 231.735L547.672 234.3C543.279 224.288 539.083 214.192 535.085 204.015C543.963 198.293 550.823 192.898 559.145 186.348Z"/><path fill="#FEFEFE" d="M456.494 139.78C462.679 142.17 473.425 161.202 476.916 167.257C491.741 192.978 497.158 235.576 488.662 264.286L477.826 273.514C476.982 274.336 477.018 274.299 475.955 274.817L475.748 274.029C477.984 268.151 480.462 253.054 480.963 246.244C483.951 205.627 474.689 178.145 449.151 147.16L456.494 139.78Z"/><path fill="#F9946B" d="M386.992 208.833C389.684 209.304 409.387 216.714 412.664 218.024C408.457 230.848 404.882 245.142 400.228 257.47C397.244 256.429 393.619 254.855 390.633 253.651C383.71 250.649 368.677 244.277 361.696 242.955C362.979 240.262 365.287 232.083 366.152 230.789C370.661 224.043 381.069 214.586 386.992 208.833Z"/><path fill="#F9946B" d="M527.969 205.132C528.536 205.552 540.045 233.178 541.248 236.082C527.906 240.878 517.326 245.187 505.253 252.799L497.086 258.468C499.666 240.117 500.179 231.851 498.338 213.215C507.949 210.078 518.158 207.57 527.969 205.132Z"/><path fill="#F9946B" d="M574.693 333.024L575.284 333.222C576.715 335.799 580.844 351.433 581.847 355.038C571.088 365.595 560.405 376.761 549.523 387.12L549.094 386.999L547.933 383.928C544.501 372.164 540.044 355.922 535.943 344.697C548.908 340.968 561.826 337.077 574.693 333.024Z"/><path fill="#F9946B" d="M580.469 154.301C584.422 157.075 603.69 177.419 607.942 181.836C599.366 186.303 597.046 188.251 589.782 194.337L586.829 196.712C579.468 191.458 571.765 186.785 564.501 181.383C567.753 174.74 576.22 160.592 580.469 154.301Z"/><path fill="#FEFEFE" d="M542.568 390.608C543.267 391.035 543.252 391.286 543.767 392.093C543.269 393.918 515.918 420.985 512.49 424.845L503.851 416.446C500.488 413.162 497.409 410.247 494.394 406.613C507.675 401.382 528.589 394.639 542.568 390.608Z"/><path fill="#2D2D2D" d="M510.596 529.463C513.799 529.507 515.025 529.629 517.348 531.957C525.181 539.806 532.973 547.706 540.797 555.565C563.732 578.265 586.475 601.16 609.022 624.247C655.985 671.989 704.104 718.712 750.868 766.665C753.937 769.813 754.245 770.818 755.151 775.041C701.262 828.049 647.716 881.403 594.514 935.1L540.853 988.366C534.1 995.035 523.812 1006.29 517.021 1011.85C512.805 1014.01 509.785 1013.85 506.257 1010.23C489.112 992.626 471.322 975.696 454.022 958.258L306.542 810.207C300.667 804.234 294.776 798.364 288.794 792.511C284.081 787.901 278.854 783.328 275.025 778.003C273.554 775.957 273.714 769.518 274.666 767.114C275.517 764.966 276.587 763.517 278.167 761.902C289.948 749.708 302.076 737.794 313.978 725.72L395.419 643.335L472.505 566.117L494.749 543.995C498.949 539.77 505.626 531.862 510.596 529.463Z"/><path fill="#FEFEFE" d="M511.516 536.275C514.244 537.618 533.775 557.951 537.175 561.359L610.333 635.058L702.747 727.589L734.037 759.201C738.683 763.866 743.676 768.229 748.098 773.039C722.424 799.143 695.445 824.974 669.451 850.878L515.32 1004.89C513.5 1006.32 514.026 1006.38 512.215 1006.35C508.56 1003.58 494.918 989.465 490.748 985.365C472.628 967.692 454.71 949.814 436.996 931.735L329.924 824.282C322.566 816.905 282.338 778.986 280.208 772.74C280.38 770.753 280.632 769.436 282.049 767.914C288.368 761.123 295.104 754.331 301.582 747.7C316.896 732.075 332.291 716.531 347.767 701.066L511.516 536.275Z"/><path fill="#2D2D2D" d="M511.823 593.321C515.608 595.113 540.716 621.646 546.309 627.231C583.082 663.614 619.633 700.221 655.96 737.049C660.979 742.098 688.922 768.516 690.575 772.679C689.906 774.055 687.395 776.971 686.28 778.105C652.256 812.735 617.38 846.611 583.095 880.951L537.047 927.246C533.315 930.995 517.12 947.75 514.039 949.349C512.304 949.191 510.631 949.069 509.306 947.888C499.793 939.41 491.311 929.59 482.388 920.633L424.666 862.735L357.362 794.802C350.529 787.824 343.326 781.083 336.448 774.146C335.269 772.956 335.129 772.003 334.987 770.442C339.371 764.908 347.211 757.525 352.267 752.329C367.806 736.365 384.227 720.967 399.896 705.138C428.202 676.215 456.747 647.527 485.529 619.077C489.972 614.722 494.38 610.331 498.751 605.904C502.642 601.895 507.343 596.24 511.823 593.321Z"/><path fill="#FEFEFE" d="M511.117 602.219C512.633 602.485 513.932 603.667 514.981 604.73C525.001 614.89 535.136 624.936 545.217 635.036L619.432 709.548L656.545 746.827C663.221 753.462 677.289 766.622 682.092 773.563C680.641 774.74 679.097 776.128 677.664 777.358C673.209 775.926 668.671 774.765 664.075 773.882C582.63 757.891 509.429 813.951 494.456 893.884C493.086 903.252 492.603 911.292 492.49 920.686C470.686 900.754 449.177 878.326 428.406 857.252L343.124 771.443C349.332 763.931 364.033 749.858 371.25 742.857C380.699 733.558 390.066 724.176 399.35 714.713L486.873 626.887C495.061 618.706 502.881 610.303 511.117 602.219Z"/><path fill="#F9946B" d="M631.323 804.719C636.64 804.235 644.608 804.823 650.033 805.13C642.517 813.967 627.587 827.913 618.825 836.77L535.818 919.135L526.159 928.532C525.917 920.193 525.574 910.422 526.483 902.209C528.861 880.743 538.906 858.936 553.033 842.688C573.026 819.69 601.175 806.824 631.323 804.719Z"/><path fill="#FEFEFE" d="M628.758 778.205C640.985 776.496 660.383 779.694 672.546 782.707C666.795 788.395 661.209 794.379 655.317 799.888C648.451 798.849 644.231 798.382 637.123 798.376C606.035 798.314 576.18 810.53 554.053 832.367C529.844 856.737 519.345 883.646 519.415 917.595C519.447 923.389 519.955 927.715 520.664 933.398C517.95 936.934 515.965 939.117 512.84 942.257C508.359 938.019 502.875 933.043 498.973 928.395C499.002 890.163 506.018 857.577 531.834 827.544C556.188 798.727 591.128 780.94 628.758 778.205Z"/><path fill="#2D2D2D" d="M253.015 269.918C253.9 270.064 254.749 270.247 255.592 270.566C257.318 271.218 423.06 437.884 439.018 453.678C445.316 459.91 494.186 506.625 495.283 511.071C495.761 513.012 495.217 514.939 494.138 516.576C491.496 520.583 487.216 524.198 483.855 527.664C474.977 536.935 465.916 546.028 456.677 554.939C438.9 572.38 421.128 590.587 403.46 608.241L314.15 697.961C302.687 709.784 291.135 721.521 279.495 733.169C274.389 738.358 269.307 743.686 264.176 748.848C262.191 750.844 259.384 751.754 256.704 752.389C249.67 752.701 246.27 749.872 241.447 745.213C233.947 737.967 226.744 730.429 219.395 723.03L177.483 680.722L92.0712 595.162L38.949 542.192C31.909 535.18 22.599 526.619 16.2531 518.789C13.5676 515.476 14.1303 508.229 17.4152 504.931C24.0815 498.239 31.1327 491.557 37.9829 484.861C48.7914 474.188 59.4965 463.41 70.0968 452.53L207.109 315.19L235.295 287.181C238.674 283.779 249.467 271.865 253.015 269.918Z"/><path fill="#FEFEFE" d="M253.363 277.835C258.342 281.552 274.721 298.952 279.922 304.136L344.159 368.383L432.424 456.35L466.947 490.641C474.013 497.689 482.16 505.475 488.721 512.856C483.436 519.501 473.786 528.48 467.599 534.668L424.422 577.407L305.327 697.583L274.546 728.546C270.444 732.711 260.943 743.478 256.414 745.682C254.098 745.805 251.664 745.909 249.88 744.216C245.632 740.182 241.537 735.926 237.418 731.764L208.765 703.037L67.5526 561.282L37.9402 531.555C33.7986 527.422 23.8859 518.751 21.0307 513.395C20.3137 512.05 22.5367 509.79 23.61 508.644C31.6363 500.07 40.1804 491.965 48.4911 483.657C65.5776 466.43 82.7542 449.292 100.02 432.246L253.363 277.835Z"/><path fill="#2D2D2D" d="M253.429 336.357C254.499 336.351 255.578 336.336 256.373 337.123C259.737 340.457 263.211 344.123 266.536 347.466L294.514 375.504L372.319 452.68C378.783 459.095 431.485 510.866 431.855 514.099C427.525 519.903 414.068 532.673 408.518 538.238L366.88 580.379L286.374 662.318L267.008 682.022C264.139 684.95 258.377 691.296 255.254 693.298C250.984 689.894 239.399 677.664 235.284 673.366L204.81 641.917C191.246 628.059 78.729 517.849 76.8229 512.938C78.8168 508.231 134.315 454.888 141.93 447.378L204.625 384.974C214.397 375.408 224.06 365.24 233.901 355.662C239.953 349.771 246.974 341.512 253.429 336.357Z"/><path fill="#FEFEFE" d="M253.838 344.817C256.514 345.8 408.621 497.549 423.569 513.747C414.357 522.803 405.661 531.813 396.253 540.933C390.74 535.642 358.15 500.302 354.058 499.458C352.517 500.173 351.116 502.089 350.13 503.49C329.083 533.385 309.364 565.763 286.306 594.15C276.595 584.532 266.499 573.777 257.053 563.836C245.608 551.715 234.286 539.327 222.554 527.529C220.216 526.823 218.288 528.285 217.055 530.088C206.23 545.91 195.945 562.113 184.46 577.497C179.456 584.199 174.454 590.809 169.523 597.546C163.046 590.668 155.707 584.213 148.992 577.485L84.9447 513.145C89.5485 507.909 98.5108 499.78 103.749 494.544L146.463 452.2L253.838 344.817Z"/><path fill="#2D2D2D" d="M190.134 438.292C206.405 436.565 220.992 448.359 222.712 464.63C224.431 480.901 212.631 495.484 196.359 497.196C180.098 498.907 165.527 487.115 163.808 470.855C162.09 454.594 173.875 440.018 190.134 438.292Z"/><path fill="#F9946B" d="M189.604 444.856C202.353 442.824 214.327 451.535 216.318 464.291C218.309 477.046 209.559 488.992 196.797 490.942C184.093 492.882 172.214 484.181 170.232 471.483C168.25 458.786 176.913 446.878 189.604 444.856Z"/><path fill="#2D2D2D" d="M279.059 435.232C279.559 435.253 281.403 435.319 281.722 435.6C288.23 441.333 288.07 447.216 295.849 452.672C301.453 453.076 310.509 451.61 314.828 453.036C318.043 457.008 303.947 463.891 300.759 467.011C298.093 475.562 301.326 486.263 298.098 491.235C291.857 490.506 289.982 480.383 282.049 474.656C278.03 474.334 264.455 475.435 263.525 471.978C265.702 466.816 276.208 464.016 278.467 458.561C280.93 452.614 276.274 439.952 279.059 435.232Z"/><path fill="#F9946B" d="M285.75 451.781C289.185 454.798 289.541 458.991 295.707 458.713C297.311 458.641 300.382 458.911 302.099 458.967C293.249 465.422 293.373 466.374 293.394 477.189C292.78 476.693 291.559 475.083 291.066 474.43C287.081 469.148 284.332 469.044 278.218 468.465C284.024 463.894 286.072 459.219 285.75 451.781Z"/><path fill="#2D2D2D" d="M354.442 507.866C366.066 517.599 381.733 534.914 391.851 546.45C349.712 588.706 307.787 631.176 266.08 673.859L255.426 684.707C251.47 681.562 242.318 671.172 238.009 666.837C243.089 661.398 248.851 653.862 253.599 647.93C265.371 633.313 276.731 618.369 287.665 603.114C296.247 591.283 305.193 579.803 313.723 567.821C327.577 548.029 341.152 528.041 354.442 507.866Z"/><path fill="#2D2D2D" d="M221.663 534.793C226.07 539.104 230.352 544.143 234.637 548.653C250.703 565.56 266.477 582.606 282.918 599.157C266.812 622.116 252.162 640.286 234.33 661.664L233.622 662.014C230.275 660.313 201.943 630.293 197.395 625.645L173.677 601.86C190.993 580.376 206.053 557.489 221.663 534.793Z"/><path fill="#2D2D2D" d="M604.362 0.822546C606.518 2.38992 613.985 10.1443 616.342 12.5117C624.67 20.9584 633.067 29.3363 641.533 37.6446C684.315 79.2321 726.205 122.095 768.796 164.02C783.828 149.651 798.426 134.38 813.158 119.716L902.731 30.6638C910.82 22.6209 923.14 9.49962 931.967 1.81187C932.703 1.17098 934.415 1.70407 935.284 2.00642C937.791 4.53884 936.875 6.09409 934.905 8.31872C929.34 13.9933 923.14 19.6863 917.413 25.4072L842.017 100.231C833.852 108.337 772.849 170.54 768.798 171.511C767.571 170.89 766.414 170.14 765.346 169.275C759.51 164.62 747.577 152.336 742.01 146.723C729.052 133.502 716.007 120.367 702.876 107.319L625.255 30.2425C618.067 23.0082 610.63 15.7737 603.217 8.77133C601.987 7.60927 601.677 6.40747 601.502 4.79976C601.935 2.76465 602.752 2.3345 604.362 0.822546Z"/></svg>