<?xml version="1.0" encoding="utf-8" ?><svg xmlns="http://www.w3.org/2000/svg" xmlns:xlink="http://www.w3.org/1999/xlink" width="1024" height="1024" viewBox="0 0 1024 1024"><path fill="#E8DFD0" d="M0 0L1024 0L1024 1024L0 1024L0 0Z"/><path fill="#2D2D2D" d="M500.869 30.0647C501.124 30.0597 501.379 30.0501 501.634 30.0497C508.462 30.0388 535.837 46.0026 540.771 51.1286C543.418 53.8779 543.825 56.8483 544.196 60.5024C544.863 67.0681 544.464 73.95 544.472 80.5617L544.496 116.512L544.557 232.621C557.86 224.514 572.659 216.902 586.39 209.326C607.782 197.29 629.242 185.377 650.769 173.585L718.681 135.979C729.933 129.687 741.058 123.085 752.434 117.028C754.69 115.826 758.631 113.252 761.22 113.286C767.682 113.371 794.314 128.134 799.142 132.9C800.934 134.668 802.203 136.385 802.544 138.903C803.32 144.62 802.799 150.956 802.81 156.734L802.871 191.687L802.543 318.529C834.775 299.484 869.196 281.799 901.884 263.155C914.723 256.466 927.184 247.653 940.526 242.158C944.475 240.532 952.935 244.722 956.427 246.87C962.485 250.598 982.433 258.555 983.027 266.295C984.042 279.529 983.579 293.524 983.618 306.733L983.99 401.215L983.996 597.139L984.158 684.665C984.133 699.493 984.124 714.309 983.935 729.151C983.843 736.398 978.376 747.52 971.874 751.259C964.578 755.456 957.061 759.591 949.715 763.744C928.57 775.688 907.32 787.444 885.966 799.011L717.425 892.42L607.884 953.119C592.344 961.751 575.614 972.079 559.483 979.093C553.782 981.572 528.017 965.911 522.31 961.947C514.745 955.406 516.478 941.433 516.491 932.116L516.537 898.386L516.528 783.799C473.539 807.154 429.664 829.9 386.39 852.815L339.843 877.528C335.237 880 307.715 895.554 304.489 895.057C295.011 893.599 275.238 882.3 267.523 875.547C266.401 874.565 264.319 871.816 264.191 870.113C263.273 858 263.652 843.899 263.627 831.762L263.532 746.124C248.575 753.961 232.872 763.435 217.953 771.693L127.625 820.767C119.021 825.341 110.477 830.028 101.997 834.827C96.005 838.204 89.6152 842.111 83.3306 844.697C78.782 846.568 76.2844 846.493 72.0999 844.251C65.6841 840.812 39.4178 828.401 37.7475 821.787C36.6527 817.453 37.0456 797.109 37.0582 791.661L37.2725 732.124L37.3808 555.661L37.3777 385.291L37.3807 329.97C37.3854 320.116 37.2982 310.113 37.5748 300.253C37.6946 295.985 40.7527 290.48 42.7491 286.738C43.8639 284.648 47.5638 281.469 49.6719 280.263C63.0875 272.584 76.6368 265.04 90.1215 257.482L158.852 218.945L368.754 102.08L447.177 58.8278L472.69 44.6506C479.41 40.8397 494.18 31.7173 500.869 30.0647Z"/><path fill="#E8DFD0" d="M973.712 327.992L974.18 328.05C974.909 329.599 974.627 420.28 974.66 431.198L975.028 649.518L975.198 699.257C975.255 710.469 975.961 723.534 974.279 734.413C973.145 741.751 955.996 749.774 949.809 753.243L917.867 771.041C886.852 788.615 855.698 805.945 824.409 823.028L626.638 932.675L576.774 960.004C572.429 962.417 568.116 965.291 563.78 967.614C559.125 970.107 557.757 970.824 553.028 969.422C548.12 963.846 549.638 955.501 549.663 948.297L549.76 920.711L549.777 834.519L550.042 561.874C586.31 541.468 622.785 521.43 659.46 501.764L821.712 412.388C872.713 384.863 923.383 356.729 973.712 327.992Z"/><path fill="#2D2D2D" d="M745.567 495.112C747.119 494.259 748.022 493.5 749.737 493.708C751.202 495.121 751.024 496.839 751.031 499.134C751.119 530.485 751.137 561.901 751.04 593.25C751.062 594.549 751.211 596.854 750.135 597.465C742.297 601.922 732.121 607.455 724.355 611.8L614.945 672.783C611.105 674.916 589.283 687.495 587.786 687.656C587.065 687.334 586.498 687.14 585.857 686.701C585.346 683.265 585.495 675.204 585.481 671.472L585.433 643.31L585.438 604.573C585.441 600.545 585.158 587.148 585.986 584C591.764 579.422 604.777 572.809 611.779 569.01L650.623 547.779C682.112 530.609 714.032 511.545 745.567 495.112Z"/><path fill="#E8DFD0" d="M585.986 584C591.764 579.422 604.777 572.809 611.779 569.01L650.623 547.779C682.112 530.609 714.032 511.545 745.567 495.112C744.972 496.319 743.556 498.99 743.132 500.124C741.747 502.06 740.429 504.048 738.798 505.773C734.535 511.727 723.676 523.606 718.482 529.649L686.223 567.55C680.69 574.069 674.5 580.957 669.234 587.568C647.466 586.923 625.681 585.63 603.913 584.9C601.465 584.818 598.835 584.788 596.422 584.52L588.567 584.514L585.986 584Z"/><path fill="#FCA160" d="M585.986 584C591.764 579.422 604.777 572.809 611.779 569.01L650.623 547.779C682.112 530.609 714.032 511.545 745.567 495.112C744.972 496.319 743.556 498.99 743.132 500.124C741.747 502.06 740.429 504.048 738.798 505.773C736.184 506.405 719.018 516.606 715.764 518.447L668.973 544.62L619.146 571.843C612.431 575.543 602.739 580.518 596.422 584.52L588.567 584.514L585.986 584Z"/><path fill="#E8DFD0" d="M585.986 584L588.567 584.514C588.538 586.31 588.303 587.397 589.295 588.861L589.829 589.165C614.465 589.66 639.461 591.252 664.186 592.088L615.489 648.711C608.727 656.483 595.576 670.461 590.151 678.019C589.286 679.974 589.518 679.509 587.238 679.748C585.666 681.699 585.92 684.196 585.857 686.701C585.346 683.265 585.495 675.204 585.481 671.472L585.433 643.31L585.438 604.573C585.441 600.545 585.158 587.148 585.986 584Z"/><defs><linearGradient id="gradient_0" gradientUnits="userSpaceOnUse" x1="604.3468" y1="625.1983" x2="569.6532" y2="640.3017"><stop offset="0" stop-color="#FFD092"/><stop offset="1" stop-color="#FFE6CE"/></linearGradient></defs><path fill="url(#gradient_0)" d="M585.986 584L588.567 584.514C588.538 586.31 588.303 587.397 589.295 588.861L589.829 589.165C590.337 596.725 590.092 606.528 590.081 614.284L590.013 656.828C590.004 662.667 589.716 672.343 590.151 678.019C589.286 679.974 589.518 679.509 587.238 679.748C585.666 681.699 585.92 684.196 585.857 686.701C585.346 683.265 585.495 675.204 585.481 671.472L585.433 643.31L585.438 604.573C585.441 600.545 585.158 587.148 585.986 584Z"/><path fill="#E8DFD0" d="M745.567 495.112C747.119 494.259 748.022 493.5 749.737 493.708C751.202 495.121 751.024 496.839 751.031 499.134C751.119 530.485 751.137 561.901 751.04 593.25C749.868 592.565 747.744 591.693 746.447 591.111C722.493 589.866 698.531 588.802 674.561 587.922C698.605 560.061 722.506 532.076 746.26 503.968C745.75 502.027 745.814 500.861 744.513 499.723L743.132 500.124C743.556 498.99 744.972 496.319 745.567 495.112Z"/><path fill="#FFCC9A" d="M745.567 495.112C747.119 494.259 748.022 493.5 749.737 493.708C751.202 495.121 751.024 496.839 751.031 499.134C751.119 530.485 751.137 561.901 751.04 593.25C749.868 592.565 747.744 591.693 746.447 591.111C747.003 569.968 746.154 548.395 746.517 527.202C746.638 520.142 746.876 510.922 746.26 503.968C745.75 502.027 745.814 500.861 744.513 499.723L743.132 500.124C743.556 498.99 744.972 496.319 745.567 495.112Z"/><path fill="#E8DFD0" d="M670.048 592.477C680.626 592.296 691.879 593.02 702.481 593.528L743.868 595.389C738.3 599.346 717.805 610.179 711.142 613.87L643.766 651.266C627.739 660.474 611.639 669.553 595.467 678.503L629.703 638.878C642.874 623.408 656.182 607.337 670.048 592.477Z"/><path fill="#2D2D2D" d="M585.48 801.212C593.037 796.614 603.595 791.18 611.49 786.813L665.239 756.966L720.003 726.515C729.755 721.039 740.875 714.064 750.693 709.173C751.239 712.804 751.02 721.981 751.019 726.034L750.998 757.994L750.972 793.745C750.976 798.85 751.268 809.107 750.798 813.794C749.651 815.187 749.509 815.115 747.888 815.801C737.894 822.179 722.638 829.953 711.929 835.992L633.59 879.577L604.537 895.471C600.567 897.664 593.229 901.492 589.634 903.987C587.699 904.719 587.874 904.909 586.4 904.322C584.312 900.81 585.325 818.283 585.416 806.841L585.48 801.212Z"/><path fill="#E8DFD0" d="M668.277 809.554C691.17 810.193 714.056 811.039 736.933 812.094L742.597 812.549L743.166 812.629C745.804 812.98 747.341 812.987 749.946 812.994C749.154 814.064 748.223 814.678 747.173 815.498L747.888 815.801C737.894 822.179 722.638 829.953 711.929 835.992L633.59 879.577L604.537 895.471C600.567 897.664 593.229 901.492 589.634 903.987C589.664 902.478 589.538 900.484 589.489 898.934C592.413 897.227 596.031 893.684 598.582 891.328C602.087 886.171 612.102 875.458 616.461 870.144C633.021 849.953 652.24 830.032 668.277 809.554Z"/><path fill="#FCA160" d="M742.597 812.549L743.166 812.629C745.804 812.98 747.341 812.987 749.946 812.994C749.154 814.064 748.223 814.678 747.173 815.498L747.888 815.801C737.894 822.179 722.638 829.953 711.929 835.992L633.59 879.577L604.537 895.471C600.567 897.664 593.229 901.492 589.634 903.987C589.664 902.478 589.538 900.484 589.489 898.934C592.413 897.227 596.031 893.684 598.582 891.328C602.268 889.89 610.814 885.067 614.686 882.966L648.488 864.341C670.416 852.384 692.271 840.294 714.051 828.07C723.113 823.041 733.962 817.771 742.597 812.549Z"/><path fill="#E8DFD0" d="M585.416 806.841C586.816 806.902 588.552 806.932 589.919 807.048C614.269 807.306 638.611 808.031 662.933 809.223L625.255 852.886C613.249 866.985 602.552 880.061 590.081 893.922C589.109 895.553 588.304 896.868 588.436 898.766L589.489 898.934C589.538 900.484 589.664 902.478 589.634 903.987C587.699 904.719 587.874 904.909 586.4 904.322C584.312 900.81 585.325 818.283 585.416 806.841Z"/><path fill="#FFCC9A" d="M585.416 806.841C586.816 806.902 588.552 806.932 589.919 807.048L589.993 864.839C589.992 872.246 589.524 886.973 590.081 893.922C589.109 895.553 588.304 896.868 588.436 898.766L589.489 898.934C589.538 900.484 589.664 902.478 589.634 903.987C587.699 904.719 587.874 904.909 586.4 904.322C584.312 900.81 585.325 818.283 585.416 806.841Z"/><path fill="#E8DFD0" d="M750.693 709.173C751.239 712.804 751.02 721.981 751.019 726.034L750.998 757.994L750.972 793.745C750.976 798.85 751.268 809.107 750.798 813.794C749.651 815.187 749.509 815.115 747.888 815.801L747.173 815.498C748.223 814.678 749.154 814.064 749.946 812.994C747.341 812.987 745.804 812.98 743.166 812.629L742.597 812.549L736.933 812.094C740.718 811.717 744.109 813.091 746.612 810.826C746.917 809.107 746.877 809.212 746.481 807.493C722.223 806.847 696.631 806.337 672.415 804.959C679.501 797.198 687.063 789.457 693.978 781.603C711.411 761.801 728.3 741.775 745.948 722.146C751.838 720.896 750.523 713.871 750.693 709.173Z"/><path fill="#FFCC9A" d="M750.693 709.173C751.239 712.804 751.02 721.981 751.019 726.034L750.998 757.994L750.972 793.745C750.976 798.85 751.268 809.107 750.798 813.794C749.651 815.187 749.509 815.115 747.888 815.801L747.173 815.498C748.223 814.678 749.154 814.064 749.946 812.994C747.341 812.987 745.804 812.98 743.166 812.629L742.597 812.549L736.933 812.094C740.718 811.717 744.109 813.091 746.612 810.826C746.917 809.107 746.877 809.212 746.481 807.493C745.813 802.931 746.13 789.441 746.138 784.244L746.221 740.586C746.231 736.844 746.573 724.95 745.948 722.146C751.838 720.896 750.523 713.871 750.693 709.173Z"/><path fill="#E8DFD0" d="M740.537 720.427L741.12 720.553C740.915 721.808 675.28 794.58 667.514 804.809C643.979 803.72 620.431 802.959 596.875 802.525C595.46 802.56 595.31 802.528 593.909 802.272L594.011 801.705C627.978 783.158 661.836 764.412 695.583 745.468C710.346 737.239 725.683 728.342 740.537 720.427Z"/><path fill="#2D2D2D" d="M938.257 386.799L945.017 383.069C945.148 405.921 945.139 428.773 944.99 451.625C944.98 461.159 945.529 479.522 944.631 488.53C907.592 509.044 870.678 529.783 833.892 550.746C817.409 560.175 800.884 569.47 784.673 579.361C783.463 580.1 782.706 580.259 781.371 580.069C780.382 575.893 780.57 478.867 781.415 474.876C796.664 465.069 817.122 454.798 833.318 445.696C868.38 425.99 902.796 405.76 938.257 386.799Z"/><path fill="#E8DFD0" d="M938.257 386.799L939.517 387.368L939.09 388.195C938.646 389.071 938.545 389.212 938.474 390.214C937.746 391.659 934.557 395.76 933.319 396.718C925.476 407.03 916.12 416.411 907.696 426.292C892.806 443.758 877.934 461.369 862.651 478.497C841.7 477.238 812.061 475.692 791.458 475.914L787.94 476.516C785.495 475.624 784.053 476.232 781.415 474.876C796.664 465.069 817.122 454.798 833.318 445.696C868.38 425.99 902.796 405.76 938.257 386.799Z"/><path fill="#FCA160" d="M938.257 386.799L939.517 387.368L939.09 388.195C938.646 389.071 938.545 389.212 938.474 390.214C937.746 391.659 934.557 395.76 933.319 396.718C929.775 397.922 923.384 401.961 919.813 403.785C907.045 410.307 894.821 417.791 882.318 424.799C861.171 436.487 840.087 448.289 819.066 460.202C811.622 464.423 798.4 471.399 791.458 475.914L787.94 476.516C785.495 475.624 784.053 476.232 781.415 474.876C796.664 465.069 817.122 454.798 833.318 445.696C868.38 425.99 902.796 405.76 938.257 386.799Z"/><path fill="#E8DFD0" d="M781.371 580.069C780.382 575.893 780.57 478.867 781.415 474.876C784.053 476.232 785.495 475.624 787.94 476.516C786.609 477.633 785.906 478.186 785.597 480.008C809.96 480.558 834.314 481.472 858.649 482.751C844.281 501.019 826.651 520.324 811.38 538.25C806.127 544.378 800.92 550.544 795.758 556.748C792.996 560.102 788.402 566.149 785.566 568.873C783.899 569.195 783.019 570.528 781.597 571.896C781.531 574.454 781.529 577.559 781.371 580.069Z"/><path fill="#FFCC9A" d="M781.371 580.069C780.382 575.893 780.57 478.867 781.415 474.876C784.053 476.232 785.495 475.624 787.94 476.516C786.609 477.633 785.906 478.186 785.597 480.008C784.819 498.521 785.608 518.965 785.293 537.663C785.204 542.927 784.968 564.514 785.566 568.873C783.899 569.195 783.019 570.528 781.597 571.896C781.531 574.454 781.529 577.559 781.371 580.069Z"/><path fill="#E8DFD0" d="M938.257 386.799L945.017 383.069C945.148 405.921 945.139 428.773 944.99 451.625C944.98 461.159 945.529 479.522 944.631 488.53C944.347 486.203 944.847 485.129 944.227 482.806C942.798 481.517 942.798 481.915 940.449 481.606C916.648 481.552 892.207 479.471 868.367 478.776C888.205 455.115 909.039 432.084 929.305 408.778C932.979 404.554 936.47 399.997 940.378 396.017C941.049 394.503 941.921 389.897 940.097 388.974L938.474 390.214C938.545 389.212 938.646 389.071 939.09 388.195L939.517 387.368L938.257 386.799Z"/><path fill="#FFCC9A" d="M938.257 386.799L945.017 383.069C945.148 405.921 945.139 428.773 944.99 451.625C944.98 461.159 945.529 479.522 944.631 488.53C944.347 486.203 944.847 485.129 944.227 482.806C942.798 481.517 942.798 481.915 940.449 481.606C940.361 454.469 941.299 422.765 940.378 396.017C941.049 394.503 941.921 389.897 940.097 388.974L938.474 390.214C938.545 389.212 938.646 389.071 939.09 388.195L939.517 387.368L938.257 386.799Z"/><path fill="#E8DFD0" d="M864.365 483.323C889.077 484.18 913.768 485.758 938.437 486.512C932.67 490.467 916.772 498.835 909.769 502.829C885.439 516.654 860.985 530.258 836.409 543.64C820.431 552.728 804.553 561.992 788.778 571.43C796.224 563.665 806.347 551.129 813.643 542.648L864.365 483.323Z"/><path fill="#2D2D2D" d="M780.99 691.874C782.87 690.483 791.502 686.05 794.013 684.696C802.11 680.315 810.169 675.861 818.186 671.335L908.922 620.725C915.962 616.804 938.268 603.225 944.442 601.146C945.515 608.057 945 630.213 944.987 638.023L944.946 706.401C942.765 707.612 933.266 713.045 931.494 713.703C928.046 715.781 924.963 717.46 921.396 719.336C919.893 720.321 919.044 720.908 917.428 721.662C896.211 734.286 875.182 745.147 853.654 757.051C842.586 763.161 831.469 769.182 820.304 775.114C815.103 777.943 806.969 782.841 801.876 785.235C798.56 787.568 784.921 794.669 780.956 796.761C780.684 761.799 780.695 726.836 780.99 691.874Z"/><path fill="#E8DFD0" d="M780.99 691.874L781.524 692.507C787.142 699.27 782.657 696.523 791.762 697.884L785.257 697.864L785.152 754.031C785.163 763.057 784.862 775.191 785.412 783.956C787.095 785.835 787.883 785.086 790.095 784.157C794.567 779.737 798.601 774.931 802.798 770.262C822.837 747.973 841.399 722.797 862.307 701.39C886.415 701.637 912.282 704.086 936.097 703.998C928.195 709.027 918.899 714.13 910.695 718.8C913.432 722.468 914.602 720.042 917.428 721.662C896.211 734.286 875.182 745.147 853.654 757.051C842.586 763.161 831.469 769.182 820.304 775.114C815.103 777.943 806.969 782.841 801.876 785.235C798.56 787.568 784.921 794.669 780.956 796.761C780.684 761.799 780.695 726.836 780.99 691.874Z"/><path fill="#FFCC9A" d="M780.99 691.874L781.524 692.507C787.142 699.27 782.657 696.523 791.762 697.884L785.257 697.864L785.152 754.031C785.163 763.057 784.862 775.191 785.412 783.956C787.095 785.835 787.883 785.086 790.095 784.157C791.64 783.847 796.242 781.609 797.996 780.816C804.337 780.287 834.472 760.042 837.395 761.274C837.667 762.138 838.128 762.892 837.693 763.425C832.838 769.386 805.1 780.149 801.876 785.235C798.56 787.568 784.921 794.669 780.956 796.761C780.684 761.799 780.695 726.836 780.99 691.874Z"/><path fill="#FCA160" d="M797.996 780.816C806.726 775.182 822.421 767.352 831.908 762.172C858.302 747.955 884.566 733.497 910.695 718.8C913.432 722.468 914.602 720.042 917.428 721.662C896.211 734.286 875.182 745.147 853.654 757.051C842.586 763.161 831.469 769.182 820.304 775.114C815.103 777.943 806.969 782.841 801.876 785.235C805.1 780.149 832.838 769.386 837.693 763.425C838.128 762.892 837.667 762.138 837.395 761.274C834.472 760.042 804.337 780.287 797.996 780.816Z"/><path fill="#E8DFD0" d="M944.442 601.146C945.515 608.057 945 630.213 944.987 638.023L944.946 706.401C942.765 707.612 933.266 713.045 931.494 713.703C928.046 715.781 924.963 717.46 921.396 719.336C919.893 720.321 919.044 720.908 917.428 721.662C914.602 720.042 913.432 722.468 910.695 718.8C918.899 714.13 928.195 709.027 936.097 703.998C937.639 703.547 938.502 703.274 939.986 702.685C940.817 701.069 940.561 701.585 940.361 699.481C916.064 699.009 891.819 697.577 867.545 696.656C875.011 687.014 884.399 676.708 892.429 667.327L940.333 611.452C941.197 610.176 943.241 603.689 944.442 601.146Z"/><defs><linearGradient id="gradient_1" gradientUnits="userSpaceOnUse" x1="893.16919" y1="680.65723" x2="962.66724" y2="648.75403"><stop offset="0" stop-color="#FFA160"/><stop offset="1" stop-color="#FFCB9B"/></linearGradient></defs><path fill="url(#gradient_1)" d="M944.442 601.146C945.515 608.057 945 630.213 944.987 638.023L944.946 706.401C942.765 707.612 933.266 713.045 931.494 713.703C928.046 715.781 924.963 717.46 921.396 719.336C919.893 720.321 919.044 720.908 917.428 721.662C914.602 720.042 913.432 722.468 910.695 718.8C918.899 714.13 928.195 709.027 936.097 703.998C937.639 703.547 938.502 703.274 939.986 702.685C940.817 701.069 940.561 701.585 940.361 699.481C939.711 696.064 940.116 679.736 940.054 675.301C939.763 654.202 940.7 632.502 940.333 611.452C941.197 610.176 943.241 603.689 944.442 601.146Z"/><path fill="#FCA160" d="M921.396 719.336C920.553 718.803 920.921 719.154 920.522 718.03C921.766 715.65 928.779 714.217 931.494 713.703C928.046 715.781 924.963 717.46 921.396 719.336Z"/><path fill="#E8DFD0" d="M785.257 697.864L791.762 697.884C811.177 698.218 836.776 699.354 856.242 700.83C841.034 718.839 825.705 736.744 810.256 754.546C802.542 763.545 793.022 775.577 785.412 783.956C784.862 775.191 785.163 763.057 785.152 754.031L785.257 697.864Z"/><path fill="#E8DFD0" d="M933.437 611.579C933.62 611.722 933.562 612.027 933.603 612.256C931.89 614.911 929.993 616.883 927.911 619.237C909.453 640.112 892.089 661.892 873.347 682.53C869.492 686.775 865.362 691.592 861.96 696.19C839.951 695.78 816.229 694.204 794.124 693.147C792.367 693.147 791.332 693.268 789.652 692.701C789.37 693.34 918.404 620.166 933.437 611.579Z"/><path fill="#2D2D2D" d="M747.48 603.589L751.022 601.838L751.031 670.619C751.025 678.323 751.515 697.386 750.806 704.265C737.799 712.224 721.867 720.534 708.282 728.096L636.201 768.142L605.844 785.118C600.31 788.221 591.804 793.252 586.147 795.388C585.414 785.929 585.674 770.944 585.609 760.894L585.47 694.541C590.27 691.177 598.955 686.587 604.353 683.557L637.222 665.162L747.48 603.589Z"/><path fill="#E8DFD0" d="M747.48 603.589L751.022 601.838L751.031 670.619C751.025 678.323 751.515 697.386 750.806 704.265L750.073 701.569C748.488 700.197 748.679 700.597 746.318 700.105C722.629 698.432 694.946 698.074 671.148 697.674C677.548 689.918 686.309 680.781 693.124 673.058L746.284 612.956C747.778 609.866 747.576 606.923 747.48 603.589Z"/><path fill="#FFCC9A" d="M747.48 603.589L751.022 601.838L751.031 670.619C751.025 678.323 751.515 697.386 750.806 704.265L750.073 701.569C748.488 700.197 748.679 700.597 746.318 700.105C746.356 671.898 747.108 640.917 746.284 612.956C747.778 609.866 747.576 606.923 747.48 603.589Z"/><path fill="#E8DFD0" d="M667.329 702.446C690.154 701.692 718.538 704.076 741.883 704.475C729.969 710.243 716.875 718.099 705.19 724.59L641.679 759.75C625.449 768.683 609.317 777.791 593.283 787.072C599.375 778.629 609.78 767.12 616.685 759.052C633.03 739.71 649.919 720.834 667.329 702.446Z"/><path fill="#E8DFD0" d="M739.027 613.553L739.423 614.068C732.103 622.93 723.622 631.383 716.116 640.122C699.734 659.195 682.454 677.905 666.179 697.001C644.564 697.157 618.534 695.667 596.375 695.057C595.432 695.006 595.284 694.931 594.358 694.719C595.259 693.55 637.467 670.361 641.881 667.915C674.386 650.016 706.769 631.895 739.027 613.553Z"/><path fill="#E8DFD0" d="M590.052 699.644C613.683 699.995 637.307 700.749 660.913 701.904C649.435 715.739 634.904 730.957 622.782 745.048C611.943 757.956 600.625 770.466 590.038 783.504L590.052 699.644Z"/><path fill="#2D2D2D" d="M941.073 495.13C942.532 494.274 943.353 493.81 944.894 493.129C945.293 525.754 945.587 562.867 944.792 595.401C940.957 598.439 930.537 603.63 925.699 606.285L893.252 624.363L786.575 684.334C785.137 685.36 782.649 686.543 781.01 687.388C780.804 653.712 780.795 620.035 780.984 586.359C782.641 585.051 783.76 584.43 785.597 583.354L941.073 495.13Z"/><path fill="#E8DFD0" d="M941.073 495.13C942.532 494.274 943.353 493.81 944.894 493.129C945.293 525.754 945.587 562.867 944.792 595.401C942.921 594.232 941.809 592.592 940.391 590.869C916.042 590.711 890.738 589.708 866.322 589.036C885.676 568.992 901.846 545.931 920.568 525.28C927.268 517.889 933.691 509.963 940.329 502.456C942.071 500.456 941.819 497.522 941.073 495.13Z"/><path fill="#FFCC9A" d="M941.073 495.13C942.532 494.274 943.353 493.81 944.894 493.129C945.293 525.754 945.587 562.867 944.792 595.401C942.921 594.232 941.809 592.592 940.391 590.869C940.213 573.485 940.178 556.1 940.285 538.715C940.384 527.727 940.901 513.204 940.329 502.456C942.071 500.456 941.819 497.522 941.073 495.13Z"/><path fill="#E8DFD0" d="M780.984 586.359C782.641 585.051 783.76 584.43 785.597 583.354C785.235 585.856 784.375 589.304 785.379 591.447C808.883 591.716 832.83 592.944 856.407 593.466C832.8 620.374 809.546 648.012 785.527 674.436C784.584 677.762 784.782 681.347 786.575 684.334C785.137 685.36 782.649 686.543 781.01 687.388C780.804 653.712 780.795 620.035 780.984 586.359Z"/><path fill="#FFCC9A" d="M780.984 586.359C782.641 585.051 783.76 584.43 785.597 583.354C785.235 585.856 784.375 589.304 785.379 591.447C785.144 609.72 785.052 627.996 785.104 646.271C785.105 653.05 784.771 668.346 785.527 674.436C784.584 677.762 784.782 681.347 786.575 684.334C785.137 685.36 782.649 686.543 781.01 687.388C780.804 653.712 780.795 620.035 780.984 586.359Z"/><path fill="#E8DFD0" d="M862.135 593.683C886.41 594.117 910.68 594.737 934.945 595.542C924.641 602.099 911.014 609.332 900.188 615.383L835.251 651.582C819.779 659.635 803.564 669.659 787.683 678.112C795.564 669.955 802.926 661.346 810.489 652.882C827.922 633.34 845.138 613.606 862.135 593.683Z"/><path fill="#E8DFD0" d="M930.399 506.543L930.697 506.767C928.945 509.878 922.249 516.266 919.534 519.528C900.284 542.651 880.397 565.678 861.286 588.868C839.245 588.909 813.691 587.659 791.375 587.007C790.39 587.004 790.27 586.927 789.292 586.735L789.465 586.104C802.285 577.937 819.781 569.021 833.497 561.252L930.399 506.543Z"/><path fill="#E8DFD0" d="M71.8334 371.093C76.7404 368.742 83.1115 364.874 88.0532 362.101L117.572 345.692L229.474 283.016L535.058 114.787L535.306 236.873C523.982 244.669 507.238 253.382 495.013 259.85L495.092 207.634C495.096 201.289 495.552 181.983 494.167 177.042L493.471 176.709C490.204 177.834 484.165 181.392 480.895 183.192L459.451 195.02L381.035 238.414L112.374 386.227C111.385 407.568 112.56 431.821 112.138 453.403C112.011 459.857 112.032 487.445 112.976 492.513L113.688 492.962C116.733 492.717 248.715 419.098 263.26 411.856L263.454 492.752C262.983 522.458 262.576 552.221 263.226 581.925C263.357 587.91 262.693 611.927 263.317 615.465C263.908 627.369 263.438 643.81 263.456 656.002L263.497 735.187C258.317 739.683 241.059 748.303 234.154 752.183L148.269 799.389L104.593 823.255C97.3458 827.276 86.5589 833.836 79.3162 837.046C74.8028 835.88 71.55 834.476 71.5759 829.237C71.6555 813.161 71.8145 797.085 71.8271 781.008L71.8171 675.973L71.8334 371.093Z"/><path fill="#FCA160" d="M219.408 487.589C224.584 484.283 232.045 481.789 237.82 479.942C237.599 484.337 233.515 501.405 234.647 503.698C236.304 507.053 246.804 508.413 250.314 509.37C253.7 505.865 260.398 496.879 263.454 492.752C262.983 522.458 262.576 552.221 263.226 581.925C263.357 587.91 262.693 611.927 263.317 615.465C262.266 616.148 261.004 617.404 260.442 618.478C255.103 628.678 245.759 639.176 240.284 648.917C242.149 654.734 245.394 661.444 247.985 667.032C244.765 671.201 232.552 683.604 228.507 687.128C224.474 681.121 223.395 675.563 218.961 669.797C216.296 671.325 211.786 674.831 209.74 675.828C196.12 682.46 193.754 686.476 191.68 701.503C191.39 703.598 190.183 708.393 189.594 710.984C183.04 713.421 177.062 715.414 170.268 717.036C170.166 710.018 174.864 693.128 173.037 689.312C170.109 688.501 165.392 688.51 162.215 688.05C159.523 687.661 157.245 686.906 154.65 686.11C149.037 691.67 142.291 704.447 135.871 711.601C131.734 708.24 127.618 704.855 123.521 701.446C128.38 692.045 135.139 682.798 139.615 673.592C135.316 666.954 134.829 662.113 131.397 656.203C126.337 653.865 115.794 666.253 110.365 665.343C108.699 663.307 109.467 648.409 109.51 644.644C114.553 639.435 127.44 632.325 129.625 626.7C131.075 622.964 136.129 602.646 134.945 599.5C132.953 597.027 124.584 596.629 120.26 595.609C121.74 589.994 128.778 574.652 132.044 569.788C136.088 569.898 146.57 572.87 148.414 571.685C152.277 569.199 163.671 550.45 166.16 546.426C164.543 540.558 162.561 534.465 160.86 528.546C164.735 524.423 175.603 512.525 179.765 510.012C183.58 510.342 183.894 522.386 188.311 525.408C189.07 525.511 189.856 525.557 190.544 525.145C193.211 523.548 196.715 520.57 199.382 519.092C216.655 509.519 212.927 503.409 219.132 488.252L219.408 487.589Z"/><path fill="#E8DFD0" d="M226.42 525.692C247.955 523.772 258.074 544.132 258.914 562.508C260.46 596.333 242.45 629.726 217.157 651.344C206.456 660.489 194.156 667.071 179.97 667.679C160.823 667.176 148.84 653.604 147.009 635.229C144.432 609.357 157.325 580.633 172.956 560.48C185.418 544.413 205.762 528.103 226.42 525.692Z"/><path fill="#E8DFD0" d="M793.493 200.05C795.514 203.671 792.354 307.929 794.405 322.989C781.704 330.093 769.088 337.348 756.561 344.753C756.707 327.218 756.753 309.682 756.7 292.146C756.695 286.955 757.433 263.279 755.137 259.985C750.478 260.503 665.567 308.845 654.801 314.782L448.759 427.447L370.56 469.65C359.955 475.476 344.398 483.554 334.508 489.863L334.495 585.383L334.511 613.209C334.516 618.556 334.317 625.855 334.977 630.985L335.634 631.451C337.401 631.357 339.685 630.11 341.27 629.253C381.203 607.663 421.142 586.075 461.144 564.612C479.786 554.61 498.682 544.946 517.135 534.615L517.033 584.717C512.894 587.334 506.164 590.696 501.727 593.074C489.839 599.433 477.903 605.703 465.922 611.885L385.992 654.449C369.329 663.362 350.845 672.837 334.698 682.405L334.649 775.154C334.639 789.403 334.005 810.333 334.841 824.096C338.656 822.675 341.151 821.311 344.771 819.395L451.581 762.287C473.154 750.846 495.556 739.233 516.799 727.25L516.754 773.346C510.378 776.489 503.199 780.872 496.776 784.34L453.488 807.534C421.546 824.623 389.517 841.548 357.402 858.308C346.718 863.951 336.065 869.652 325.443 875.412C318.965 878.948 310.924 883.708 304.275 886.521C300.624 884.626 299.736 884.008 296.54 881.464C296.216 866.087 296.505 849.61 296.501 834.11L296.489 741.568L296.472 474.404C300.06 471.771 308.682 467.2 312.867 464.875L346.301 446.481L470.144 378.374C578.292 319.597 686.077 260.155 793.493 200.05Z"/><path fill="#E8DFD0" d="M489.339 183.98L489.711 184.35C490.223 187.095 489.982 204.33 489.979 208.002L490.014 262.189C476.571 271.046 455.221 281.978 440.603 290.174L333.119 349.456C321.341 355.838 309.603 362.292 297.904 368.818C280.755 378.384 266.99 384.299 263.176 405.841C245.172 416.605 224.91 426.804 206.442 437.108L156.547 464.681C143.618 471.847 130.087 479.601 116.945 486.239L116.732 486.098C116.155 483.986 116.362 463.811 116.36 460.512L116.486 389.173L334.962 269.332L433.522 214.859C452.207 204.711 470.814 194.417 489.339 183.98Z"/><path fill="#FCA160" d="M462.968 238.407C466.99 241.051 466.111 244.842 465.956 249.172C461.801 253.767 407.359 283.018 398.787 287.772C334.786 323.559 270.55 358.924 206.083 393.865C192.482 401.326 178.921 408.858 165.4 416.461C158.603 420.266 148.264 426.424 141.343 429.406C133.291 425.067 139.817 417.219 145.221 414.126C161.987 404.532 178.988 395.353 195.95 386.112L287.598 335.748L408.445 268.82C425.498 259.388 446.14 246.675 462.968 238.407Z"/><path fill="#E8DFD0" d="M515.913 590.922L516.797 591.31C517.225 594.551 516.973 601.818 516.96 605.436L516.83 632.289L516.622 722.11C508.175 727.243 496.659 732.903 487.768 737.658L432.899 767.023C411.244 778.793 389.517 790.431 367.719 801.934C358.895 806.543 348.725 812.218 339.77 816.299L339.278 816.235C338.395 813.581 338.944 786.562 338.947 781.926L339.001 685.692C352.194 677.332 370.815 668.025 384.869 660.422L469.416 615.603C485.131 607.342 500.371 599.622 515.913 590.922Z"/><path fill="#FCA160" d="M471.942 641.925C473.08 642.041 472.553 641.857 473.448 642.71C474.199 645.006 474.481 647.155 472.059 648.609C467.977 651.06 463.711 653.254 459.513 655.505L436.398 667.949L356.418 711.124C354.617 710.465 354.216 708.116 354.827 706.796C356.372 703.461 365.774 699.407 368.826 697.748L397.128 682.428L471.942 641.925Z"/><path fill="#FCA160" d="M472.318 676.441L473.071 676.762C474.085 678.5 474.115 678.396 473.994 680.365C473.396 681.72 472.577 682.785 471.252 683.506C453.664 693.079 436.158 702.746 418.354 711.919C397.748 722.537 377.497 734.982 356.648 745.049C355.453 744.763 356.018 744.954 354.977 743.815C354.819 742.92 354.506 742.188 354.895 741.402C356.824 737.507 366.143 733.466 370.012 731.364L395.467 717.647L472.318 676.441Z"/><path fill="#FCA160" d="M458.04 718.913L458.496 719.052C459.699 720.809 459.681 724.514 457.776 725.514C450.035 729.576 442.342 733.722 434.639 737.859L356.186 779.556L355.608 779.154C354.709 777.582 354.88 775.72 354.838 773.86C365.496 767.722 377.855 761.593 388.826 755.666C411.749 743.138 434.822 730.886 458.04 718.913Z"/><path fill="#E8DFD0" d="M788.802 135.978C789.757 136.475 791.485 137.405 792.233 138.105C792.922 138.749 793.392 139.591 793.579 140.515C794.339 144.336 794.031 156.208 794.007 160.814L793.92 194.127C753.871 217.692 710.268 241.174 669.441 263.553L438.969 389.991C437.317 390.834 436.098 391.686 434.274 391.041C434.455 382.925 451.832 330.843 455.49 320.79C471.45 310.778 491.911 300.226 508.674 291.081L589.4 246.41L716.987 175.663C739.543 163.15 766.18 147.274 788.802 135.978Z"/><path fill="#E8DFD0" d="M527.551 53.4131C530.739 53.7692 534.53 55.9269 534.846 59.4543C535.376 65.3507 535.148 71.4064 535.121 77.3374L535.079 108.597C531.77 110.869 525.378 114.324 521.62 116.49C510.284 122.977 498.843 129.28 487.303 135.396L417.871 173.497C349.799 210.736 281.821 249.401 213.483 285.959C211.254 287.236 209.076 288.07 206.711 289.056C207.503 283.478 210.136 274.324 211.664 268.615C215.974 252.514 220.906 236.857 224.839 220.606C241.472 211.17 258.188 201.883 274.988 192.748L386.889 130.767L453.24 94.1326C477.367 80.6624 503.007 66.0753 527.551 53.4131Z"/><path fill="#E8DFD0" d="M967.51 264.932C977.064 265.729 974.405 282.669 974.38 289.507C974.307 300.67 974.304 311.833 974.372 322.997C952.498 334.522 930.83 347.743 909.123 359.555L683.771 482.533L678.565 485.389C684.887 461.309 691.679 437.355 698.938 413.54C752.888 384.648 806.554 355.231 859.931 325.295L935.392 282.92C945.604 277.24 957.256 270.009 967.51 264.932Z"/><path fill="#E8DFD0" d="M435.698 494.355C461.244 495.271 492.363 495.752 517.461 498.031L517.375 529.055C505.24 536.513 485.482 546.194 472.446 553.142L392.63 595.962C374.527 605.627 356.51 615.453 338.582 625.439L338.623 588.49C347.854 578.667 358.777 568.4 368.523 558.964L406.736 522.077C415.987 513.322 427.019 503.446 435.698 494.355Z"/><path fill="#E8DFD0" d="M761.438 122.415C765.063 123.383 774.595 128.522 778.732 130.58C774.628 133.242 767.154 137.053 762.544 139.646C750.429 146.549 738.234 153.313 725.964 159.936L650.915 201.537L397.261 342.41L347.901 369.776C337.451 375.49 304.171 392.284 297.888 398.759C287.117 409.86 287.497 421.111 287.513 435.461L287.568 458.125C287.604 459.454 287.652 459.403 287.221 460.645C285.595 459.898 274.847 448.622 272.897 446.632C273.077 435.223 272.811 423.197 272.71 411.779C272.516 389.942 287.935 385.068 304.145 376.186L335.993 358.516L427.666 307.955L601.019 211.491C654.144 182.17 708.953 152.78 761.438 122.415Z"/><path fill="#E8DFD0" d="M501.97 39.4764C506.6 40.0702 513.912 44.7477 517.803 47.3072C514.145 50.2215 495.513 59.9408 490.212 62.9152L412.927 105.601L146.571 253.976C130.289 262.937 114.084 272.038 97.9575 281.275C90.6129 285.428 82.8423 289.511 75.6884 293.924C60.8451 303.082 62.3053 320.059 62.273 335.172L62.237 358.665C61.9183 358.64 48.5536 350.518 46.5617 349.527C46.6457 338.43 45.137 304.417 48.1803 296.19C49.119 293.653 50.4534 290.862 52.7395 289.292C59.8314 284.42 67.971 280.53 75.5069 276.37L111.185 256.363C155.137 231.455 199.243 206.819 243.498 182.454L415.75 86.747L466.543 58.591C477.447 52.5101 490.77 44.6963 501.97 39.4764Z"/><path fill="#E8DFD0" d="M751.345 266.485C752.173 268.135 751.595 339.044 751.567 347.534C734.385 358.17 736.288 357.602 716.269 359.045C703.128 359.947 689.978 360.715 676.821 361.349C641.449 363.527 606.062 365.441 570.662 367.091L570.356 366.863C571.206 365.934 592.747 354.433 595.751 352.75L751.345 266.485Z"/><path fill="#E8DFD0" d="M941.709 251.434C945.139 251.369 955.321 256.896 959.129 258.756C950.817 263.799 939.553 269.59 930.763 274.6C901.421 291.322 871.954 307.821 842.363 324.096L664.886 422.459L593.622 461.359C576.267 470.872 558.397 480.459 541.461 490.668L541.368 547.625C541.38 548.155 541.279 548.85 541.223 549.397C540.459 549.433 528.596 540.333 526.602 539.009L526.543 482.034C533.882 476.601 556.61 465.012 565.51 460.059C598.247 441.719 631.169 423.712 664.271 406.04C684.288 395.191 705.648 383.896 725.403 372.818L807.626 326.267L884.679 283.214C903.435 272.805 923.283 262.251 941.709 251.434Z"/><path fill="#E8DFD0" d="M442.822 327.961L443.104 328.191C443.177 328.454 443.251 328.716 443.324 328.978C436.726 346.723 427.6 379.557 421.602 395.959C404.079 406.404 382.781 416.727 364.625 426.768L320.891 450.939C313.248 455.14 304.94 460.039 297.154 463.707C295.562 457.34 296.824 423.281 298.082 416.024C300.256 403.484 319.692 396.276 331.115 390.051L378.196 364.051C391.808 356.555 405.377 348.982 418.903 341.332C426.422 337.063 435.168 331.735 442.822 327.961Z"/><path fill="#FCA160" d="M404.945 365.55C421.17 366.564 412.481 391.452 397.548 396.251C379.514 395.619 389.143 369.636 404.945 365.55Z"/><path fill="#FCA160" d="M367.83 386.044C384.815 385.417 376.463 411.139 361.26 415.938C344.542 416.738 352.158 390.218 367.83 386.044Z"/><path fill="#FCA160" d="M332.371 405.537C347.884 408.29 337.942 428.069 329.994 433.463C327.702 435.019 326.168 435.422 323.579 436.148C306.502 434.707 317.357 409.607 332.371 405.537Z"/><path fill="#E8DFD0" d="M687.364 419.527C687.136 421.703 681.188 442.731 680.326 445.469C676.146 458.754 672.749 474.225 668.423 487.225C644.514 500.536 620.5 513.655 596.381 526.581C582.919 533.91 564.601 544.672 550.948 551.042C550.612 545.138 550.808 537.266 550.776 531.241L550.501 495.121C586.864 475.694 622.575 454.742 659.052 435.478C668.61 430.43 677.808 424.621 687.364 419.527Z"/><path fill="#FCA160" d="M618.149 474.071C636.705 471.544 629.192 496.885 613.299 503.939C594.259 505.17 603.3 479.872 618.149 474.071Z"/><path fill="#FCA160" d="M655.915 454.528C672.809 455.035 663.383 478.9 648.592 484.215C630.676 483.752 639.699 459.436 655.915 454.528Z"/><path fill="#FCA160" d="M583.873 494.086C599.583 495.49 590.127 516.426 582.237 521.427C579.814 522.963 578.573 523.333 575.885 524.123C559.321 523.913 567.694 497.89 583.873 494.086Z"/><path fill="#E8DFD0" d="M213.829 226.485C213.792 228.266 210.926 237.722 210.385 239.988C206.474 256.384 199.372 275.514 196.418 291.86C184.842 298.571 171.86 305.271 160.018 311.816L72.2502 360.103C70.8405 356.596 71.8955 319.565 72.7386 313.673C74.0895 304.23 81.6255 300.967 89.5333 296.63C96.9937 292.563 104.432 288.456 111.849 284.31C145.219 265.481 180.991 245.914 213.829 226.485Z"/><path fill="#FCA160" d="M141.254 282.967C157.641 283.344 146.878 310.354 132.2 315.627C131.112 315.506 130.043 315.247 129.02 314.855C119.08 310.994 125.519 296.789 130.348 291.099C133.727 287.119 136.351 284.927 141.254 282.967Z"/><path fill="#FCA160" d="M178.918 262.521C194.431 264.64 182.795 286.894 174.834 291.66C172.593 293.002 171.269 293.426 168.838 294.179C152.442 293.512 162.741 266.953 178.918 262.521Z"/><path fill="#FCA160" d="M104.832 304.048C115.207 304.476 113.006 314.886 110.051 321.503C107.158 327.982 102.857 332.754 96.2547 335.34C79.1618 333.631 90.4547 308.329 104.832 304.048Z"/><path fill="#E8DFD0" d="M46.6262 359.796C51.5644 363.331 57.1963 366.866 62.3262 370.216C61.4404 383.374 62.2585 404.685 62.3033 418.46L62.3861 510.083L62.2602 826.935L62.0516 827.76C59.4536 827.573 50.0987 821.859 48.2263 819.896C45.6506 817.197 46.5566 807.807 46.5559 803.739L46.5583 775.246L46.5511 679.029L46.6262 359.796Z"/><path fill="#E8DFD0" d="M722.468 362.718C723.242 362.6 723.454 362.678 724.246 362.737C723.702 363.365 702.591 375.057 700.018 376.477C653.513 402.15 606.086 426.657 559.981 453.022L560.064 434.383C573.15 425.926 588.19 418.338 601.942 410.927L658.75 380.021C661.734 378.375 671.998 373.745 673.383 371.683C673.49 370.05 673.596 369.859 673.156 368.248C671.857 367.921 671.288 367.898 669.871 368.627C659.31 374.062 648.594 379.786 638.155 385.396L560.072 428.266C560.276 410.428 559.544 390.322 560.44 372.765C576.974 371.378 594.145 370.612 610.753 369.637C648.013 367.699 685.253 365.393 722.468 362.718Z"/><path fill="#E8DFD0" d="M272.626 458.76C274.963 460.183 284.148 471.131 287.491 474.229L287.537 878.545C283.248 875.568 276.434 871.925 272.905 868.721L272.626 458.76Z"/><path fill="#E8DFD0" d="M526.461 550.309C530.134 552.428 537.766 559.354 540.841 562.254L540.544 962.725C536.336 960.156 530.981 957.179 527.431 953.847C525.884 952.396 525.546 950.828 525.528 948.683C525.389 931.781 525.466 914.659 525.481 897.77C525.38 862.654 525.52 827.537 525.901 792.422L526.461 550.309Z"/><path fill="#E8DFD0" d="M554.36 380.419C555.5 381.891 555.008 425.422 555.004 431.082C550.1 434.241 523.416 447.674 522.585 450.302C522.714 452.449 522.31 451.692 523.282 453.148C525.821 453.361 551.118 439.055 555.047 436.913L555.055 455.433C545.917 460.53 536.679 465.623 527.614 470.832C516.693 477.107 517.397 482.632 517.49 493.6C509.563 492.861 500.951 492.578 492.914 492.047C475.889 491.756 458.05 490.261 440.642 489.907C478.881 453.758 516.789 417.261 554.36 380.419Z"/><path fill="#E8DFD0" d="M548.045 378.934L548.739 379.224C547.392 381.331 526.125 401.552 523.415 404.179C494.003 432.694 464.405 461.018 434.625 489.149C407.155 488.948 379.69 488.319 352.239 487.261L350.148 486.981L349.983 486.497C351.437 485.007 365.265 477.925 367.756 476.59L406.167 455.918L509.253 399.967C522.004 393.101 535.249 385.422 548.045 378.934Z"/><path fill="#E8DFD0" d="M338.922 492.019C345.832 491.282 364.302 492.032 372.082 492.307C390.953 492.975 410.844 492.949 429.595 493.947C414.335 508.318 399.208 522.831 384.215 537.482C374.136 547.017 364.215 556.805 354.234 566.446C349.012 571.489 344.087 576.856 338.696 581.703L338.922 492.019Z"/></svg>